<?xml version="1.0" encoding="iso-8859-1"?>
<!-- Generator: Adobe Illustrator 19.0.0, SVG Export Plug-In . SVG Version: 6.00 Build 0)  -->
<svg version="1.1" id="Layer_1" xmlns="http://www.w3.org/2000/svg" xmlns:xlink="http://www.w3.org/1999/xlink" x="0px" y="0px"
	 viewBox="0 0 512 512" style="enable-background:new 0 0 512 512;" xml:space="preserve">
<g>
	<g>
		<g>
			<path d="M256,0C114.842,0,0,114.842,0,256s114.842,256,256,256s256-114.842,256-256S397.158,0,256,0z M256,494.933
				C124.254,494.933,17.067,387.746,17.067,256S124.254,17.067,256,17.067S494.933,124.254,494.933,256S387.746,494.933,256,494.933
				z"/>
			<path d="M447.035,182.314c-0.179-0.452-0.358-0.905-0.538-1.357c-1.451-3.669-2.995-7.296-4.651-10.863
				c-0.154-0.324-0.299-0.657-0.452-0.981c-1.852-3.934-3.806-7.808-5.896-11.605c-0.009-0.008-0.017-0.026-0.017-0.034
				l-0.009-0.008c-17.331-31.445-42.675-57.882-73.276-76.518c-0.008-0.009-0.017-0.017-0.026-0.026
				c-0.043-0.026-0.085-0.043-0.137-0.077c-3.439-2.082-6.963-4.045-10.53-5.931c-0.802-0.427-1.613-0.828-2.415-1.246
				c-3.226-1.647-6.494-3.217-9.805-4.702c-0.401-0.179-0.802-0.367-1.212-0.546c-25.148-11.042-52.898-17.22-82.074-17.22
				c-16.776,0-33.075,2.074-48.691,5.897c-0.017,0.008-0.034,0-0.051,0c-0.051,0.017-0.111,0.034-0.162,0.051
				c-8.457,2.082-16.7,4.693-24.713,7.791c-0.512,0.205-1.024,0.41-1.545,0.614c-3.567,1.408-7.091,2.918-10.564,4.523
				c-0.418,0.196-0.836,0.375-1.254,0.572c-3.883,1.826-7.706,3.763-11.452,5.82c-0.026,0.017-0.06,0.034-0.094,0.051
				c-0.009,0.008-0.017,0.017-0.026,0.017c-31.445,17.34-57.882,42.684-76.51,73.284c0,0-0.009,0-0.009,0.008
				c0,0-0.008,0.009-0.008,0.017c-2.108,3.456-4.079,6.997-5.973,10.59c-0.452,0.845-0.879,1.707-1.314,2.56
				c-1.604,3.123-3.123,6.298-4.565,9.506c-0.23,0.503-0.461,0.998-0.683,1.502c-3.49,7.97-6.485,16.196-8.951,24.644
				c-0.009,0.034-0.026,0.06-0.034,0.085v0.017c-5.299,18.185-8.201,37.376-8.201,57.25c0,25.958,4.907,50.782,13.756,73.66
				c0.188,0.478,0.384,0.956,0.572,1.434c1.425,3.618,2.953,7.185,4.574,10.692c0.179,0.384,0.35,0.777,0.529,1.169
				c1.835,3.891,3.772,7.723,5.837,11.477c0.017,0.026,0.034,0.06,0.051,0.094c0.009,0.009,0.017,0.017,0.017,0.026
				c17.331,31.437,42.667,57.865,73.25,76.493c0.017,0.009,0.026,0.026,0.034,0.034c0.111,0.068,0.23,0.119,0.341,0.188
				c3.345,2.031,6.767,3.934,10.231,5.769c0.87,0.461,1.758,0.904,2.645,1.357c3.123,1.604,6.298,3.123,9.515,4.565
				c0.478,0.213,0.947,0.435,1.425,0.648c25.131,11.025,52.864,17.195,82.022,17.195c16.768,0,33.058-2.074,48.674-5.888
				c0.017-0.008,0.043-0.008,0.068-0.008c0.051-0.017,0.111-0.034,0.162-0.051c8.457-2.082,16.7-4.693,24.713-7.791
				c0.521-0.196,1.024-0.41,1.545-0.614c3.567-1.408,7.091-2.91,10.564-4.523c0.418-0.188,0.836-0.375,1.254-0.563
				c3.883-1.835,7.706-3.772,11.452-5.828c0.026-0.017,0.06-0.034,0.094-0.051c0.009,0,0.017-0.017,0.026-0.017
				c31.445-17.34,57.882-42.675,76.518-73.284c0,0,0,0,0-0.009c0.009,0,0.009-0.009,0.009-0.017
				c2.108-3.456,4.07-6.997,5.973-10.573c0.452-0.862,0.887-1.724,1.323-2.594c1.604-3.115,3.123-6.281,4.557-9.489
				c0.23-0.504,0.461-0.998,0.683-1.502c3.499-7.962,6.485-16.196,8.951-24.644c0.009-0.026,0.026-0.06,0.034-0.085v-0.009
				c5.299-18.193,8.201-37.385,8.201-57.259C460.799,230.032,455.893,205.2,447.035,182.314z M342.024,145.168l19.499-44.348
				c21.717,14.814,40.166,34.074,54.059,56.448l-45.09,17.545c-6.835,2.662-14.498,1.058-19.046-4.002
				c-1.98-2.202-4.036-4.343-6.152-6.391C340.368,159.649,339.054,151.918,342.024,145.168z M255.999,68.266
				c14.814,0,29.21,1.775,43.042,5.035l-19.49,44.331c-2.944,6.699-9.719,10.692-16.648,10.564
				c-2.287-0.128-4.591-0.196-7.108-0.196h-0.051c-7.859,0-14.652-4.42-17.323-11.281l-17.553-45.107
				C232.259,69.443,243.993,68.266,255.999,68.266z M255.999,230.399c-18.825,0-34.133-15.309-34.133-34.133
				s15.309-34.133,34.133-34.133c18.825,0,34.133,15.309,34.133,34.133S274.824,230.399,255.999,230.399z M290.133,315.732
				c0,18.825-15.309,34.133-34.133,34.133c-18.825,0-34.133-15.309-34.133-34.133s15.309-34.133,34.133-34.133
				C274.824,281.599,290.133,296.908,290.133,315.732z M157.268,96.417l17.587,45.184c2.662,6.852,1.033,14.507-4.045,19.046
				c-2.21,1.971-4.344,4.019-6.391,6.127c-4.762,4.881-12.467,6.17-19.209,3.226l-44.39-19.516
				C115.634,128.759,134.894,110.31,157.268,96.417z M71.611,291.131c-2.167-11.383-3.345-23.117-3.345-35.132
				c0-14.814,1.775-29.21,5.035-43.042l44.331,19.482c6.69,2.953,10.94,9.643,10.556,16.657c-0.128,2.278-0.188,4.591-0.188,7.125
				c0.017,7.868-4.412,14.686-11.29,17.365L71.611,291.131z M169.975,366.83l-19.499,44.348
				c-21.717-14.814-40.166-34.074-54.059-56.448l45.09-17.545c6.827-2.662,14.49-1.05,19.046,4.002
				c1.98,2.202,4.036,4.343,6.153,6.391C171.63,352.349,172.944,360.08,169.975,366.83z M162.133,255.999
				c0-18.825,15.309-34.133,34.133-34.133s34.133,15.309,34.133,34.133s-15.309,34.133-34.133,34.133
				S162.133,274.824,162.133,255.999z M255.999,443.732c-14.814,0-29.21-1.775-43.042-5.035l19.49-44.331
				c2.944-6.699,9.668-10.812,16.649-10.556c2.287,0.119,4.591,0.188,7.134,0.188h0.051c7.842,0,14.626,4.429,17.297,11.281
				l17.553,45.107C279.739,442.555,268.006,443.732,255.999,443.732z M315.732,290.133c-18.825,0-34.133-15.309-34.133-34.133
				s15.309-34.133,34.133-34.133c18.825,0,34.133,15.309,34.133,34.133S334.557,290.133,315.732,290.133z M354.73,415.581
				l-17.545-45.099c-2.662-6.835-1.058-14.49,4.011-19.038c2.202-1.988,4.326-4.036,6.374-6.152
				c4.787-4.932,12.518-6.238,19.26-3.277l44.348,19.507C396.364,383.24,377.104,401.689,354.73,415.581z M438.698,299.05
				l-44.331-19.49c-6.69-2.953-10.94-9.643-10.556-16.657c0.128-2.278,0.188-4.582,0.188-6.904v-0.213v-0.017
				c-0.017-7.868,4.412-14.677,11.29-17.348l45.099-17.553c2.167,11.383,3.345,23.125,3.345,35.132
				C443.732,270.813,441.958,285.209,438.698,299.05z"/>
			<path d="M238.933,315.733c0,9.412,7.654,17.067,17.067,17.067s17.067-7.654,17.067-17.067c0-9.412-7.654-17.067-17.067-17.067
				S238.933,306.321,238.933,315.733z"/>
			<path d="M315.733,238.933c-9.412,0-17.067,7.654-17.067,17.067c0,9.412,7.654,17.067,17.067,17.067S332.8,265.412,332.8,256
				C332.8,246.588,325.146,238.933,315.733,238.933z"/>
			<path d="M196.267,238.933c-9.412,0-17.067,7.654-17.067,17.067c0,9.412,7.654,17.067,17.067,17.067s17.067-7.654,17.067-17.067
				C213.333,246.588,205.679,238.933,196.267,238.933z"/>
			<path d="M256,179.2c-9.412,0-17.067,7.654-17.067,17.067c0,9.412,7.654,17.067,17.067,17.067s17.067-7.654,17.067-17.067
				C273.067,186.854,265.412,179.2,256,179.2z"/>
		</g>
	</g>
</g>
<g>
</g>
<g>
</g>
<g>
</g>
<g>
</g>
<g>
</g>
<g>
</g>
<g>
</g>
<g>
</g>
<g>
</g>
<g>
</g>
<g>
</g>
<g>
</g>
<g>
</g>
<g>
</g>
<g>
</g>
</svg>
