<?xml version="1.0" encoding="iso-8859-1"?>
<!-- Generator: Adobe Illustrator 19.0.0, SVG Export Plug-In . SVG Version: 6.00 Build 0)  -->
<svg version="1.1" id="Layer_1" xmlns="http://www.w3.org/2000/svg" xmlns:xlink="http://www.w3.org/1999/xlink" x="0px" y="0px"
	 viewBox="0 0 504.657 504.657" style="enable-background:new 0 0 504.657 504.657;" xml:space="preserve">
<g>
	<g>
		<g>
			<path d="M252.878,76.041c-82.549,0.059-159.82,27.824-207.201,75.063C15.796,180.9,0,215.959,0,252.488
				c0,96.709,113.437,175.725,252.861,176.128h0.017c3.693,0,7.16-3.072,8.234-6.606c33.951-111.322,33.868-228.914-0.235-340.035
				C259.802,78.458,256.554,76.049,252.878,76.041z"/>
			<path d="M504.657,251.963c0-4.633-3.752-8.393-8.393-8.393H387.375c0.697-12.087,2.938-25.357,7.965-39.08
				c3.618-9.879,5.926-19.263,7.353-28.068h93.57c4.642,0,8.393-3.76,8.393-8.393s-3.752-8.393-8.393-8.393h-91.858
				c1.343-32.013-8.838-52.929-9.451-54.138c-2.09-4.13-7.109-5.791-11.239-3.718c-4.138,2.073-5.817,7.101-3.76,11.247
				c0.118,0.252,8.847,18.541,7.571,46.609h-75.919c-4.633,0-8.393,3.76-8.393,8.393s3.76,8.393,8.393,8.393h73.988
				c-1.276,7.059-3.164,14.487-6.018,22.293c-5.8,15.838-8.326,31.056-9.048,44.855h-58.922c-4.633,0-8.393,3.76-8.393,8.393
				c0,4.633,3.76,8.393,8.393,8.393h58.897c1.326,26.036,8.377,43.931,8.889,45.165c0.076,0.193,3.416,8.578,5.758,21.982h-73.543
				c-4.633,0-8.393,3.76-8.393,8.393s3.76,8.393,8.393,8.393h75.482c0.982,15.981-0.361,35.471-7.823,55.867
				c-1.595,4.356,0.646,9.182,4.994,10.769c0.957,0.344,1.93,0.512,2.887,0.512c3.425,0,6.639-2.107,7.881-5.506
				c8.268-22.604,9.929-43.982,8.973-61.641h92.261c4.642,0,8.393-3.76,8.393-8.393s-3.752-8.393-8.393-8.393h-94.015
				c-2.644-16.678-6.95-27.438-7.327-28.353c-0.109-0.26-6.253-15.855-7.563-38.794h108.905
				C500.905,260.357,504.657,256.596,504.657,251.963z"/>
		</g>
	</g>
</g>
<g>
</g>
<g>
</g>
<g>
</g>
<g>
</g>
<g>
</g>
<g>
</g>
<g>
</g>
<g>
</g>
<g>
</g>
<g>
</g>
<g>
</g>
<g>
</g>
<g>
</g>
<g>
</g>
<g>
</g>
</svg>
