<?xml version="1.0" encoding="iso-8859-1"?>
<!-- Generator: Adobe Illustrator 19.0.0, SVG Export Plug-In . SVG Version: 6.00 Build 0)  -->
<svg version="1.1" id="Layer_1" xmlns="http://www.w3.org/2000/svg" xmlns:xlink="http://www.w3.org/1999/xlink" x="0px" y="0px"
	 viewBox="0 0 512.003 512.003" style="enable-background:new 0 0 512.003 512.003;" xml:space="preserve">
<g>
	<g>
		<g>
			<path d="M503.47,281.602c-4.719,0-8.533,3.814-8.533,8.533v17.067h-25.6V162.135c0-20.599-14.686-37.837-34.133-41.805v271.266
				c16.683-3.405,29.875-16.512,33.271-33.195h26.462v17.067c0,4.719,3.814,8.533,8.533,8.533s8.533-3.814,8.533-8.533v-25.6
				v-34.133v-25.6C512.003,285.416,508.189,281.602,503.47,281.602z"/>
			<path d="M43.529,153.602H17.067v-17.067c0-4.719-3.814-8.533-8.533-8.533c-4.71,0-8.533,3.814-8.533,8.533v25.6v34.133v25.6
				c0,4.719,3.823,8.533,8.533,8.533c4.719,0,8.533-3.814,8.533-8.533v-17.067h25.6v145.067c0,20.599,14.686,37.837,34.133,41.805
				V120.407C60.126,123.812,46.933,136.919,43.529,153.602z"/>
			<path d="M93.87,392.535h324.267V119.468H93.87V392.535z M119.47,162.135c0-4.719,3.814-8.533,8.533-8.533
				s8.533,3.814,8.533,8.533h247.467c4.719,0,8.533,3.814,8.533,8.533v8.533c0,4.719-3.814,8.533-8.533,8.533
				s-8.533-3.814-8.533-8.533H128.003c-4.719,0-8.533-3.814-8.533-8.533V162.135z M119.47,204.802c0-4.719,3.814-8.533,8.533-8.533
				s8.533,3.814,8.533,8.533h247.467c4.719,0,8.533,3.814,8.533,8.533v8.533c0,4.719-3.814,8.533-8.533,8.533
				s-8.533-3.814-8.533-8.533H128.003c-4.719,0-8.533-3.814-8.533-8.533V204.802z M119.47,247.468c0-4.719,3.814-8.533,8.533-8.533
				s8.533,3.814,8.533,8.533h247.467c4.719,0,8.533,3.814,8.533,8.533v8.533c0,4.719-3.814,8.533-8.533,8.533
				s-8.533-3.814-8.533-8.533H128.003c-4.719,0-8.533-3.814-8.533-8.533V247.468z M119.47,290.135c0-4.719,3.814-8.533,8.533-8.533
				s8.533,3.814,8.533,8.533h247.467c4.719,0,8.533,3.814,8.533,8.533v8.533c0,4.719-3.814,8.533-8.533,8.533
				s-8.533-3.814-8.533-8.533H128.003c-4.719,0-8.533-3.814-8.533-8.533V290.135z M119.47,332.802c0-4.719,3.814-8.533,8.533-8.533
				s8.533,3.814,8.533,8.533h247.467c4.719,0,8.533,3.814,8.533,8.533v8.533c0,4.719-3.814,8.533-8.533,8.533
				s-8.533-3.814-8.533-8.533H128.003c-4.719,0-8.533-3.814-8.533-8.533V332.802z"/>
		</g>
	</g>
</g>
<g>
</g>
<g>
</g>
<g>
</g>
<g>
</g>
<g>
</g>
<g>
</g>
<g>
</g>
<g>
</g>
<g>
</g>
<g>
</g>
<g>
</g>
<g>
</g>
<g>
</g>
<g>
</g>
<g>
</g>
</svg>
