<?xml version="1.0" encoding="iso-8859-1"?>
<!-- Generator: Adobe Illustrator 19.0.0, SVG Export Plug-In . SVG Version: 6.00 Build 0)  -->
<svg version="1.1" id="Layer_1" xmlns="http://www.w3.org/2000/svg" xmlns:xlink="http://www.w3.org/1999/xlink" x="0px" y="0px"
	 viewBox="0 0 512 512" style="enable-background:new 0 0 512 512;" xml:space="preserve">
<g>
	<g>
		<g>
			<path d="M85.333,383.998c10.3,0,19.388-3.251,25.6-8.499c6.212,5.248,15.3,8.499,25.6,8.499s19.388-3.251,25.6-8.499
				c6.212,5.248,15.3,8.499,25.6,8.499c4.71,0,8.533-3.823,8.533-8.533s-3.823-8.533-8.533-8.533
				c-10.419,0-17.067-5.052-17.067-8.533c0-4.71-3.823-8.533-8.533-8.533c-4.71,0-8.533,3.823-8.533,8.533
				c0,3.482-6.647,8.533-17.067,8.533s-17.067-5.052-17.067-8.533c0-4.71-3.823-8.533-8.533-8.533c-4.71,0-8.533,3.823-8.533,8.533
				c0,3.482-6.647,8.533-17.067,8.533c-10.419,0-17.067-5.052-17.067-8.533c0-4.71-3.823-8.533-8.533-8.533
				s-8.533,3.823-8.533,8.533c0,3.482-6.647,8.533-17.067,8.533c-10.419,0-17.067-5.052-17.067-8.533
				c0-4.71-3.823-8.533-8.533-8.533S0,353.687,0,358.398c0,14.353,14.993,25.6,34.133,25.6c10.3,0,19.388-3.251,25.6-8.499
				C65.946,380.746,75.034,383.998,85.333,383.998z"/>
			<path d="M460.8,443.731c-10.419,0-17.067-5.052-17.067-8.533c0-4.71-3.823-8.533-8.533-8.533c-4.71,0-8.533,3.823-8.533,8.533
				c0,3.482-6.647,8.533-17.067,8.533c-10.419,0-17.067-5.052-17.067-8.533c0-4.71-3.823-8.533-8.533-8.533
				c-4.71,0-8.533,3.823-8.533,8.533c0,3.482-6.647,8.533-17.067,8.533c-10.419,0-17.067-5.052-17.067-8.533
				c0-4.71-3.823-8.533-8.533-8.533c-4.71,0-8.533,3.823-8.533,8.533c0,3.482-6.647,8.533-17.067,8.533s-17.067-5.052-17.067-8.533
				c0-4.71-3.823-8.533-8.533-8.533s-8.533,3.823-8.533,8.533c0,3.482-6.647,8.533-17.067,8.533s-17.067-5.052-17.067-8.533
				c0-4.71-3.823-8.533-8.533-8.533c-4.71,0-8.533,3.823-8.533,8.533c0,3.482-6.647,8.533-17.067,8.533
				c-10.419,0-17.067-5.052-17.067-8.533c0-4.71-3.823-8.533-8.533-8.533s-8.533,3.823-8.533,8.533
				c0,3.482-6.647,8.533-17.067,8.533c-10.419,0-17.067-5.052-17.067-8.533c0-4.71-3.823-8.533-8.533-8.533
				c-4.71,0-8.533,3.823-8.533,8.533c0,3.482-6.647,8.533-17.067,8.533c-10.419,0-17.067-5.052-17.067-8.533
				c0-4.71-3.823-8.533-8.533-8.533s-8.533,3.823-8.533,8.533c0,3.482-6.647,8.533-17.067,8.533c-4.71,0-8.533,3.823-8.533,8.533
				s3.823,8.533,8.533,8.533c10.3,0,19.388-3.251,25.6-8.499c6.212,5.248,15.3,8.499,25.6,8.499c10.3,0,19.388-3.251,25.6-8.499
				c6.212,5.248,15.3,8.499,25.6,8.499c10.3,0,19.388-3.251,25.6-8.499c6.212,5.248,15.3,8.499,25.6,8.499
				c10.3,0,19.388-3.251,25.6-8.499c6.212,5.248,15.3,8.499,25.6,8.499s19.388-3.251,25.6-8.499c6.212,5.248,15.3,8.499,25.6,8.499
				s19.388-3.251,25.6-8.499c6.212,5.248,15.3,8.499,25.6,8.499s19.388-3.251,25.6-8.499c6.212,5.248,15.3,8.499,25.6,8.499
				s19.388-3.251,25.6-8.499c6.212,5.248,15.3,8.499,25.6,8.499c4.71,0,8.533-3.823,8.533-8.533S465.51,443.731,460.8,443.731z"/>
			<path d="M503.467,366.931c-10.419,0-17.067-5.052-17.067-8.533c0-4.71-3.823-8.533-8.533-8.533s-8.533,3.823-8.533,8.533
				c0,3.482-6.647,8.533-17.067,8.533c-10.419,0-17.067-5.052-17.067-8.533c0-4.71-3.823-8.533-8.533-8.533
				s-8.533,3.823-8.533,8.533c0,3.482-6.647,8.533-17.067,8.533c-10.419,0-17.067-5.052-17.067-8.533
				c0-4.71-3.823-8.533-8.533-8.533c-4.71,0-8.533,3.823-8.533,8.533c0,3.482-6.647,8.533-17.067,8.533
				c-10.419,0-17.067-5.052-17.067-8.533c0-4.71-3.823-8.533-8.533-8.533c-4.71,0-8.533,3.823-8.533,8.533
				c0,14.353,14.993,25.6,34.133,25.6c10.3,0,19.388-3.251,25.6-8.499c6.212,5.248,15.3,8.499,25.6,8.499
				c10.3,0,19.388-3.251,25.6-8.499c6.212,5.248,15.3,8.499,25.6,8.499s19.388-3.251,25.6-8.499c6.212,5.248,15.3,8.499,25.6,8.499
				c4.71,0,8.533-3.823,8.533-8.533S508.177,366.931,503.467,366.931z"/>
			<path d="M245.875,399.889c3.362,0.776,6.741,1.16,10.078,1.16c9.626,0,18.944-3.174,26.564-9.224
				c10.266-8.149,16.154-20.335,16.154-33.425c0-13.346-6.434-25.95-17.067-33.963v-34.304h25.6c14.114,0,25.6-11.486,25.6-25.6
				c0-14.123-11.486-25.6-25.6-25.6h-25.6v-25.6h25.6c14.114,0,25.6-11.486,25.6-25.6c0-14.123-11.486-25.6-25.6-25.6h-25.6v-25.6
				h25.6c14.114,0,25.6-11.486,25.6-25.6c0-14.123-11.486-25.6-25.6-25.6h-25.6v-7.62c0-12.937-9.19-24.183-21.367-26.172
				c-7.492-1.22-15.087,0.887-20.813,5.751c-5.734,4.872-9.02,11.981-9.02,19.507v247.629
				c-13.653,10.232-19.942,27.529-15.778,44.553C218.347,384.214,230.618,396.339,245.875,399.889z"/>
		</g>
	</g>
</g>
<g>
</g>
<g>
</g>
<g>
</g>
<g>
</g>
<g>
</g>
<g>
</g>
<g>
</g>
<g>
</g>
<g>
</g>
<g>
</g>
<g>
</g>
<g>
</g>
<g>
</g>
<g>
</g>
<g>
</g>
</svg>
