<?xml version="1.0" encoding="iso-8859-1"?>
<!-- Generator: Adobe Illustrator 19.0.0, SVG Export Plug-In . SVG Version: 6.00 Build 0)  -->
<svg version="1.1" id="Layer_1" xmlns="http://www.w3.org/2000/svg" xmlns:xlink="http://www.w3.org/1999/xlink" x="0px" y="0px"
	 viewBox="0 0 512.003 512.003" style="enable-background:new 0 0 512.003 512.003;" xml:space="preserve">
<g>
	<g>
		<g>
			<path d="M256.006,128c0-70.579-57.421-128-128-128s-128,57.421-128,128s57.421,128,128,128S256.006,198.579,256.006,128z"/>
			<path d="M384.001,119.467c28.237,0,51.2-22.963,51.2-51.2s-22.963-51.2-51.2-51.2c-28.237,0-51.2,22.963-51.2,51.2
				S355.765,119.467,384.001,119.467z M384.001,34.133c18.825,0,34.133,15.309,34.133,34.133S402.826,102.4,384.001,102.4
				c-18.825,0-34.133-15.309-34.133-34.133S365.177,34.133,384.001,34.133z"/>
			<path d="M509.394,105.5c1.664-1.613,2.603-3.823,2.603-6.135l-0.008-48.162c0-3.447-2.074-6.554-5.257-7.885
				c-3.157-1.306-6.827-0.597-9.293,1.826L388.878,152.877c-7.902-10.453-18.884-18.022-31.77-21.572
				c-31.13-8.542-63.215,8.832-73.011,39.62l-32.973,103.723l-6.153-6.153c-3.2-3.2-8.866-3.2-12.066,0l-24.132,24.141
				c-3.337,3.328-3.337,8.73,0,12.066l9.404,9.404l-81.067-10.129c-12.561-1.596-24.619,6.477-27.955,18.722L69.51,468.064
				c-2.586,9.472-1.033,19.644,4.267,27.913c5.291,8.26,13.884,13.935,23.569,15.548c1.894,0.316,3.789,0.469,5.666,0.469
				c14.95,0,28.672-9.754,33.254-24.405l31.428-100.582c1.263-4.036,5.325-6.596,9.566-5.939L305.371,401.3l108.203,108.203
				c1.596,1.596,3.772,2.5,6.033,2.5s4.429-0.905,6.033-2.5l24.132-24.141c3.337-3.337,3.337-8.73,0-12.066L347.713,371.237
				l48.111-155.93L509.394,105.5z M179.914,364.214c-12.467-1.971-24.738,5.632-28.51,17.707l-31.428,100.582
				c-2.628,8.397-11.187,13.628-19.823,12.186c-5.009-0.828-9.267-3.644-12.006-7.919c-2.739-4.267-3.507-9.318-2.176-14.217
				l39.646-145.365c1.024-3.763,4.497-6.349,8.32-6.349c0.35,0,0.708,0.026,1.058,0.068l102.844,12.851l47.01,47.019
				L179.914,364.214z M383.801,193.598c-0.29,2.722-0.819,5.436-1.647,8.115l-1.997,6.468L334.06,357.583l-69.35-69.35
				l35.661-112.137c7.006-22.016,29.961-34.466,52.207-28.331c11.281,3.106,20.582,10.462,26.206,20.719
				c0.683,1.246,1.101,2.586,1.656,3.874c0.717,1.698,1.451,3.388,1.946,5.146c0.239,0.836,0.341,1.707,0.529,2.56
				c0.393,1.809,0.802,3.61,0.956,5.444c0.094,1.109,0,2.227,0,3.345C383.886,190.432,383.971,192.02,383.801,193.598z"/>
		</g>
	</g>
</g>
<g>
</g>
<g>
</g>
<g>
</g>
<g>
</g>
<g>
</g>
<g>
</g>
<g>
</g>
<g>
</g>
<g>
</g>
<g>
</g>
<g>
</g>
<g>
</g>
<g>
</g>
<g>
</g>
<g>
</g>
</svg>
