<?xml version="1.0" encoding="iso-8859-1"?>
<!-- Generator: Adobe Illustrator 19.0.0, SVG Export Plug-In . SVG Version: 6.00 Build 0)  -->
<svg version="1.1" id="Layer_1" xmlns="http://www.w3.org/2000/svg" xmlns:xlink="http://www.w3.org/1999/xlink" x="0px" y="0px"
	 viewBox="0 0 511.573 511.573" style="enable-background:new 0 0 511.573 511.573;" xml:space="preserve">
<g>
	<g>
		<g>
			<path d="M259.212,272.555c-4.89,2.33-9.779,4.659-14.643,7.04c-10.778,5.257-16.401,17.254-13.679,29.158
				c2.082,9.131,9.626,16.674,18.748,18.748c11.921,2.722,23.902-2.901,29.167-13.67c2.381-4.864,4.71-9.754,7.031-14.635
				c7.236-15.189,14.72-30.899,23.637-45.756l6.767-11.281l-11.273,6.767C290.103,257.835,274.401,265.318,259.212,272.555z"/>
			<path d="M349.653,379.413c-9.412,0-17.067,7.654-17.067,17.067c0,9.412,7.654,17.067,17.067,17.067
				c9.412,0,17.067-7.654,17.067-17.067C366.72,387.068,359.066,379.413,349.653,379.413z"/>
			<path d="M161.92,379.413c-9.412,0-17.067,7.654-17.067,17.067c0,9.412,7.654,17.067,17.067,17.067
				c9.412,0,17.067-7.654,17.067-17.067C178.987,387.068,171.332,379.413,161.92,379.413z"/>
			<path d="M426.453,302.613c0-4.71,3.823-8.533,8.533-8.533h76.587c-0.956-28.928-6.716-56.653-16.538-82.406l-38.007,18.15
				c-1.186,0.563-2.441,0.828-3.669,0.828c-3.183,0-6.246-1.792-7.706-4.855c-2.031-4.25-0.23-9.344,4.028-11.375l38.724-18.492
				c-11.81-25.651-27.733-49.015-46.933-69.265l-28.57,30.891c-1.681,1.818-3.977,2.739-6.272,2.739
				c-2.065,0-4.147-0.751-5.786-2.27c-3.465-3.2-3.678-8.593-0.469-12.058l28.971-31.317c-19.311-17.852-41.37-32.742-65.459-44.015
				l-17.536,38.869c-1.425,3.157-4.531,5.026-7.782,5.026c-1.178,0-2.372-0.239-3.507-0.751c-4.292-1.937-6.212-6.997-4.267-11.29
				l17.391-38.554c-26.163-10.163-54.383-16.137-83.866-17.109v76.587c0,4.71-3.823,8.533-8.533,8.533
				c-4.71,0-8.533-3.823-8.533-8.533V46.827c-27.639,0.913-54.204,6.161-78.976,15.206l15.01,40.021
				c1.655,4.412-0.58,9.327-5,10.982c-0.981,0.367-1.997,0.546-2.995,0.546c-3.447,0-6.699-2.116-7.987-5.538l-14.839-39.578
				c-26.462,11.725-50.577,27.793-71.433,47.326l29.935,29.935c3.337,3.337,3.337,8.738,0,12.066c-1.664,1.673-3.849,2.5-6.033,2.5
				c-2.185,0-4.361-0.828-6.033-2.5l-29.935-29.935c-18.347,19.593-33.647,42.061-45.158,66.654l38.869,17.536
				c4.301,1.937,6.212,6.997,4.275,11.29c-1.425,3.157-4.54,5.026-7.791,5.026c-1.169,0-2.364-0.239-3.499-0.76l-38.554-17.391
				C6.946,236.378,0.973,264.597,0,294.08h76.587c4.71,0,8.533,3.823,8.533,8.533s-3.823,8.533-8.533,8.533H0.137
				c0.913,28.066,6.246,55.27,15.855,80.956l38.835-16.828c4.318-1.869,9.344,0.111,11.221,4.437
				c1.877,4.326-0.111,9.344-4.437,11.221l-39.202,16.99c8.576,18.91,19.482,36.881,32.734,53.598
				c1.621,2.031,4.087,3.226,6.69,3.226h387.908c2.603,0,5.069-1.195,6.69-3.226c12.544-15.821,22.886-32.811,31.249-50.611
				l-38.827-17.758c-4.284-1.954-6.17-7.014-4.207-11.307c1.963-4.284,7.031-6.17,11.307-4.207l38.4,17.562
				c10.359-26.598,16.137-54.852,17.084-84.053h-76.45C430.276,311.147,426.453,307.324,426.453,302.613z M161.92,430.613
				c-18.825,0-34.133-15.309-34.133-34.133c0-18.825,15.309-34.133,34.133-34.133c18.825,0,34.133,15.309,34.133,34.133
				C196.053,415.305,180.745,430.613,161.92,430.613z M196.053,191.68v-34.133c0-4.71,3.823-8.533,8.533-8.533h102.4
				c4.71,0,8.533,3.823,8.533,8.533v34.133c0,4.71-3.823,8.533-8.533,8.533h-102.4C199.876,200.213,196.053,196.39,196.053,191.68z
				 M294.144,321.318c-7.296,14.933-22.289,23.945-38.46,23.945c-3.251,0-6.545-0.367-9.839-1.118
				c-15.625-3.558-28.023-15.957-31.599-31.59c-4.489-19.678,4.898-39.535,22.827-48.299c4.915-2.398,9.856-4.753,14.805-7.108
				c14.822-7.057,30.148-14.362,44.305-22.852l40.542-24.329c3.371-2.014,7.663-1.485,10.428,1.28
				c2.773,2.765,3.302,7.066,1.28,10.428l-24.329,40.55c-8.491,14.148-15.795,29.483-22.861,44.314
				C298.897,311.471,296.542,316.412,294.144,321.318z M349.653,430.613c-18.825,0-34.133-15.309-34.133-34.133
				c0-18.825,15.309-34.133,34.133-34.133c18.825,0,34.133,15.309,34.133,34.133C383.787,415.305,368.478,430.613,349.653,430.613z"
				/>
			<rect x="213.116" y="166.08" width="85.333" height="17.067"/>
		</g>
	</g>
</g>
<g>
</g>
<g>
</g>
<g>
</g>
<g>
</g>
<g>
</g>
<g>
</g>
<g>
</g>
<g>
</g>
<g>
</g>
<g>
</g>
<g>
</g>
<g>
</g>
<g>
</g>
<g>
</g>
<g>
</g>
</svg>
