<?xml version="1.0" encoding="iso-8859-1"?>
<!-- Generator: Adobe Illustrator 19.0.0, SVG Export Plug-In . SVG Version: 6.00 Build 0)  -->
<svg version="1.1" id="Layer_1" xmlns="http://www.w3.org/2000/svg" xmlns:xlink="http://www.w3.org/1999/xlink" x="0px" y="0px"
	 viewBox="0 0 512 512" style="enable-background:new 0 0 512 512;" xml:space="preserve">
<g>
	<g>
		<g>
			<polygon points="247.467,179.2 247.467,196.267 264.55,196.267 264.533,179.2 			"/>
			<polygon points="247.467,315.733 247.467,332.8 264.55,332.8 264.533,315.733 			"/>
			<path d="M486.4,144.494v1.775c0,60.083-47.181,113.015-102.81,117.794c-4.002,63.829-54.878,115.012-118.588,119.484
				c4.753,46.549,49.749,85.786,100.727,85.786h31.565C466.364,423.44,512,344.959,512,255.999
				C512,216.055,502.793,178.218,486.4,144.494z"/>
			<polygon points="315.733,247.467 315.733,264.533 332.817,264.533 332.8,247.467 			"/>
			<polygon points="179.2,247.467 179.2,264.533 196.284,264.533 196.267,247.467 			"/>
			<path d="M247.939,383.59c-63.829-4.002-115.012-54.878-119.484-118.588C81.906,269.756,42.67,314.752,42.67,365.73v31.565
				C88.562,466.364,167.043,512,256.003,512c39.945,0,77.773-9.207,111.505-25.6h-1.775
				C305.642,486.4,252.718,439.219,247.939,383.59z"/>
			<path d="M128.41,247.939c4.002-63.829,54.878-115.012,118.588-119.484C242.244,81.906,197.248,42.67,146.27,42.67h-31.565
				C45.636,88.562,0,167.043,0,256.003c0,39.945,9.207,77.773,25.6,111.505v-1.775C25.6,305.642,72.781,252.718,128.41,247.939z"/>
			<path d="M264.061,128.41c63.829,4.002,115.012,54.878,119.484,118.588c46.549-4.753,85.786-49.749,85.786-100.727v-31.565
				c-20.011-30.114-46.225-55.74-76.8-75.093v45.722c0,4.719-3.814,8.533-8.533,8.533h-25.6v25.6c0,4.719-3.814,8.533-8.533,8.533
				h-25.6c-4.71,0-8.533-3.814-8.533-8.533s3.823-8.533,8.533-8.533h17.067v-25.6c0-4.719,3.823-8.533,8.533-8.533h25.6V29.679
				C339.777,10.769,299.133,0,255.997,0c-39.945,0-77.773,9.207-111.505,25.6h1.775C206.358,25.6,259.282,72.781,264.061,128.41z"/>
			<path d="M256,145.067c-61.167,0-110.933,49.766-110.933,110.933S194.833,366.933,256,366.933S366.933,317.167,366.933,256
				S317.167,145.067,256,145.067z M213.333,264.533c0,9.412-7.654,17.067-17.067,17.067H179.2c-9.412,0-17.067-7.654-17.067-17.067
				v-17.067c0-9.412,7.654-17.067,17.067-17.067h17.067c9.412,0,17.067,7.654,17.067,17.067V264.533z M281.6,332.8
				c0,9.412-7.654,17.067-17.067,17.067h-17.067c-9.412,0-17.067-7.654-17.067-17.067v-17.067c0-9.412,7.654-17.067,17.067-17.067
				h17.067c9.412,0,17.067,7.654,17.067,17.067V332.8z M281.6,196.267c0,9.412-7.654,17.067-17.067,17.067h-17.067
				c-9.412,0-17.067-7.654-17.067-17.067V179.2c0-9.412,7.654-17.067,17.067-17.067h17.067c9.412,0,17.067,7.654,17.067,17.067
				V196.267z M349.867,247.467v17.067c0,9.412-7.654,17.067-17.067,17.067h-17.067c-9.412,0-17.067-7.654-17.067-17.067v-17.067
				c0-9.412,7.654-17.067,17.067-17.067H332.8C342.212,230.4,349.867,238.054,349.867,247.467z"/>
		</g>
	</g>
</g>
<g>
</g>
<g>
</g>
<g>
</g>
<g>
</g>
<g>
</g>
<g>
</g>
<g>
</g>
<g>
</g>
<g>
</g>
<g>
</g>
<g>
</g>
<g>
</g>
<g>
</g>
<g>
</g>
<g>
</g>
</svg>
