<?xml version="1.0" encoding="iso-8859-1"?>
<!-- Generator: Adobe Illustrator 19.0.0, SVG Export Plug-In . SVG Version: 6.00 Build 0)  -->
<svg version="1.1" id="Layer_1" xmlns="http://www.w3.org/2000/svg" xmlns:xlink="http://www.w3.org/1999/xlink" x="0px" y="0px"
	 viewBox="0 0 512 512" style="enable-background:new 0 0 512 512;" xml:space="preserve">
<g>
	<g>
		<path d="M447.676,429.833c-7.526-5.589-14.942-10.172-22.818-14.114c1.109-3.098,1.809-6.374,1.809-9.745
			c0-7.927-3.234-15.539-8.892-20.855c-9.6-9.054-18.014-15.386-26.837-20.224c0.998-3.209,1.596-6.63,1.596-10.121
			c0-7.561-2.509-14.899-6.878-20.122c-0.009,0-0.009-0.009-0.009-0.009c-10.146-12.092-20.139-20.087-32.393-25.899
			c-0.188-0.085-0.367-0.171-0.546-0.247c-12.715-6.707-30.268-11.819-51.106-14.976l-1.058-10.624
			C299.017,267.563,286.225,256,270.822,256h-6.289V135.945c33.613-4.224,59.733-32.93,59.733-67.678
			C324.267,30.626,293.641,0,256,0c-37.649,0-68.267,30.626-68.267,68.267c0,34.748,26.112,63.454,59.733,67.678V256h-6.298
			c-15.403,0-28.186,11.563-29.722,26.897l-1.058,10.624c-20.676,3.123-38.161,8.192-50.867,14.848
			c-0.171,0.068-0.333,0.137-0.495,0.213c-12.271,5.828-22.656,14.106-32.691,26.069c-4.369,5.222-6.869,12.561-6.869,20.122
			c0,3.49,0.589,6.912,1.596,10.121c-8.832,4.83-17.237,11.17-26.846,20.224c-5.658,5.316-8.883,12.928-8.883,20.855
			c0,3.371,0.691,6.647,1.801,9.745c-7.876,3.942-15.292,8.525-22.818,14.114C55.97,436.019,51.2,445.065,51.2,454.656
			c0,9.583,4.77,18.637,13.116,24.815C93.406,501.06,127.232,512,164.821,512h0.905h180.54c38.204,0,72.329-10.94,101.41-32.529
			c8.346-6.178,13.124-15.232,13.124-24.815C460.8,445.065,456.021,436.019,447.676,429.833z M238.933,102.4
			c-4.719,0-8.533-3.814-8.533-8.533v-51.2c0-4.719,3.814-8.533,8.533-8.533c4.71,0,8.533,3.814,8.533,8.533v17.067h17.067V42.667
			c0-4.719,3.814-8.533,8.533-8.533c4.71,0,8.533,3.814,8.533,8.533v51.2c0,4.719-3.823,8.533-8.533,8.533
			c-4.719,0-8.533-3.814-8.533-8.533V76.8h-17.067v17.067C247.467,98.586,243.644,102.4,238.933,102.4z M139.426,345.609
			c8.175-9.762,16.512-16.529,26.163-21.239c0.41-0.145,0.802-0.316,1.178-0.529c10.086-5.419,24.704-9.865,41.865-12.783
			l-1.442,14.498c-0.845,8.388,1.911,16.768,7.569,23.023c5.658,6.238,13.722,9.822,22.144,9.822h38.187
			c8.422,0,16.486-3.584,22.144-9.822c5.658-6.255,8.414-14.635,7.569-23.023l-1.442-14.49c17.331,2.953,32.026,7.441,42.112,12.919
			c0.418,0.23,0.853,0.427,1.297,0.58c9.566,4.685,17.553,11.213,25.796,21.043c1.818,2.176,2.901,5.598,2.901,9.165
			c0,3.567-1.084,6.997-2.901,9.156c-15.454,18.449-35.14,28.604-55.432,28.604H194.859c-20.215,0-39.834-10.095-55.262-28.407
			c-0.12-0.179-0.213-0.333-0.307-0.452c-1.707-2.176-2.756-5.444-2.756-8.9C136.533,351.198,137.609,347.776,139.426,345.609z
			 M437.513,465.775c-26.086,19.354-56.781,29.158-91.247,29.158H165.692c-33.92,0.435-64.922-9.651-91.213-29.158
			c-4.011-2.987-6.212-6.929-6.212-11.119c0-4.198,2.202-8.141,6.212-11.119c7.535-5.589,14.916-10.052,22.886-13.841
			c1.041,0.93,2.167,1.732,3.234,2.611c1.34,1.109,2.671,2.227,4.053,3.277c1.707,1.297,3.465,2.5,5.231,3.703
			c1.399,0.956,2.782,1.929,4.207,2.825c1.835,1.143,3.712,2.185,5.598,3.234c1.434,0.794,2.85,1.621,4.309,2.355
			c1.963,0.99,3.968,1.86,5.965,2.739c1.459,0.64,2.893,1.323,4.369,1.903c2.082,0.819,4.207,1.502,6.332,2.21
			c1.451,0.478,2.884,1.015,4.352,1.442c2.236,0.648,4.506,1.143,6.775,1.664c1.399,0.316,2.79,0.708,4.207,0.981
			c2.5,0.478,5.043,0.785,7.578,1.109c1.212,0.145,2.406,0.384,3.627,0.503c3.763,0.35,7.552,0.546,11.358,0.546h154.871
			c3.806,0,7.603-0.196,11.366-0.546c1.22-0.119,2.415-0.358,3.627-0.512c2.534-0.316,5.077-0.623,7.578-1.101
			c1.408-0.265,2.782-0.657,4.173-0.973c2.287-0.521,4.574-1.024,6.818-1.672c1.434-0.418,2.833-0.947,4.25-1.417
			c2.167-0.717,4.326-1.417,6.451-2.253c1.425-0.555,2.807-1.212,4.207-1.826c2.065-0.905,4.13-1.801,6.144-2.825
			c1.391-0.7,2.739-1.493,4.113-2.244c1.954-1.084,3.908-2.167,5.811-3.362c1.365-0.853,2.679-1.783,4.019-2.688
			c1.818-1.246,3.635-2.492,5.393-3.831c1.357-1.024,2.662-2.125,3.977-3.208c1.084-0.896,2.21-1.707,3.268-2.645
			c7.97,3.789,15.352,8.252,22.886,13.841c4.011,2.978,6.221,6.92,6.221,11.119C443.733,458.846,441.523,462.788,437.513,465.775z"
			/>
	</g>
</g>
<g>
</g>
<g>
</g>
<g>
</g>
<g>
</g>
<g>
</g>
<g>
</g>
<g>
</g>
<g>
</g>
<g>
</g>
<g>
</g>
<g>
</g>
<g>
</g>
<g>
</g>
<g>
</g>
<g>
</g>
</svg>
