<?xml version="1.0" encoding="iso-8859-1"?>
<!-- Generator: Adobe Illustrator 19.0.0, SVG Export Plug-In . SVG Version: 6.00 Build 0)  -->
<svg version="1.1" id="Layer_1" xmlns="http://www.w3.org/2000/svg" xmlns:xlink="http://www.w3.org/1999/xlink" x="0px" y="0px"
	 viewBox="0 0 512 512" style="enable-background:new 0 0 512 512;" xml:space="preserve">
<g>
	<g>
		<g>
			<path d="M503.467,25.6H8.533C3.823,25.6,0,29.414,0,34.133v443.733c0,4.719,3.823,8.533,8.533,8.533h494.933
				c4.71,0,8.533-3.814,8.533-8.533V34.133C512,29.414,508.177,25.6,503.467,25.6z M449.604,296.183l-20.659,20.659
				c-7.62,8.166-17.348,13.406-27.878,15.206V384H435.2c9.412,0,17.067,7.654,17.067,17.067v17.067
				c0,9.412-7.654,17.067-17.067,17.067h-85.333c-9.412,0-17.067-7.654-17.067-17.067v-17.067c0-9.412,7.654-17.067,17.067-17.067
				H384v-52.104c-10.197-1.98-19.507-7.245-26.786-15.403l-20.164-20.139c-11.324-8.448-18.415-19.55-20.574-31.821H195.482
				c-2.074,12.041-8.576,23.074-18.944,31.65l-20.659,20.659c-7.62,8.166-17.348,13.406-27.878,15.206v55.339l36.079,7.586
				c9.208,1.954,15.121,11.017,13.175,20.215l-3.507,16.7c-1.69,8.03-8.806,13.559-16.708,13.559c-1.152,0-2.33-0.111-3.499-0.367
				h-0.009l-83.507-17.57c-4.454-0.939-8.286-3.55-10.778-7.381c-2.492-3.814-3.345-8.371-2.406-12.834l3.516-16.708
				c0.939-4.454,3.558-8.277,7.373-10.769c3.823-2.5,8.363-3.362,12.851-2.406l30.353,6.383v-51.9
				c-10.197-1.98-19.507-7.245-26.786-15.403l-20.164-20.139c-13.414-10.001-20.975-23.731-21.316-38.724
				c-0.341-15.65,7.177-30.49,21.18-41.847l20.634-20.625c7.083-7.868,16.324-13.065,26.453-15.036v-64.819l-32.375-6.81
				c-9.216-1.954-15.121-11.017-13.184-20.215l3.516-16.7c1.929-9.199,10.982-15.164,20.207-13.193l83.516,17.57
				c4.454,0.939,8.286,3.55,10.778,7.381c2.483,3.814,3.336,8.371,2.398,12.843l-3.507,16.7c-0.939,4.454-3.558,8.277-7.373,10.769
				c-2.816,1.835-6.016,2.782-9.293,2.782c-1.178,0-2.372-0.119-3.55-0.375L128,118.895v61.03
				c10.59,1.792,20.369,7.091,28.117,15.471l20.719,20.71c9.967,8.371,16.418,19.371,18.569,31.36h121.293
				c2.381-11.827,9.293-22.818,20.216-31.684l20.634-20.625c7.083-7.868,16.324-13.065,26.453-15.036V128h-34.133
				c-9.412,0-17.067-7.654-17.067-17.067V93.867c0-9.412,7.654-17.067,17.067-17.067H435.2c9.412,0,17.067,7.654,17.067,17.067
				v17.067c0,9.412-7.654,17.067-17.067,17.067h-34.133v51.925c10.59,1.792,20.369,7.091,28.117,15.471l20.719,20.71
				c12.467,10.47,19.558,25.037,19.43,40.525C469.214,271.727,462.208,285.756,449.604,296.183z"/>
			<polygon points="349.867,418.133 435.209,418.133 435.2,401.067 349.867,401.067 			"/>
			<polygon points="73.542,410.808 157.041,428.387 157.049,428.387 160.556,411.679 77.058,394.109 			"/>
			<polygon points="435.204,93.867 349.871,93.867 349.871,110.933 435.213,110.933 			"/>
			<polygon points="165.588,109.358 165.596,109.358 169.095,92.658 85.588,75.08 82.072,91.788 165.579,109.358 			"/>
			<path d="M438.366,228.669l-21.487-21.444c-6.622-7.159-14.976-10.965-23.782-10.965c-0.06,0-0.119,0.009-0.179,0.009
				c-8.695,0.051-16.862,3.823-22.997,10.641l-21.265,21.265c-0.222,0.222-0.452,0.435-0.7,0.631
				c-10.001,7.996-15.386,18.099-15.155,28.442c0.213,9.762,5.495,18.884,14.857,25.719c0.35,0.256,0.691,0.538,0.998,0.862
				l20.958,20.949c6.349,7.091,14.396,10.854,23.006,10.957c8.713-0.171,17.493-3.721,24.055-10.752l21.163-21.154
				c0.196-0.213,0.41-0.401,0.631-0.58c8.815-7.194,13.722-16.691,13.798-26.752C452.352,246.171,447.411,236.29,438.366,228.669z"
				/>
			<path d="M165.299,228.669l-21.487-21.444c-6.622-7.159-14.976-10.965-23.782-10.965c-0.06,0-0.119,0.009-0.179,0.009
				c-8.695,0.051-16.862,3.823-22.997,10.641l-21.265,21.265c-0.222,0.222-0.452,0.435-0.7,0.631
				c-10.001,7.996-15.386,18.099-15.155,28.442c0.213,9.762,5.495,18.884,14.857,25.719c0.35,0.256,0.691,0.538,0.998,0.862
				l20.958,20.949c6.349,7.091,14.396,10.854,23.006,10.957c8.866-0.171,17.493-3.721,24.055-10.752l21.163-21.154
				c0.196-0.213,0.41-0.401,0.631-0.58c8.815-7.194,13.722-16.691,13.798-26.752C179.285,246.171,174.345,236.29,165.299,228.669z"
				/>
		</g>
	</g>
</g>
<g>
</g>
<g>
</g>
<g>
</g>
<g>
</g>
<g>
</g>
<g>
</g>
<g>
</g>
<g>
</g>
<g>
</g>
<g>
</g>
<g>
</g>
<g>
</g>
<g>
</g>
<g>
</g>
<g>
</g>
</svg>
