<?xml version="1.0" encoding="iso-8859-1"?>
<!-- Generator: Adobe Illustrator 19.0.0, SVG Export Plug-In . SVG Version: 6.00 Build 0)  -->
<svg version="1.1" id="Layer_1" xmlns="http://www.w3.org/2000/svg" xmlns:xlink="http://www.w3.org/1999/xlink" x="0px" y="0px"
	 viewBox="0 0 512.003 512.003" style="enable-background:new 0 0 512.003 512.003;" xml:space="preserve">
<g>
	<g>
		<g>
			<path d="M244.768,93.427c0.896,0.299,1.809,0.444,2.697,0.444c3.575,0,6.903-2.261,8.098-5.837l5.837-17.51l17.502,5.837
				c4.036,1.348,8.431-0.478,10.334-4.275l17.067-34.133c2.108-4.224,0.401-9.344-3.814-11.452
				c-4.215-2.116-9.336-0.401-11.452,3.814L277.28,57.826l-18.577-6.187c-4.514-1.502-9.301,0.922-10.795,5.393l-8.533,25.6
				C237.882,87.104,240.305,91.934,244.768,93.427z"/>
			<circle cx="309.819" cy="13.507" r="8.533"/>
			<path d="M207.294,65.758c0.785,0.794,1.732,1.417,2.782,1.852c1.041,0.427,2.15,0.657,3.26,0.657c1.109,0,2.219-0.23,3.26-0.657
				c1.05-0.435,1.988-1.058,2.782-1.852L236.435,48.7c3.337-3.336,3.337-8.738,0-12.066c-3.336-3.337-8.738-3.337-12.066,0l-2.5,2.5
				V8.533c0-4.71-3.814-8.533-8.533-8.533c-4.719,0-8.533,3.823-8.533,8.533v30.601l-2.5-2.5c-3.337-3.337-8.738-3.337-12.066,0
				c-3.337,3.328-3.337,8.73,0,12.066L207.294,65.758z"/>
			<path d="M496.134,231.299c-4.207-2.108-9.336-0.401-11.452,3.814l-13.756,27.511l-18.577-6.187
				c-4.514-1.502-9.301,0.922-10.795,5.393l-8.533,25.6c-1.485,4.471,0.93,9.301,5.393,10.795c0.905,0.299,1.809,0.444,2.705,0.444
				c3.576,0,6.895-2.261,8.09-5.837l5.845-17.502l17.493,5.828c4.019,1.34,8.439-0.469,10.334-4.275l17.067-34.133
				C502.057,238.535,500.35,233.406,496.134,231.299z"/>
			<circle cx="503.468" cy="218.307" r="8.533"/>
			<path d="M95.068,231.299c-4.215-2.108-9.344-0.401-11.452,3.814L69.86,262.624l-18.577-6.187
				c-4.506-1.502-9.301,0.922-10.795,5.393l-8.533,25.6c-1.485,4.471,0.93,9.301,5.393,10.795c0.905,0.299,1.809,0.444,2.705,0.444
				c3.575,0,6.895-2.261,8.09-5.837l5.845-17.502l17.493,5.828c4.028,1.34,8.431-0.469,10.334-4.275l17.067-34.133
				C100.99,238.535,99.283,233.406,95.068,231.299z"/>
			<circle cx="102.401" cy="218.307" r="8.533"/>
			<path d="M40.168,244.965l17.058-17.058c0.794-0.794,1.417-1.732,1.852-2.782c0.862-2.082,0.862-4.437,0-6.519
				c-0.435-1.05-1.058-1.988-1.852-2.782l-17.058-17.058c-3.337-3.337-8.73-3.337-12.066,0c-3.337,3.336-3.337,8.73,0,12.066
				l2.5,2.5H8.535c-4.719,0-8.533,3.823-8.533,8.533c0,4.71,3.814,8.533,8.533,8.533h22.067l-2.5,2.5
				c-3.337,3.337-3.337,8.73,0,12.066c1.664,1.664,3.849,2.5,6.033,2.5C36.319,247.465,38.504,246.629,40.168,244.965z"/>
			<path d="M311.018,444.632c-4.215-2.108-9.335-0.401-11.452,3.814l-13.756,27.511l-18.577-6.187
				c-4.506-1.502-9.301,0.93-10.795,5.393l-8.533,25.6c-1.485,4.471,0.93,9.301,5.393,10.795c0.905,0.299,1.809,0.444,2.705,0.444
				c3.575,0,6.895-2.261,8.09-5.837l5.845-17.502l17.493,5.828c4.036,1.34,8.431-0.469,10.334-4.275l17.067-34.133
				C316.94,451.868,315.234,446.74,311.018,444.632z"/>
			<circle cx="318.353" cy="431.641" r="8.533"/>
			<path d="M253.504,458.295l17.058-17.058c0.794-0.785,1.417-1.732,1.852-2.782c0.862-2.082,0.862-4.429,0-6.519
				c-0.435-1.041-1.058-1.988-1.852-2.773l-17.058-17.067c-3.337-3.328-8.738-3.328-12.066,0c-3.337,3.337-3.337,8.738,0,12.066
				l2.5,2.5H221.87c-4.719,0-8.533,3.823-8.533,8.533c0,4.719,3.814,8.533,8.533,8.533h22.067l-2.5,2.5
				c-3.337,3.337-3.337,8.738,0,12.066c1.664,1.673,3.849,2.5,6.033,2.5S251.831,459.968,253.504,458.295z"/>
			<path d="M215.835,480.365l-2.5,2.5v-22.067c0-4.71-3.814-8.533-8.533-8.533s-8.533,3.823-8.533,8.533v22.067l-2.5-2.5
				c-3.337-3.336-8.73-3.336-12.066,0c-3.337,3.337-3.337,8.73,0,12.066l17.058,17.058c0.794,0.794,1.732,1.417,2.782,1.852
				c1.041,0.427,2.15,0.657,3.26,0.657c1.109,0,2.219-0.23,3.26-0.657c1.05-0.435,1.997-1.058,2.782-1.852l17.058-17.058
				c3.337-3.337,3.337-8.73,0-12.066C224.565,477.029,219.171,477.029,215.835,480.365z"/>
			<path d="M471.126,220.344l3.968-23.782c1.075-6.46-0.734-13.03-4.975-18.031c-4.232-5.001-10.419-7.868-16.964-7.868h-35.9
				c-6.554,0-12.74,2.867-16.973,7.868c-4.241,5-6.05,11.571-4.975,18.039l3.968,23.774c1.792,10.769,11.017,18.586,21.939,18.586
				h27.972C460.109,238.93,469.334,231.113,471.126,220.344z"/>
			<path d="M324.259,247.465h67.84c-4.437-71.305-63.693-128-136.098-128c-75.281,0-136.533,61.252-136.533,136.533
				s61.252,136.533,136.533,136.533c72.405,0,131.661-56.695,136.098-128h-67.84c-4.719,0-8.533-3.823-8.533-8.533
				S319.54,247.465,324.259,247.465z"/>
		</g>
	</g>
</g>
<g>
</g>
<g>
</g>
<g>
</g>
<g>
</g>
<g>
</g>
<g>
</g>
<g>
</g>
<g>
</g>
<g>
</g>
<g>
</g>
<g>
</g>
<g>
</g>
<g>
</g>
<g>
</g>
<g>
</g>
</svg>
