<?xml version="1.0" encoding="iso-8859-1"?>
<!-- Generator: Adobe Illustrator 19.0.0, SVG Export Plug-In . SVG Version: 6.00 Build 0)  -->
<svg version="1.1" id="Layer_1" xmlns="http://www.w3.org/2000/svg" xmlns:xlink="http://www.w3.org/1999/xlink" x="0px" y="0px"
	 viewBox="0 0 512.022 512.022" style="enable-background:new 0 0 512.022 512.022;" xml:space="preserve">
<g transform="translate(0 -1)">
	<g>
		<g>
			<path d="M456.544,1.007c-28.237,0-51.2,22.963-51.2,51.2s22.963,51.2,51.2,51.2c28.237,0,51.2-22.963,51.2-51.2
				S484.781,1.007,456.544,1.007z"/>
			<path d="M428.311,114.882c-30.268-8.346-62.037,8.388-72.294,38.093l-47.241,136.917c-1.843,5.325-7.074,8.568-12.646,7.962
				l-86.477-9.941c-12.578-1.604-24.619,6.477-27.793,18.193l-56.934,165.043c-3.029,11.093-0.171,22.673,7.441,30.251
				c7.637,7.595,17.024,11.622,26.633,11.622c2.799,0,5.606-0.341,8.397-1.033c11.725-2.901,21.248-11.861,24.61-22.716
				l48.23-118.315c1.263-4.053,5.402-6.579,9.745-5.922l128.99,17.613c13.73,1.826,26.897-6.263,31.369-19.362l58.624-171.529
				c5.385-15.744,4.062-32.521-3.721-47.223C457.469,129.824,444.345,119.302,428.311,114.882z"/>
			<path d="M98.144,129.007h128v34.133c0,3.447,2.082,6.571,5.265,7.885c1.058,0.444,2.167,0.649,3.268,0.649
				c2.219,0,4.403-0.87,6.033-2.5l76.8-76.8c3.336-3.337,3.336-8.73,0-12.066l-76.8-76.8c-2.449-2.449-6.11-3.183-9.301-1.852
				c-3.183,1.314-5.265,4.437-5.265,7.885v34.133h-128c-4.71,0-8.533,3.814-8.533,8.533v68.267
				C89.611,125.193,93.434,129.007,98.144,129.007z"/>
			<path d="M116.447,266.401c-0.102-0.205-0.188-0.384-0.282-0.58c8.149,0.196,16.316,0.614,24.499,1.289
				c0.145,0.299,0.316,0.632,0.444,0.922c0.085,0.282,0.196,0.572,0.307,0.845c0.657,1.536,1.485,3.234,2.381,5.06
				c2.603,5.282,5.547,11.281,5.547,17.203c0,11.733-10.65,24.414-14.387,27.93c-3.43,3.234-3.584,8.627-0.358,12.058
				c1.681,1.783,3.942,2.68,6.212,2.68c2.099,0,4.207-0.768,5.854-2.321c0.802-0.759,19.746-18.85,19.746-40.346
				c0-8.55-3.132-16.009-5.973-21.956c9.967,1.271,19.942,2.765,29.926,4.736c0.546,0.102,1.101,0.154,1.647,0.154
				c1.818,0,3.601-0.58,5.086-1.681c1.929-1.434,3.166-3.61,3.405-5.999l8.533-85.333c0.427-4.301-2.423-8.243-6.63-9.173
				c-52.147-11.631-138.01-11.639-191.411-0.017c-4.233,0.922-7.1,4.872-6.673,9.19l8.533,85.333
				c0.239,2.398,1.485,4.591,3.43,6.025c1.946,1.425,4.42,1.98,6.767,1.485c10.914-2.227,21.914-3.883,32.964-5.222
				c0.026,0.068,0.043,0.128,0.068,0.196c0.649,1.536,1.485,3.234,2.381,5.06c2.603,5.282,5.547,11.281,5.547,17.203
				c0,11.733-10.65,24.414-14.387,27.93c-3.43,3.234-3.584,8.627-0.358,12.058c1.681,1.783,3.942,2.68,6.212,2.68
				c2.099,0,4.207-0.768,5.854-2.321c0.802-0.759,19.746-18.85,19.746-40.346c0-9.651-4.002-18.005-7.057-24.226
				c7.757-0.597,15.539-0.981,23.347-1.135c0.375,0.768,0.76,1.553,1.075,2.253c0.085,0.282,0.196,0.572,0.307,0.845
				c0.657,1.536,1.485,3.234,2.381,5.06c2.603,5.282,5.547,11.281,5.547,17.203c0,11.733-10.65,24.414-14.387,27.93
				c-3.43,3.234-3.584,8.627-0.358,12.058c1.681,1.783,3.942,2.68,6.212,2.68c2.099,0,4.207-0.768,5.854-2.321
				c0.802-0.759,19.746-18.85,19.746-40.346C123.743,281.24,119.52,272.664,116.447,266.401z M106.677,239.939
				c0-5.973,2.944-11.998,5.538-17.314c0.879-1.783,1.681-3.439,2.313-4.949c1.843-4.335-0.179-9.344-4.514-11.187
				c-4.343-1.852-9.353,0.179-11.187,4.523c-0.538,1.246-1.212,2.628-1.946,4.122c-3.072,6.281-7.27,14.882-7.27,24.806
				c0,3.123,0.503,6.059,1.169,8.892c-8.149,0.282-16.282,0.734-24.371,1.476c-1.357-3.379-2.398-6.869-2.398-10.368
				c0-5.973,2.944-11.998,5.538-17.314c0.879-1.783,1.681-3.439,2.313-4.949c1.843-4.335-0.179-9.344-4.514-11.187
				c-4.352-1.852-9.352,0.179-11.187,4.523c-0.538,1.246-1.212,2.628-1.946,4.122c-3.072,6.281-7.27,14.882-7.27,24.806
				c0,4.412,0.896,8.508,2.091,12.314c-6.733,0.896-13.449,1.929-20.13,3.14l-6.835-68.352
				c49.033-9.173,121.173-9.173,169.216-0.034l-6.844,68.446c-10.82-1.911-21.623-3.328-32.41-4.454
				c-1.502-3.584-2.688-7.322-2.688-11.059c0-5.973,2.944-11.998,5.538-17.314c0.879-1.783,1.681-3.439,2.313-4.949
				c1.843-4.335-0.179-9.344-4.514-11.187c-4.352-1.852-9.353,0.179-11.187,4.523c-0.538,1.246-1.212,2.628-1.946,4.122
				c-3.072,6.281-7.27,14.882-7.27,24.806c0,3.362,0.58,6.502,1.34,9.532c-8.431-0.529-16.845-0.879-25.233-0.922
				C107.385,245.725,106.677,242.823,106.677,239.939z"/>
		</g>
	</g>
</g>
<g>
</g>
<g>
</g>
<g>
</g>
<g>
</g>
<g>
</g>
<g>
</g>
<g>
</g>
<g>
</g>
<g>
</g>
<g>
</g>
<g>
</g>
<g>
</g>
<g>
</g>
<g>
</g>
<g>
</g>
</svg>
