<?xml version="1.0" encoding="iso-8859-1"?>
<!-- Generator: Adobe Illustrator 19.0.0, SVG Export Plug-In . SVG Version: 6.00 Build 0)  -->
<svg version="1.1" id="Layer_1" xmlns="http://www.w3.org/2000/svg" xmlns:xlink="http://www.w3.org/1999/xlink" x="0px" y="0px"
	 viewBox="0 0 511.957 511.957" style="enable-background:new 0 0 511.957 511.957;" xml:space="preserve">
<g>
	<g>
		<g>
			<path d="M464.73,297.293c1.399,0.887,2.987,1.331,4.582,1.331c1.408,0,2.825-0.35,4.105-1.058
				c2.731-1.493,4.429-4.36,4.429-7.475v-42.667c0-2.918-1.493-5.632-3.951-7.202l-89.916-57.216V92.791
				c0-22.699-2.628-42.88-8.789-67.482c-0.777-3.106-3.234-5.521-6.357-6.238L315.234,6.707c-38.767-8.943-79.744-8.943-118.511,0
				l-53.598,12.365c-3.123,0.717-5.581,3.132-6.357,6.246c-6.161,24.619-8.789,44.774-8.789,67.405v81.749l-89.916,57.216
				c-2.458,1.57-3.951,4.284-3.951,7.202v42.667c0,3.115,1.698,5.982,4.429,7.475c1.28,0.708,2.697,1.058,4.104,1.058
				c1.596,0,3.183-0.444,4.582-1.331l80.751-51.388v73.634l-89.916,57.216c-2.458,1.57-3.951,4.284-3.951,7.202v42.667
				c0,3.115,1.698,5.982,4.429,7.475c1.28,0.708,2.697,1.058,4.104,1.058c1.596,0,3.183-0.444,4.582-1.331l80.751-51.388v112.452
				c0,14.114,11.486,25.6,25.6,25.6h204.8c14.114,0,25.6-11.486,25.6-25.6V373.905l80.751,51.388
				c1.399,0.887,2.987,1.331,4.582,1.331c1.408,0,2.825-0.35,4.105-1.058c2.731-1.493,4.429-4.36,4.429-7.475v-42.667
				c0-2.918-1.493-5.632-3.951-7.202l-89.916-57.216v-65.101L464.73,297.293z M349.845,452.224c0,4.062-2.867,7.561-6.852,8.363
				c-28.928,5.837-58.035,8.747-87.117,8.747s-58.112-2.91-86.921-8.747c-3.985-0.802-6.844-4.301-6.844-8.363v-59.733
				c0-14.114,11.486-25.6,25.6-25.6h136.533c14.114,0,25.6,11.486,25.6,25.6V452.224z M162.112,332.757V230.374
				c0-3.234,1.826-6.187,4.719-7.637c2.901-1.442,6.357-1.126,8.934,0.811l34.133,25.6c2.15,1.613,3.413,4.139,3.413,6.827v76.783
				c0,4.71-3.814,8.533-8.533,8.533h-34.133C165.926,341.291,162.112,337.468,162.112,332.757z M349.845,332.757
				c0,4.71-3.814,8.533-8.533,8.533h-34.133c-4.719,0-8.533-3.823-8.533-8.533v-76.783c0-2.688,1.263-5.214,3.413-6.827l34.133-25.6
				c2.586-1.937,6.05-2.253,8.934-0.811c2.893,1.451,4.719,4.403,4.719,7.637V332.757z M349.811,94.592l-8.533,93.867
				c-0.222,2.483-1.527,4.745-3.558,6.187s-4.591,1.937-7.014,1.323c-44.305-11.102-105.745-11.093-149.427-0.009
				c-0.691,0.179-1.399,0.265-2.099,0.265c-1.749,0-3.473-0.538-4.924-1.57c-2.039-1.442-3.354-3.703-3.575-6.195l-8.533-93.867
				c-0.358-3.942,2.048-7.62,5.811-8.866c35.55-11.81,135.748-11.853,175.761-0.085C347.627,86.784,350.178,90.539,349.811,94.592z"
				/>
			<path d="M324.245,383.957H187.712c-4.71,0-8.533,3.831-8.533,8.533v52.693c50.884,9.455,102.485,9.446,153.6,0v-52.693
				C332.779,387.789,328.956,383.957,324.245,383.957z"/>
			<polygon points="196.245,260.241 179.179,247.441 179.179,324.224 196.245,324.224 			"/>
			<path d="M179.79,100.105l7.006,77.082c20.949-4.369,44.937-6.554,68.958-6.554c24.081,0,48.205,2.193,69.41,6.571l6.989-76.919
				C293.94,91.742,214.93,91.665,179.79,100.105z"/>
			<polygon points="315.712,324.224 332.779,324.224 332.779,247.441 315.712,260.241 			"/>
		</g>
	</g>
</g>
<g>
</g>
<g>
</g>
<g>
</g>
<g>
</g>
<g>
</g>
<g>
</g>
<g>
</g>
<g>
</g>
<g>
</g>
<g>
</g>
<g>
</g>
<g>
</g>
<g>
</g>
<g>
</g>
<g>
</g>
</svg>
