<?xml version="1.0" encoding="iso-8859-1"?>
<!-- Generator: Adobe Illustrator 19.0.0, SVG Export Plug-In . SVG Version: 6.00 Build 0)  -->
<svg version="1.1" id="Layer_1" xmlns="http://www.w3.org/2000/svg" xmlns:xlink="http://www.w3.org/1999/xlink" x="0px" y="0px"
	 viewBox="0 0 512.1 512.1" style="enable-background:new 0 0 512.1 512.1;" xml:space="preserve">
<g>
	<g>
		<path d="M298.75,51.2h-42.7V8.5c0-4.7-3.8-8.5-8.5-8.5h-34.1c-4.7,0-8.5,3.8-8.5,8.5v42.7h-17.1V8.5c0-4.7-3.8-8.5-8.5-8.5h-34.1
			c-4.7,0-8.5,3.8-8.5,8.5v42.7h-8.7c-4.7,0-8.5,3.8-8.5,8.5v136.5h34.1v-17.1c0-4.7,3.8-8.5,8.5-8.5h17.1c4.7,0,8.5,3.8,8.5,8.5
			s-3.8,8.5-8.5,8.5h-8.5v17.1c0,4.7-3.8,8.5-8.5,8.5h-42.7v85.3c0,4.7,3.8,8.5,8.5,8.5h34.1v25.6c0,4.7,3.8,8.5,8.5,8.5h8.8
			c1.1,28.4,8.2,52.9,21.2,72.9c1.6,2.4,4.3,3.9,7.2,3.9c0.5,0,1-0.1,1.5-0.1c3.4-0.6,6.1-3.2,6.8-6.6l2.2-10.3l6,6
			c3,3,7.8,3.3,11.3,0.7l22.1-17.1c3.6-2.8,4.4-8,1.7-11.7c-6.7-9.3-10.5-22.1-11.5-37.7h8.1c4.7,0,8.5-3.8,8.5-8.5V307h34.1
			c4.7,0,8.5-3.8,8.5-8.5V59.7C307.25,55,303.45,51.2,298.75,51.2z M170.75,51.2h-17.1V17.1h17.1V51.2z M221.95,17.1h17.1v34.1
			h-17.1V17.1z M247.65,324.3h-0.1h-34.1l-25.6-0.1c-0.1,0-0.2,0.1-0.3,0.1h-8.2v-17.1h68.3V324.3z"/>
	</g>
</g>
<g>
	<g>
		<path d="M367.65,426c-22.5-22.5-49.6-25-60.7-25h-0.1l-1.8,0.1c-1-0.2-23.4-0.1-23.4-0.1c-2.9,0-5.5,1.4-7.1,3.8l-14.5,21.9h-28.8
			c-3.6,0-6.9,2.3-8.1,5.7c-1.2,3.4-0.1,7.2,2.7,9.5c33.5,26.9,68.8,28.3,81.7,27.5c1.7,0.1,7.4,0.6,11.8,5c4.9,4.9,5,11.4,5,12.1
			v17.1c0,4.7,3.8,8.5,8.5,8.5h51.2c4.7,0,8.5-3.8,8.5-8.5v-17.1C392.55,475.8,390.15,448.6,367.65,426z"/>
	</g>
</g>
<g>
	<g>
		<path d="M193.75,446.2c-3.3-3.4-8.7-3.3-12,0l-17.1,17.1c-3.3,3.3-3.3,8.7,0,12.1c1.7,1.7,3.8,2.5,6,2.5c2.2,0,4.4-0.8,6-2.5
			l17.1-17.1C197.05,455,197.05,449.6,193.75,446.2z"/>
	</g>
</g>
<g>
	<g>
		<path d="M221.95,469.3c-4.7,0-8.5,3.8-8.5,8.5v25.6c0,4.7,3.8,8.5,8.5,8.5c4.7,0,8.5-3.8,8.5-8.5v-25.6
			C230.45,473.1,226.65,469.3,221.95,469.3z"/>
	</g>
</g>
<g>
	<g>
		<path d="M170.75,409.6h-25.6c-4.7,0-8.5,3.8-8.5,8.5s3.8,8.5,8.5,8.5h25.6c4.7,0.1,8.5-3.7,8.5-8.5
			C179.25,413.4,175.45,409.6,170.75,409.6z"/>
	</g>
</g>
<g>
</g>
<g>
</g>
<g>
</g>
<g>
</g>
<g>
</g>
<g>
</g>
<g>
</g>
<g>
</g>
<g>
</g>
<g>
</g>
<g>
</g>
<g>
</g>
<g>
</g>
<g>
</g>
<g>
</g>
</svg>
