<?xml version="1.0" encoding="iso-8859-1"?>
<!-- Generator: Adobe Illustrator 19.0.0, SVG Export Plug-In . SVG Version: 6.00 Build 0)  -->
<svg version="1.1" id="Layer_1" xmlns="http://www.w3.org/2000/svg" xmlns:xlink="http://www.w3.org/1999/xlink" x="0px" y="0px"
	 viewBox="0 0 512 512" style="enable-background:new 0 0 512 512;" xml:space="preserve">
<g>
	<g>
		<path d="M472.055,196.352c-21.973-1.382-40.32-11.648-50.338-28.16l-2.33-3.831C405.786,141.935,381.039,128,354.816,128H243.422
			c-21.555,0-42.138,9.242-56.457,25.353l-11.793,13.261c-7.578,8.525-16.179,15.915-25.472,22.238
			c20.079,15.292,45.039,24.482,72.166,24.482h30.601L232.9,193.766c-3.337-3.337-3.337-8.73,0-12.066s8.73-3.337,12.066,0
			l34.133,34.133c0.785,0.785,1.408,1.724,1.843,2.773c0.862,2.082,0.862,4.437,0,6.519c-0.435,1.05-1.058,1.988-1.843,2.773
			l-34.133,34.133c-1.664,1.664-3.849,2.5-6.033,2.5c-2.185,0-4.369-0.836-6.033-2.5c-3.337-3.337-3.337-8.73,0-12.066
			l19.567-19.567h-30.601c-33.493,0-64.171-12.177-87.953-32.265c-13.833,6.912-28.8,11.597-44.407,13.542l-52.13,6.519
			C16.068,220.851,0,239.061,0,260.531v38.135c0,23.526,19.14,42.667,42.667,42.667h34.901C81.655,365.508,102.682,384,128,384
			s46.345-18.492,50.432-42.667h172.203C354.722,365.508,375.748,384,401.067,384c25.318,0,46.345-18.492,50.432-42.667h17.835
			c23.526,0,42.667-19.14,42.667-42.667v-59.733C512,216.474,494.456,197.769,472.055,196.352z M128,366.933
			c-18.825,0-34.133-15.309-34.133-34.133s15.309-34.133,34.133-34.133s34.133,15.309,34.133,34.133S146.825,366.933,128,366.933z
			 M401.067,366.933c-18.825,0-34.133-15.309-34.133-34.133s15.309-34.133,34.133-34.133c18.825,0,34.133,15.309,34.133,34.133
			S419.891,366.933,401.067,366.933z"/>
	</g>
</g>
<g>
</g>
<g>
</g>
<g>
</g>
<g>
</g>
<g>
</g>
<g>
</g>
<g>
</g>
<g>
</g>
<g>
</g>
<g>
</g>
<g>
</g>
<g>
</g>
<g>
</g>
<g>
</g>
<g>
</g>
</svg>
