<?xml version="1.0" encoding="iso-8859-1"?>
<!-- Generator: Adobe Illustrator 19.0.0, SVG Export Plug-In . SVG Version: 6.00 Build 0)  -->
<svg version="1.1" id="Layer_1" xmlns="http://www.w3.org/2000/svg" xmlns:xlink="http://www.w3.org/1999/xlink" x="0px" y="0px"
	 viewBox="0 0 512 512" style="enable-background:new 0 0 512 512;" xml:space="preserve">
<g>
	<g>
		<path d="M472.047,209.154c-21.965-1.382-40.311-11.648-50.321-28.16l-2.338-3.831c-12.954-21.367-35.584-34.918-60.988-36.267
			l-136.533-0.094c-0.93,0-1.86,0.154-2.748,0.452c-12.672,4.309-23.364,15.01-32.154,24.9l-11.793,13.261
			c-9.847,11.085-21.41,20.292-34.048,27.588L48.597,117.6c-3.388-3.277-8.789-3.191-12.066,0.205
			c-3.277,3.388-3.183,8.789,0.205,12.066l88.218,85.24c-11.264,4.651-23.168,7.834-35.448,9.37l-52.13,6.519
			C16.068,233.653,0,251.863,0,273.333v38.135c0,23.526,19.14,42.667,42.667,42.667h34.901
			c4.087,24.175,25.114,42.667,50.432,42.667s46.345-18.492,50.432-42.667h172.203c4.087,24.175,25.114,42.667,50.432,42.667
			c25.318,0,46.345-18.492,50.432-42.667h17.835c23.526,0,42.667-19.14,42.667-42.667v-59.733
			C512,229.275,494.456,210.57,472.047,209.154z M128,379.735c-18.825,0-34.133-15.309-34.133-34.133
			c0-18.825,15.309-34.133,34.133-34.133s34.133,15.309,34.133,34.133C162.133,364.426,146.825,379.735,128,379.735z
			 M401.067,379.735c-18.825,0-34.133-15.309-34.133-34.133c0-18.825,15.309-34.133,34.133-34.133
			c18.825,0,34.133,15.309,34.133,34.133C435.2,364.426,419.891,379.735,401.067,379.735z"/>
	</g>
</g>
<g>
</g>
<g>
</g>
<g>
</g>
<g>
</g>
<g>
</g>
<g>
</g>
<g>
</g>
<g>
</g>
<g>
</g>
<g>
</g>
<g>
</g>
<g>
</g>
<g>
</g>
<g>
</g>
<g>
</g>
</svg>
