<?xml version="1.0" encoding="iso-8859-1"?>
<!-- Generator: Adobe Illustrator 19.0.0, SVG Export Plug-In . SVG Version: 6.00 Build 0)  -->
<svg version="1.1" id="Layer_1" xmlns="http://www.w3.org/2000/svg" xmlns:xlink="http://www.w3.org/1999/xlink" x="0px" y="0px"
	 viewBox="0 0 512 512" style="enable-background:new 0 0 512 512;" xml:space="preserve">
<g>
	<g>
		<g>
			<path d="M76.8,256c0-4.719-3.823-8.533-8.533-8.533H8.533C3.814,247.467,0,251.281,0,256s3.814,8.533,8.533,8.533h59.733
				C72.977,264.533,76.8,260.719,76.8,256z"/>
			<path d="M503.467,247.467h-59.733c-4.719,0-8.533,3.814-8.533,8.533s3.814,8.533,8.533,8.533h59.733
				c4.71,0,8.533-3.814,8.533-8.533S508.177,247.467,503.467,247.467z"/>
			<path d="M256,435.2c-4.71,0-8.533,3.814-8.533,8.533v59.733c0,4.719,3.823,8.533,8.533,8.533s8.533-3.814,8.533-8.533v-59.733
				C264.533,439.014,260.71,435.2,256,435.2z"/>
			<path d="M113.434,386.5l-42.667,42.667c-3.336,3.337-3.336,8.73,0,12.066c1.664,1.664,3.849,2.5,6.033,2.5
				c2.185,0,4.369-0.836,6.033-2.5l42.667-42.667c3.336-3.336,3.336-8.73,0-12.066C122.163,383.164,116.77,383.164,113.434,386.5z"
				/>
			<path d="M392.533,128c2.185,0,4.369-0.836,6.033-2.5l42.667-42.667c3.337-3.337,3.337-8.73,0-12.066
				c-3.337-3.337-8.73-3.337-12.066,0L386.5,113.434c-3.336,3.337-3.336,8.73,0,12.066C388.164,127.164,390.349,128,392.533,128z"/>
			<path d="M398.566,386.5c-3.336-3.337-8.73-3.337-12.066,0c-3.336,3.336-3.336,8.73,0,12.066l42.667,42.667
				c1.664,1.664,3.849,2.5,6.033,2.5c2.185,0,4.369-0.836,6.033-2.5c3.337-3.337,3.337-8.73,0-12.066L398.566,386.5z"/>
			<path d="M113.434,125.5c1.664,1.664,3.849,2.5,6.033,2.5s4.369-0.836,6.033-2.5c3.336-3.337,3.336-8.73,0-12.066L82.833,70.767
				c-3.337-3.337-8.73-3.337-12.066,0c-3.336,3.336-3.336,8.73,0,12.066L113.434,125.5z"/>
			<path d="M341.333,118.4V8.533C341.333,3.814,337.51,0,332.8,0H179.2c-4.71,0-8.533,3.814-8.533,8.533V118.4
				c-46.012,28.638-76.8,79.531-76.8,137.6c0,89.404,72.73,162.133,162.133,162.133S418.133,345.404,418.133,256
				C418.133,197.931,387.345,147.038,341.333,118.4z M256,341.333c-4.71,0-8.533-3.823-8.533-8.533c0-4.71,3.823-8.533,8.533-8.533
				s8.533,3.823,8.533,8.533C264.533,337.51,260.71,341.333,256,341.333z M264.533,290.133c0,4.719-3.823,8.533-8.533,8.533
				s-8.533-3.814-8.533-8.533v-128c0-4.719,3.823-8.533,8.533-8.533s8.533,3.814,8.533,8.533V290.133z M324.267,109.047
				c-0.64-0.299-1.306-0.555-1.954-0.845c-1.869-0.845-3.746-1.673-5.649-2.449c-3.268-1.323-6.571-2.526-9.907-3.635
				c-1.792-0.589-3.601-1.143-5.427-1.681c-3.652-1.067-7.33-2.039-11.051-2.85c-1.382-0.299-2.773-0.546-4.173-0.811
				c-4.275-0.811-8.567-1.502-12.902-1.971c-0.683-0.077-1.382-0.111-2.074-0.171c-5.026-0.478-10.069-0.768-15.13-0.768
				c-5.06,0-10.103,0.29-15.13,0.768c-0.691,0.06-1.391,0.094-2.074,0.171c-4.335,0.469-8.627,1.161-12.902,1.971
				c-1.399,0.265-2.79,0.512-4.173,0.811c-3.721,0.811-7.398,1.783-11.051,2.85c-1.826,0.538-3.635,1.092-5.436,1.681
				c-3.328,1.109-6.63,2.313-9.899,3.635c-1.903,0.777-3.78,1.604-5.649,2.449c-0.648,0.29-1.314,0.546-1.954,0.845V17.067h136.533
				V109.047z"/>
		</g>
	</g>
</g>
<g>
</g>
<g>
</g>
<g>
</g>
<g>
</g>
<g>
</g>
<g>
</g>
<g>
</g>
<g>
</g>
<g>
</g>
<g>
</g>
<g>
</g>
<g>
</g>
<g>
</g>
<g>
</g>
<g>
</g>
</svg>
