<?xml version="1.0" encoding="iso-8859-1"?>
<!-- Generator: Adobe Illustrator 19.0.0, SVG Export Plug-In . SVG Version: 6.00 Build 0)  -->
<svg version="1.1" id="Layer_1" xmlns="http://www.w3.org/2000/svg" xmlns:xlink="http://www.w3.org/1999/xlink" x="0px" y="0px"
	 viewBox="0 0 512 512" style="enable-background:new 0 0 512 512;" xml:space="preserve">
<g>
	<g>
		<g>
			<path d="M399.795,371.422c1.553-2.517,1.698-5.658,0.375-8.303L263.637,90.052c-2.901-5.786-12.373-5.786-15.275,0
				L111.829,363.119c-1.323,2.645-1.178,5.786,0.375,8.303c1.562,2.509,4.301,4.045,7.262,4.045h273.067
				C395.494,375.467,398.234,373.931,399.795,371.422z M256,332.8c-4.71,0-8.533-3.823-8.533-8.533s3.823-8.533,8.533-8.533
				s8.533,3.823,8.533,8.533S260.71,332.8,256,332.8z M264.533,290.133c0,4.71-3.814,8.533-8.533,8.533s-8.533-3.823-8.533-8.533
				v-93.867c0-4.71,3.814-8.533,8.533-8.533s8.533,3.823,8.533,8.533V290.133z"/>
			<path d="M256,8.533c-141.158,0-256,114.842-256,256c0,78.481,36.164,150.221,99.371,198.221l-12.604,18.91
				c-1.638,2.466-1.894,5.598-0.657,8.286c1.229,2.688,3.763,4.548,6.699,4.915l68.267,8.533c0.358,0.051,0.708,0.068,1.058,0.068
				c2.833,0,5.513-1.408,7.1-3.797c1.792-2.688,1.92-6.161,0.307-8.969l-34.133-59.733c-1.468-2.569-4.156-4.19-7.117-4.301
				c-2.927-0.205-5.76,1.331-7.39,3.797l-12.049,18.074c-58.402-44.749-91.785-111.283-91.785-184.004
				C17.067,132.787,124.254,25.6,256,25.6s238.933,107.187,238.933,238.933c0,93.449-54.98,178.859-140.066,217.591
				c-4.292,1.954-6.187,7.006-4.232,11.298c1.434,3.14,4.531,5,7.774,5c1.178,0,2.381-0.247,3.524-0.768
				C453.103,456.166,512,364.655,512,264.533C512,123.375,397.158,8.533,256,8.533z"/>
		</g>
	</g>
</g>
<g>
</g>
<g>
</g>
<g>
</g>
<g>
</g>
<g>
</g>
<g>
</g>
<g>
</g>
<g>
</g>
<g>
</g>
<g>
</g>
<g>
</g>
<g>
</g>
<g>
</g>
<g>
</g>
<g>
</g>
</svg>
