<?xml version="1.0" encoding="iso-8859-1"?>
<!-- Generator: Adobe Illustrator 19.0.0, SVG Export Plug-In . SVG Version: 6.00 Build 0)  -->
<svg version="1.1" id="Layer_1" xmlns="http://www.w3.org/2000/svg" xmlns:xlink="http://www.w3.org/1999/xlink" x="0px" y="0px"
	 viewBox="0 0 512 512" style="enable-background:new 0 0 512 512;" xml:space="preserve">
<g>
	<g>
		<g>
			<path d="M196.265,238.936c-9.412,0-17.067,7.654-17.067,17.067c0,9.412,7.654,17.067,17.067,17.067s17.067-7.654,17.067-17.067
				C213.332,246.59,205.677,238.936,196.265,238.936z"/>
			<path d="M130.938,282.674c-24.875-2.645-50.057-0.23-74.931,7.253l-1.843,0.546c5.146,30.131,17.067,58.854,34.807,83.84
				l1.63-0.879c0,0,0.009,0,0.009-0.009c22.81-12.211,42.317-28.297,58.069-47.855C140.231,312.524,134.181,297.906,130.938,282.674
				z"/>
			<path d="M138.573,90.611c12.22,22.81,28.297,42.317,47.855,58.086c13.056-8.465,27.682-14.515,42.897-17.749
				c2.654-24.883,0.222-50.065-7.253-74.94l-0.546-1.843c-30.131,5.146-58.854,17.067-83.84,34.816l0.879,1.621
				C138.564,90.603,138.564,90.611,138.573,90.611z"/>
			<path d="M56.015,222.086c24.789,7.492,49.954,9.907,74.923,7.228c3.251-15.232,9.31-29.858,17.758-42.897
				c-15.701-19.465-35.234-35.541-58.095-47.846l-1.63-0.879c-17.741,24.986-29.662,53.709-34.807,83.84l1.835,0.546L56.015,222.086
				z"/>
			<path d="M315.732,238.936c-9.412,0-17.067,7.654-17.067,17.067c0,9.412,7.654,17.067,17.067,17.067s17.067-7.654,17.067-17.067
				C332.798,246.59,325.144,238.936,315.732,238.936z"/>
			<path d="M381.157,229.228c25.66,2.842,50.765,0.461,74.718-7.108l1.954-0.589c-5.137-30.131-17.067-58.854-34.807-83.84
				l-1.621,0.879c-0.043,0.017-0.085,0.043-0.128,0.068c-22.255,11.511-41.711,27.605-57.899,47.889
				C371.83,199.574,377.897,214.132,381.157,229.228z"/>
			<path d="M255.998,213.336c9.412,0,17.067-7.654,17.067-17.067c0-9.412-7.654-17.067-17.067-17.067
				c-9.412,0-17.067,7.654-17.067,17.067C238.932,205.682,246.586,213.336,255.998,213.336z"/>
			<path d="M325.49,148.636c20.181-16.137,36.284-35.593,47.881-57.924l0.939-1.732c-24.986-17.741-53.709-29.67-83.84-34.807
				l-0.546,1.835c-7.501,24.789-9.924,49.963-7.236,74.94C297.884,134.189,312.476,140.222,325.49,148.636z"/>
			<path d="M373.365,421.278c-11.52-22.263-27.605-41.719-47.889-57.907c-12.996,8.405-27.546,14.43-42.701,17.673
				c-2.867,25.694-0.486,50.842,7.108,74.837l0.589,1.954c30.123-5.137,58.854-17.067,83.831-34.807l-0.87-1.621
				C373.416,421.363,373.391,421.321,373.365,421.278z"/>
			<path d="M455.857,289.886c-23.834-7.603-48.947-9.975-74.701-7.091c-3.26,15.078-9.327,29.636-17.792,42.701
				c16.136,20.181,35.601,36.284,57.924,47.881l1.732,0.939c17.741-24.986,29.67-53.709,34.807-83.84l-1.826-0.546
				C455.959,289.911,455.908,289.894,455.857,289.886z"/>
			<path d="M256,0C114.842,0,0,114.842,0,256s114.842,256,256,256s256-114.842,256-256S397.158,0,256,0z M421.453,119.151
				c3.695-1.98,8.286-0.99,10.82,2.338c23.407,30.592,38.468,66.893,43.563,104.951c0.563,4.164-1.988,8.115-6.007,9.31
				l-8.934,2.679c-19.004,6.007-38.724,9.028-58.854,9.028c-9.685,0-19.465-0.7-29.312-2.099c-3.695-0.521-6.622-3.396-7.219-7.083
				c-2.739-16.819-9.506-33.101-19.601-47.053c-2.185-3.038-2.15-7.125,0.085-10.121c18.432-24.619,41.105-43.989,67.379-57.6
				L421.453,119.151z M349.867,256c0,18.825-15.309,34.133-34.133,34.133S281.6,274.825,281.6,256s15.309-34.133,34.133-34.133
				S349.867,237.175,349.867,256z M273.579,51.089l2.671-8.917c1.195-4.019,5.094-6.562,9.31-6.008
				c38.067,5.094,74.359,20.156,104.951,43.563c3.337,2.543,4.318,7.134,2.338,10.82l-4.386,8.141
				c-13.645,26.257-33.024,48.947-57.549,67.319c-1.519,1.143-3.319,1.715-5.12,1.715c-1.749,0-3.499-0.546-4.992-1.621
				c-13.884-10.035-30.199-16.777-47.164-19.49c-3.695-0.589-6.571-3.524-7.1-7.236C262.391,109.952,264.764,80.248,273.579,51.089z
				 M290.133,196.267c0,18.825-15.309,34.133-34.133,34.133s-34.133-15.309-34.133-34.133s15.309-34.133,34.133-34.133
				S290.133,177.442,290.133,196.267z M230.4,256c0,18.825-15.309,34.133-34.133,34.133S162.133,274.825,162.133,256
				s15.309-34.133,34.133-34.133S230.4,237.175,230.4,256z M121.481,79.727c30.592-23.407,66.893-38.468,104.96-43.563
				c4.198-0.521,8.107,1.988,9.31,6.008l2.671,8.934c8.789,29.261,11.17,58.965,7.049,88.26c-0.512,3.721-3.396,6.656-7.1,7.245
				c-16.99,2.714-33.34,9.481-47.266,19.558c-1.493,1.075-3.251,1.613-5.001,1.613c-1.809,0-3.61-0.572-5.129-1.715
				c-23.731-17.869-43.059-40.55-57.455-67.388l-4.369-8.132C117.163,86.861,118.144,82.27,121.481,79.727z M36.156,226.441
				c5.103-38.059,20.156-74.359,43.571-104.951c2.526-3.319,7.125-4.301,10.812-2.338l8.141,4.386
				c26.923,14.481,49.596,33.801,67.405,57.412c2.244,3.004,2.287,7.117,0.085,10.155c-10.061,13.901-16.828,30.242-19.567,47.258
				c-0.589,3.703-3.524,6.571-7.228,7.1c-9.387,1.323-18.79,1.98-28.203,1.98c-20.104,0-40.226-3.012-60.092-9.02l-8.917-2.671
				C38.144,234.556,35.601,230.605,36.156,226.441z M90.539,392.849c-1.271,0.691-2.662,1.024-4.036,1.024
				c-2.586,0-5.12-1.178-6.775-3.354c-23.415-30.592-38.468-66.893-43.571-104.96c-0.555-4.156,1.988-8.107,6.008-9.31l8.934-2.671
				c29.269-8.798,58.965-11.179,88.269-7.049c3.712,0.512,6.647,3.396,7.236,7.1c2.731,17.007,9.489,33.348,19.55,47.266
				c2.202,3.029,2.159,7.142-0.085,10.129c-17.877,23.74-40.55,43.059-67.396,57.455L90.539,392.849z M238.396,460.971l-2.645,8.866
				c-1.092,3.652-4.454,6.084-8.166,6.084c-0.375,0-0.759-0.026-1.143-0.077c-38.067-5.103-74.368-20.156-104.96-43.563
				c-3.337-2.543-4.318-7.134-2.33-10.82l4.378-8.141c14.49-26.914,33.801-49.596,57.421-67.405
				c3.012-2.244,7.108-2.287,10.146-0.085c14.071,10.189,29.926,16.768,47.147,19.55c3.686,0.597,6.554,3.516,7.091,7.211
				C249.694,403.072,247.364,432.802,238.396,460.971z M221.867,315.733c0-18.825,15.309-34.133,34.133-34.133
				s34.133,15.309,34.133,34.133S274.825,349.867,256,349.867S221.867,334.558,221.867,315.733z M390.511,432.282
				c-30.592,23.407-66.884,38.46-104.951,43.563c-0.384,0.051-0.768,0.077-1.143,0.077c-3.721,0-7.074-2.432-8.166-6.084
				l-2.679-8.934c-8.926-28.211-11.264-57.958-6.921-88.311c0.529-3.695,3.405-6.622,7.091-7.211
				c16.913-2.731,33.195-9.464,47.044-19.473c3.029-2.167,7.134-2.142,10.112,0.085c24.619,18.432,43.989,41.114,57.6,67.388
				l4.352,8.081C394.829,425.148,393.847,429.739,390.511,432.282z M475.836,285.56c-5.094,38.067-20.156,74.368-43.563,104.96
				c-1.655,2.176-4.19,3.354-6.784,3.354c-1.365,0-2.756-0.333-4.036-1.024l-8.141-4.378
				c-26.257-13.653-48.947-33.024-67.319-57.549c-2.244-2.987-2.287-7.083-0.094-10.112c10.103-13.995,16.87-30.268,19.601-47.07
				c0.597-3.678,3.524-6.545,7.219-7.083c30.438-4.343,60.109-1.997,88.243,6.938l8.866,2.654
				C473.847,277.453,476.399,281.404,475.836,285.56z"/>
			<path d="M255.998,298.669c-9.412,0-17.067,7.654-17.067,17.067c0,9.412,7.654,17.067,17.067,17.067
				c9.412,0,17.067-7.654,17.067-17.067C273.065,306.324,265.411,298.669,255.998,298.669z"/>
			<path d="M186.415,363.302c-19.465,15.71-35.541,35.234-47.846,58.103l-0.879,1.621c24.986,17.741,53.709,29.67,83.831,34.807
				l0.555-1.835c0.017-0.043,0.034-0.085,0.043-0.137c7.603-23.859,9.984-49.007,7.091-74.829
				C214.003,377.783,199.42,371.733,186.415,363.302z"/>
		</g>
	</g>
</g>
<g>
</g>
<g>
</g>
<g>
</g>
<g>
</g>
<g>
</g>
<g>
</g>
<g>
</g>
<g>
</g>
<g>
</g>
<g>
</g>
<g>
</g>
<g>
</g>
<g>
</g>
<g>
</g>
<g>
</g>
</svg>
