<?xml version="1.0" encoding="iso-8859-1"?>
<!-- Generator: Adobe Illustrator 19.0.0, SVG Export Plug-In . SVG Version: 6.00 Build 0)  -->
<svg version="1.1" id="Layer_1" xmlns="http://www.w3.org/2000/svg" xmlns:xlink="http://www.w3.org/1999/xlink" x="0px" y="0px"
	 viewBox="0 0 512.019 512.019" style="enable-background:new 0 0 512.019 512.019;" xml:space="preserve">
<g>
	<g>
		<g>
			<path d="M439.476,0c-28.237,0-51.2,22.963-51.2,51.2s22.963,51.2,51.2,51.2c28.237,0,51.2-22.963,51.2-51.2S467.713,0,439.476,0z
				"/>
			<path d="M411.243,113.87c-30.293-8.337-62.046,8.405-72.294,38.093l-47.24,136.909c-1.852,5.342-7.134,8.636-12.655,7.97
				l-86.468-9.933c-12.672-1.613-24.627,6.477-27.793,18.185l-56.934,165.043c-3.021,11.093-0.171,22.69,7.441,30.251
				c7.637,7.603,17.024,11.631,26.632,11.631c2.799,0,5.606-0.341,8.397-1.033c11.733-2.901,21.248-11.87,24.61-22.716
				l48.23-118.332c1.28-4.122,5.41-6.63,9.745-5.914l128.981,17.613c13.722,1.903,26.906-6.263,31.386-19.362l58.615-171.52
				c5.385-15.744,4.062-32.512-3.712-47.215C440.401,128.821,427.285,118.291,411.243,113.87z"/>
			<path d="M174.943,196.267c0,3.447,2.074,6.562,5.265,7.885c1.058,0.435,2.167,0.648,3.268,0.648c2.219,0,4.403-0.87,6.033-2.5
				l76.8-76.8c3.337-3.337,3.337-8.73,0-12.066l-76.8-76.8c-2.441-2.441-6.11-3.157-9.301-1.852
				c-3.191,1.323-5.265,4.437-5.265,7.885V76.8H29.876c-4.719,0-8.533,3.823-8.533,8.533V153.6c0,4.71,3.814,8.533,8.533,8.533
				h145.067V196.267z"/>
		</g>
	</g>
</g>
<g>
</g>
<g>
</g>
<g>
</g>
<g>
</g>
<g>
</g>
<g>
</g>
<g>
</g>
<g>
</g>
<g>
</g>
<g>
</g>
<g>
</g>
<g>
</g>
<g>
</g>
<g>
</g>
<g>
</g>
</svg>
