<?xml version="1.0" encoding="iso-8859-1"?>
<!-- Generator: Adobe Illustrator 19.0.0, SVG Export Plug-In . SVG Version: 6.00 Build 0)  -->
<svg version="1.1" id="Layer_1" xmlns="http://www.w3.org/2000/svg" xmlns:xlink="http://www.w3.org/1999/xlink" x="0px" y="0px"
	 viewBox="0 0 512 512" style="enable-background:new 0 0 512 512;" xml:space="preserve">
<g>
	<g>
		<g>
			<path d="M256,0C114.842,0,0,114.842,0,256s114.842,256,256,256s256-114.842,256-256S397.158,0,256,0z M256,494.933
				C124.254,494.933,17.067,387.746,17.067,256S124.254,17.067,256,17.067S494.933,124.254,494.933,256S387.746,494.933,256,494.933
				z"/>
			<path d="M196.267,238.933c-9.412,0-17.067,7.654-17.067,17.067c0,9.412,7.654,17.067,17.067,17.067s17.067-7.654,17.067-17.067
				C213.333,246.588,205.679,238.933,196.267,238.933z"/>
			<path d="M256,298.667c-9.412,0-17.067,7.654-17.067,17.067c0,9.412,7.654,17.067,17.067,17.067s17.067-7.654,17.067-17.067
				C273.067,306.321,265.412,298.667,256,298.667z"/>
			<path d="M315.733,273.067c9.412,0,17.067-7.654,17.067-17.067c0-9.412-7.654-17.067-17.067-17.067s-17.067,7.654-17.067,17.067
				C298.667,265.412,306.321,273.067,315.733,273.067z"/>
			<path d="M256,213.333c9.412,0,17.067-7.654,17.067-17.067c0-9.412-7.654-17.067-17.067-17.067s-17.067,7.654-17.067,17.067
				C238.933,205.679,246.588,213.333,256,213.333z"/>
			<path d="M459.866,236.762c-0.009-0.145-0.017-0.29-0.034-0.435c-0.623-6.537-1.57-12.979-2.799-19.319
				c-0.009-0.017-0.009-0.026-0.009-0.043c-5.333-27.503-16.145-53.06-31.3-75.469c-0.009-0.009-0.017-0.026-0.026-0.034
				c-0.051-0.077-0.111-0.145-0.162-0.222c-3.533-5.197-7.296-10.232-11.281-15.078c-0.29-0.35-0.58-0.691-0.87-1.041
				c-3.789-4.54-7.765-8.917-11.921-13.116c-0.486-0.495-0.973-0.981-1.468-1.468c-4.198-4.156-8.576-8.132-13.116-11.921
				c-0.35-0.29-0.691-0.58-1.041-0.87c-4.847-3.985-9.882-7.748-15.078-11.281c-0.077-0.051-0.145-0.111-0.222-0.162
				c-0.009-0.009-0.026-0.017-0.034-0.026c-22.409-15.155-47.966-25.967-75.46-31.3h-0.008c-0.017,0-0.026,0-0.043-0.009
				c-6.357-1.229-12.809-2.176-19.354-2.807c-0.077-0.009-0.145-0.009-0.222-0.017c-6.4-0.606-12.868-0.939-19.422-0.939
				c-6.545,0-13.022,0.333-19.413,0.939c-0.077,0.009-0.145,0.009-0.222,0.017c-6.545,0.631-12.996,1.579-19.354,2.807
				c-0.017,0.009-0.026,0.009-0.043,0.009c-27.503,5.333-53.069,16.145-75.469,31.3c-0.009,0.009-0.026,0.017-0.034,0.026
				c-0.077,0.051-0.145,0.111-0.222,0.162c-5.205,3.533-10.24,7.305-15.087,11.29c-0.341,0.282-0.683,0.572-1.024,0.853
				c-4.54,3.789-8.917,7.765-13.124,11.93c-0.495,0.486-0.981,0.973-1.468,1.468c-4.164,4.207-8.141,8.585-11.93,13.124
				c-0.282,0.341-0.572,0.683-0.853,1.024c-3.985,4.847-7.757,9.882-11.29,15.087c-0.051,0.077-0.111,0.145-0.162,0.222
				c-0.009,0.009-0.017,0.026-0.026,0.034c-15.164,22.409-25.967,47.966-31.3,75.46v0.009c0,0.017-0.009,0.026-0.009,0.043
				c-1.229,6.34-2.176,12.783-2.807,19.319c-0.008,0.145-0.017,0.29-0.026,0.435c-0.597,6.34-0.939,12.749-0.939,19.243
				c0,6.485,0.341,12.894,0.939,19.234c0.009,0.145,0.017,0.29,0.026,0.435c0.631,6.536,1.579,12.979,2.807,19.319
				c0,0.017,0.009,0.026,0.009,0.043c5.333,27.503,16.137,53.06,31.3,75.469c0.009,0.009,0.017,0.026,0.026,0.034
				c0.051,0.077,0.111,0.145,0.162,0.222c3.533,5.205,7.305,10.249,11.298,15.095c0.273,0.341,0.555,0.666,0.836,0.998
				c3.789,4.557,7.774,8.934,11.938,13.141c0.486,0.495,0.973,0.981,1.468,1.468c4.207,4.164,8.585,8.149,13.141,11.938
				c0.333,0.282,0.657,0.563,0.998,0.836c4.847,3.994,9.89,7.765,15.095,11.298c0.077,0.051,0.145,0.111,0.222,0.162
				c0.009,0.008,0.026,0.017,0.034,0.026c22.4,15.164,47.966,25.967,75.46,31.3h0.009c0.017,0,0.026,0,0.043,0.009
				c6.34,1.229,12.783,2.176,19.319,2.799c0.145,0.017,0.29,0.026,0.435,0.034c6.34,0.597,12.749,0.939,19.234,0.939
				c6.494,0,12.902-0.341,19.243-0.939c0.145-0.008,0.29-0.017,0.435-0.034c6.537-0.623,12.979-1.57,19.32-2.799
				c0.017-0.009,0.026-0.009,0.043-0.009c27.503-5.333,53.06-16.136,75.469-31.3c0.009-0.009,0.026-0.017,0.034-0.026
				c0.077-0.051,0.145-0.111,0.222-0.162c5.205-3.533,10.24-7.305,15.087-11.29c0.341-0.282,0.683-0.572,1.024-0.853
				c4.54-3.789,8.917-7.765,13.124-11.93c0.495-0.486,0.981-0.973,1.468-1.468c4.164-4.207,8.141-8.585,11.93-13.124
				c0.282-0.341,0.572-0.683,0.853-1.024c3.985-4.847,7.757-9.882,11.29-15.087c0.051-0.077,0.111-0.145,0.162-0.222
				c0.008-0.009,0.017-0.026,0.026-0.034c15.155-22.409,25.967-47.966,31.3-75.46v-0.009c0-0.017,0-0.026,0.009-0.043
				c1.229-6.34,2.176-12.783,2.799-19.319c0.017-0.145,0.026-0.29,0.034-0.435c0.597-6.34,0.93-12.749,0.93-19.234
				C460.796,249.51,460.463,243.102,459.866,236.762z M255.996,162.138c18.833,0,34.133,15.3,34.133,34.133
				c0,18.825-15.3,34.133-34.133,34.133c-18.825,0-34.133-15.309-34.133-34.133C221.862,177.438,237.171,162.138,255.996,162.138z
				 M315.729,221.871c18.833,0,34.133,15.3,34.133,34.133c0,18.825-15.3,34.133-34.133,34.133
				c-18.825,0-34.133-15.309-34.133-34.133C281.596,237.171,296.905,221.871,315.729,221.871z M230.396,256.004
				c0,18.825-15.3,34.133-34.133,34.133c-18.825,0-34.133-15.309-34.133-34.133c0-18.833,15.309-34.133,34.133-34.133
				C215.095,221.871,230.396,237.171,230.396,256.004z M214.703,72.896l14.814,22.229l-13.065,39.219
				c-6.451,2.082-12.663,4.642-18.56,7.637l-36.915-18.466l-5.231-26.121C173.598,86.071,193.472,77.692,214.703,72.896z
				 M123.516,351.023l-26.121,5.231c-11.324-17.852-19.712-37.726-24.499-58.957l22.229-14.814l39.219,13.065
				c2.082,6.451,4.642,12.664,7.637,18.56L123.516,351.023z M134.345,216.452l-39.219,13.065l-22.229-14.814
				c4.787-21.231,13.175-41.105,24.499-58.957l26.121,5.231l18.466,36.915C138.987,203.789,136.427,210.001,134.345,216.452z
				 M214.703,439.104c-21.231-4.787-41.105-13.175-58.957-24.499l5.231-26.12l36.915-18.466c5.897,2.995,12.109,5.555,18.56,7.637
				l13.065,39.219L214.703,439.104z M255.996,349.871c-18.825,0-34.133-15.309-34.133-34.133c0-18.833,15.309-34.133,34.133-34.133
				c18.833,0,34.133,15.3,34.133,34.133C290.129,334.562,274.829,349.871,255.996,349.871z M297.297,439.104l-14.814-22.229
				l13.065-39.219c6.451-2.082,12.663-4.642,18.56-7.637l36.915,18.466l5.231,26.12
				C338.402,425.929,318.528,434.317,297.297,439.104z M351.023,123.516l-36.915,18.466c-5.897-2.995-12.109-5.555-18.56-7.637
				l-13.065-39.219l14.814-22.229c21.231,4.796,41.105,13.175,58.957,24.499L351.023,123.516z M414.605,356.254l-26.121-5.231
				l-18.466-36.915c2.995-5.897,5.555-12.109,7.637-18.56l39.219-13.065l22.221,14.814
				C434.308,318.528,425.929,338.402,414.605,356.254z M416.875,229.517l-39.219-13.065c-2.082-6.451-4.642-12.663-7.637-18.56
				l18.466-36.915l26.121-5.231c11.324,17.852,19.703,37.726,24.491,58.957L416.875,229.517z"/>
		</g>
	</g>
</g>
<g>
</g>
<g>
</g>
<g>
</g>
<g>
</g>
<g>
</g>
<g>
</g>
<g>
</g>
<g>
</g>
<g>
</g>
<g>
</g>
<g>
</g>
<g>
</g>
<g>
</g>
<g>
</g>
<g>
</g>
</svg>
