<?xml version="1.0" encoding="iso-8859-1"?>
<!-- Generator: Adobe Illustrator 19.0.0, SVG Export Plug-In . SVG Version: 6.00 Build 0)  -->
<svg version="1.1" id="Layer_1" xmlns="http://www.w3.org/2000/svg" xmlns:xlink="http://www.w3.org/1999/xlink" x="0px" y="0px"
	 viewBox="0 0 512.015 512.015" style="enable-background:new 0 0 512.015 512.015;" xml:space="preserve">
<g>
	<g>
		<g>
			<path d="M460.807,0c-28.237,0-51.2,22.963-51.2,51.2s22.963,51.2,51.2,51.2c28.237,0,51.2-22.963,51.2-51.2S489.044,0,460.807,0z
				"/>
			<path d="M432.574,113.875c-30.268-8.346-62.046,8.388-72.294,38.093l-47.241,136.909c-1.843,5.333-7.049,8.542-12.655,7.97
				l-86.468-9.941c-12.595-1.604-24.619,6.477-27.793,18.193l-56.934,165.043c-3.029,11.093-0.171,22.673,7.441,30.251
				c7.637,7.595,17.024,11.622,26.633,11.622c2.799,0,5.606-0.341,8.397-1.033c11.725-2.901,21.248-11.861,24.61-22.716
				l48.23-118.323c1.263-4.045,5.402-6.571,9.745-5.914l128.981,17.613c13.739,1.835,26.906-6.263,31.377-19.371l58.624-171.52
				c5.385-15.744,4.062-32.521-3.721-47.223C461.732,128.817,448.608,118.295,432.574,113.875z"/>
			<path d="M170.023,261.267c-1.323-3.191-4.437-5.265-7.885-5.265h-34.133v-128c0-4.719-3.823-8.533-8.533-8.533H51.205
				c-4.71,0-8.533,3.814-8.533,8.533v128H8.539c-3.447,0-6.562,2.074-7.885,5.265c-1.314,3.191-0.589,6.861,1.852,9.301l76.8,76.8
				c1.664,1.664,3.849,2.5,6.033,2.5c2.185,0,4.369-0.836,6.033-2.5l76.8-76.8C170.612,268.128,171.346,264.458,170.023,261.267z"/>
		</g>
	</g>
</g>
<g>
</g>
<g>
</g>
<g>
</g>
<g>
</g>
<g>
</g>
<g>
</g>
<g>
</g>
<g>
</g>
<g>
</g>
<g>
</g>
<g>
</g>
<g>
</g>
<g>
</g>
<g>
</g>
<g>
</g>
</svg>
