<?xml version="1.0" encoding="iso-8859-1"?>
<!-- Generator: Adobe Illustrator 19.0.0, SVG Export Plug-In . SVG Version: 6.00 Build 0)  -->
<svg version="1.1" id="Layer_1" xmlns="http://www.w3.org/2000/svg" xmlns:xlink="http://www.w3.org/1999/xlink" x="0px" y="0px"
	 viewBox="0 0 512 512" style="enable-background:new 0 0 512 512;" xml:space="preserve">
<g>
	<g>
		<g>
			<polygon points="266.665,238.931 281.598,258.839 296.532,238.931 281.598,219.023 			"/>
			<path d="M256,0C114.842,0,0,114.842,0,256s114.842,256,256,256s256-114.842,256-256S397.158,0,256,0z M78.891,153.344
				C115.55,90.342,183.415,51.2,256,51.2s140.45,39.142,177.109,102.144c1.331,2.304,1.519,5.086,0.512,7.543
				c-1.015,2.458-3.115,4.309-5.683,4.992c-11.836,3.174-23.748,4.787-35.405,4.787H119.467c-11.657,0-23.569-1.613-35.413-4.787
				c-2.56-0.683-4.659-2.534-5.683-4.992C77.363,158.43,77.559,155.648,78.891,153.344z M314.027,244.045l-25.6,34.133l-25.6,34.133
				c-1.613,2.15-4.147,3.422-6.827,3.422c-2.688,0-5.222-1.271-6.827-3.422l-25.6-34.133l-25.6-34.133
				c-2.278-3.029-2.278-7.194,0-10.231l25.6-34.133c3.217-4.301,10.436-4.301,13.653,0L256,224.717l18.773-25.037
				c3.217-4.301,10.436-4.301,13.653,0l25.6,34.133C316.297,236.851,316.297,241.016,314.027,244.045z M69.837,321.835
				c-0.503,0.085-1.015,0.128-1.519,0.128c-3.686,0-7.04-2.389-8.149-6.033C54.212,296.542,51.2,276.369,51.2,256
				c0-20.378,3.012-40.542,8.969-59.938c1.271-4.13,5.487-6.63,9.668-5.897c44.996,8.141,75.23,34.603,75.23,65.835
				S114.833,313.685,69.837,321.835z M433.101,358.665C396.442,421.666,328.585,460.8,256,460.8S115.558,421.666,78.899,358.665
				c-1.331-2.304-1.527-5.086-0.521-7.543c1.015-2.458,3.123-4.309,5.683-4.992c11.887-3.183,23.791-4.796,35.405-4.796h273.067
				c11.605,0,23.518,1.613,35.396,4.796c2.569,0.683,4.668,2.534,5.683,4.992C434.62,353.579,434.432,356.361,433.101,358.665z
				 M443.665,322.014c-0.512,0-1.016-0.043-1.527-0.137c-44.979-8.141-75.204-34.611-75.204-65.877s30.225-57.745,75.204-65.886
				c4.198-0.759,8.414,1.758,9.677,5.897c5.956,19.422,8.986,39.603,8.986,59.989c0,20.378-3.029,40.567-8.986,59.981
				C450.697,319.625,447.352,322.014,443.665,322.014z"/>
			<polygon points="241.065,273.064 255.998,292.972 270.932,273.064 255.998,253.156 			"/>
			<polygon points="230.398,219.023 215.465,238.931 230.398,258.839 245.332,238.931 			"/>
		</g>
	</g>
</g>
<g>
</g>
<g>
</g>
<g>
</g>
<g>
</g>
<g>
</g>
<g>
</g>
<g>
</g>
<g>
</g>
<g>
</g>
<g>
</g>
<g>
</g>
<g>
</g>
<g>
</g>
<g>
</g>
<g>
</g>
</svg>
