<?xml version="1.0" encoding="iso-8859-1"?>
<!-- Generator: Adobe Illustrator 19.0.0, SVG Export Plug-In . SVG Version: 6.00 Build 0)  -->
<svg version="1.1" id="Layer_1" xmlns="http://www.w3.org/2000/svg" xmlns:xlink="http://www.w3.org/1999/xlink" x="0px" y="0px"
	 viewBox="0 0 512.022 512.022" style="enable-background:new 0 0 512.022 512.022;" xml:space="preserve">
<g transform="translate(0 -1)">
	<g>
		<g>
			<path d="M460.811,1.007c-28.237,0-51.2,22.963-51.2,51.2s22.963,51.2,51.2,51.2c28.237,0,51.2-22.963,51.2-51.2
				S489.047,1.007,460.811,1.007z"/>
			<path d="M432.577,114.882c-30.268-8.346-62.037,8.388-72.294,38.093l-47.241,136.917c-1.843,5.325-7.083,8.568-12.646,7.962
				l-86.477-9.941c-12.612-1.604-24.619,6.477-27.793,18.193l-56.934,165.043c-3.029,11.093-0.171,22.673,7.441,30.251
				c7.637,7.595,17.024,11.622,26.633,11.622c2.799,0,5.606-0.341,8.397-1.033c11.725-2.901,21.248-11.861,24.61-22.716
				l48.23-118.323c1.263-4.045,5.385-6.571,9.745-5.914l128.99,17.613c13.73,1.826,26.897-6.263,31.368-19.362l58.624-171.529
				c5.385-15.744,4.062-32.521-3.721-47.223C461.736,129.824,448.611,119.302,432.577,114.882z"/>
			<path d="M170.027,262.274c-1.323-3.191-4.437-5.265-7.885-5.265h-34.133v-102.4c0-4.719-3.823-8.533-8.533-8.533H51.209
				c-4.71,0-8.533,3.814-8.533,8.533v102.4H8.542c-3.447,0-6.562,2.074-7.885,5.265c-1.314,3.191-0.589,6.861,1.852,9.301l76.8,76.8
				c1.664,1.664,3.849,2.5,6.033,2.5c2.185,0,4.369-0.836,6.033-2.5l76.8-76.8C170.616,269.135,171.35,265.466,170.027,262.274z"/>
			<path d="M119.477,129.007h102.4v34.133c0,3.447,2.082,6.571,5.265,7.885c1.058,0.444,2.167,0.649,3.268,0.649
				c2.219,0,4.403-0.87,6.033-2.5l76.8-76.8c3.336-3.337,3.336-8.73,0-12.066l-76.8-76.8c-2.449-2.449-6.118-3.183-9.301-1.852
				c-3.183,1.314-5.265,4.437-5.265,7.885v34.133h-102.4c-4.71,0-8.533,3.814-8.533,8.533v68.267
				C110.944,125.193,114.767,129.007,119.477,129.007z"/>
		</g>
	</g>
</g>
<g>
</g>
<g>
</g>
<g>
</g>
<g>
</g>
<g>
</g>
<g>
</g>
<g>
</g>
<g>
</g>
<g>
</g>
<g>
</g>
<g>
</g>
<g>
</g>
<g>
</g>
<g>
</g>
<g>
</g>
</svg>
