<?xml version="1.0" encoding="iso-8859-1"?>
<!-- Generator: Adobe Illustrator 19.0.0, SVG Export Plug-In . SVG Version: 6.00 Build 0)  -->
<svg version="1.1" id="Layer_1" xmlns="http://www.w3.org/2000/svg" xmlns:xlink="http://www.w3.org/1999/xlink" x="0px" y="0px"
	 viewBox="0 0 512 512" style="enable-background:new 0 0 512 512;" xml:space="preserve">
<g>
	<g>
		<g>
			<path d="M156.1,220.834c-4.83-4.838-11.264-7.501-18.108-7.501H85.333c-14.114,0-25.6,11.486-25.6,25.6v179.2
				c0,14.114,11.486,25.6,25.6,25.6h85.333c14.114,0,25.6-11.486,25.6-25.6V271.599c0-6.835-2.662-13.269-7.501-18.099
				L156.1,220.834z M136.533,384h-25.6c-4.71,0-8.533-3.814-8.533-8.533s3.823-8.533,8.533-8.533h25.6
				c4.71,0,8.533,3.814,8.533,8.533S141.244,384,136.533,384z M136.533,341.333h-25.6c-4.71,0-8.533-3.814-8.533-8.533
				c0-4.719,3.823-8.533,8.533-8.533h25.6c4.71,0,8.533,3.814,8.533,8.533C145.067,337.519,141.244,341.333,136.533,341.333z
				 M136.533,298.667h-25.6c-4.71,0-8.533-3.814-8.533-8.533s3.823-8.533,8.533-8.533h25.6c4.71,0,8.533,3.814,8.533,8.533
				S141.244,298.667,136.533,298.667z"/>
			<path d="M499.507,129.033l-65.34-65.331c-8.055-8.055-18.773-12.501-30.165-12.501H298.667V25.6c0-14.114-11.486-25.6-25.6-25.6
				h-34.133c-14.114,0-25.6,11.486-25.6,25.6v25.6c-23.526,0-42.667,19.14-42.667,42.667v53.76c-4.497-1.579-9.225-2.56-14.14-2.56
				H85.333v-25.6c0-14.114-11.486-25.6-25.6-25.6H42.667c-14.114,0-25.6,11.486-25.6,25.6v27.059C7.134,150.05,0,159.539,0,170.667
				V486.4C0,500.514,11.486,512,25.6,512h204.8h238.933C492.86,512,512,492.86,512,469.333V159.206
				C512,147.814,507.563,137.097,499.507,129.033z M238.933,435.2v51.2c0,4.71-3.831,8.533-8.533,8.533H25.6
				c-4.702,0-8.533-3.823-8.533-8.533V170.667c0-4.71,3.831-8.533,8.533-8.533c4.71,0,8.533-3.814,8.533-8.533v-34.133
				c0-4.71,3.831-8.533,8.533-8.533h17.067c4.702,0,8.533,3.823,8.533,8.533V153.6c0,4.719,3.823,8.533,8.533,8.533h79.727
				c6.238,0,12.279,2.423,16.939,6.545c0.034,0.034,0.043,0.085,0.077,0.111c0.154,0.145,0.922,0.717,1.084,0.845l56.815,56.798
				c0.009,0.009,0.009,0.026,0.017,0.034c2.406,2.406,4.275,5.222,5.547,8.286c0.119,0.29,0.162,0.606,0.273,0.905
				c0.469,1.263,0.905,2.526,1.161,3.857c0.324,1.638,0.495,3.319,0.495,5.026V435.2z M460.8,435.2c0,14.114-11.486,25.6-25.6,25.6
				H264.533v-17.067H435.2c4.702,0,8.533-3.823,8.533-8.533V180.42c0-6.844-2.662-13.278-7.492-18.108l-35.354-35.345
				c-4.762-4.77-11.358-7.501-18.099-7.501H247.467c-4.702,0-8.533,3.823-8.533,8.533v74.974l-17.067-14.831V128
				c0-14.114,11.486-25.6,25.6-25.6h135.322c11.392,0,22.11,4.446,30.174,12.501l35.345,35.336
				c8.055,8.064,12.493,18.782,12.493,30.182V435.2z M298.667,324.267H384c4.71,0,8.533,3.814,8.533,8.533
				c0,4.719-3.823,8.533-8.533,8.533h-85.333c-4.71,0-8.533-3.814-8.533-8.533C290.133,328.081,293.956,324.267,298.667,324.267z
				 M290.261,235.443c0.606-8.422,3.456-15.838,8.73-22.647c9.062-11.708,15.889-25.37,22.502-38.588l12.211-24.422
				c2.893-5.786,12.373-5.786,15.266,0l15.232,30.456c5.009,10.027,10.974,19.379,17.297,29.278l4.489,7.066
				c4.412,6.989,6.545,14.302,6.545,22.349c0,15.462-6.878,29.935-18.876,39.706c-9.208,7.509-20.617,11.477-32.393,11.477
				c-3.567,0-7.159-0.358-10.743-1.101C306.15,283.989,288.469,260.454,290.261,235.443z M401.067,366.933
				c4.71,0,8.533,3.814,8.533,8.533S405.777,384,401.067,384H281.6c-4.71,0-8.533-3.814-8.533-8.533s3.823-8.533,8.533-8.533
				H401.067z"/>
			<path d="M333.971,272.3c10.513,2.159,20.787-0.273,28.911-6.895c7.996-6.511,12.587-16.162,12.587-26.47
				c0-4.804-1.246-9.011-3.917-13.252l-4.437-6.98c-6.281-9.839-12.774-20.002-18.185-30.831l-7.595-15.189l-4.574,9.156
				c-6.98,13.952-14.191,28.382-24.269,41.404c-3.234,4.173-4.838,8.32-5.205,13.414C306.084,253.305,317.809,268.964,333.971,272.3
				z"/>
		</g>
	</g>
</g>
<g>
</g>
<g>
</g>
<g>
</g>
<g>
</g>
<g>
</g>
<g>
</g>
<g>
</g>
<g>
</g>
<g>
</g>
<g>
</g>
<g>
</g>
<g>
</g>
<g>
</g>
<g>
</g>
<g>
</g>
</svg>
