<?xml version="1.0" encoding="iso-8859-1"?>
<!-- Generator: Adobe Illustrator 19.0.0, SVG Export Plug-In . SVG Version: 6.00 Build 0)  -->
<svg version="1.1" id="Layer_1" xmlns="http://www.w3.org/2000/svg" xmlns:xlink="http://www.w3.org/1999/xlink" x="0px" y="0px"
	 viewBox="0 0 511.565 511.565" style="enable-background:new 0 0 511.565 511.565;" xml:space="preserve">
<g>
	<g>
		<g>
			<path d="M259.2,272.554c-4.881,2.33-9.779,4.659-14.635,7.031c-10.778,5.265-16.401,17.254-13.679,29.167
				c2.091,9.131,9.626,16.666,18.756,18.748c11.878,2.714,23.902-2.901,29.167-13.679c2.347-4.813,4.659-9.651,6.955-14.49
				c7.262-15.241,14.763-30.993,23.714-45.901l6.767-11.281l-11.29,6.767C290.099,257.834,274.389,265.318,259.2,272.554z"/>
			<rect x="187.512" y="379.408" width="136.533" height="34.133"/>
			<path d="M426.453,302.605c0-4.71,3.814-8.533,8.533-8.533h76.578c-0.956-28.928-6.707-56.653-16.529-82.406l-38.007,18.15
				c-1.186,0.563-2.441,0.836-3.669,0.836c-3.191,0-6.246-1.792-7.706-4.864c-2.039-4.25-0.239-9.344,4.019-11.375l38.733-18.492
				c-11.81-25.651-27.733-49.007-46.933-69.257l-28.57,30.891c-1.69,1.818-3.977,2.739-6.272,2.739c-2.074,0-4.147-0.751-5.786-2.27
				c-3.465-3.2-3.678-8.602-0.478-12.066l28.971-31.317c-19.311-17.852-41.37-32.742-65.459-44.015l-17.536,38.869
				c-1.425,3.166-4.523,5.035-7.782,5.035c-1.169,0-2.364-0.247-3.499-0.759c-4.301-1.937-6.212-6.989-4.267-11.29l17.391-38.545
				c-26.163-10.163-54.391-16.137-83.866-17.109v76.578c0,4.719-3.823,8.533-8.533,8.533c-4.719,0-8.533-3.814-8.533-8.533V46.827
				c-27.648,0.913-54.204,6.161-78.976,15.198l15.002,40.021c1.656,4.412-0.58,9.335-4.983,10.991
				c-0.998,0.358-2.005,0.538-3.004,0.538c-3.447,0-6.707-2.116-7.996-5.538l-14.831-39.569
				c-26.47,11.725-50.577,27.793-71.441,47.317l29.943,29.943c3.337,3.328,3.337,8.73,0,12.066c-1.664,1.664-3.849,2.5-6.033,2.5
				c-2.185,0-4.369-0.836-6.033-2.5l-29.943-29.943c-18.347,19.601-33.647,42.061-45.15,66.654l38.869,17.545
				c4.301,1.937,6.204,6.989,4.267,11.281c-1.425,3.157-4.531,5.035-7.782,5.035c-1.169,0-2.364-0.247-3.507-0.76l-38.545-17.399
				C6.946,236.369,0.973,264.597,0,294.072h76.587c4.71,0,8.533,3.823,8.533,8.533c0,4.719-3.823,8.533-8.533,8.533H0.137
				c0.905,28.075,6.238,55.27,15.855,80.964l38.835-16.836c4.326-1.886,9.344,0.128,11.221,4.446
				c1.869,4.318-0.111,9.344-4.437,11.213L22.4,407.915c8.585,18.91,19.49,36.881,32.751,53.598c1.613,2.039,4.07,3.226,6.682,3.226
				h387.9c2.611,0,5.069-1.186,6.682-3.226c12.552-15.821,22.895-32.811,31.258-50.603l-38.818-17.758
				c-4.284-1.963-6.17-7.023-4.216-11.307c1.963-4.275,7.006-6.195,11.315-4.216l38.4,17.562
				c10.359-26.598,16.128-54.844,17.075-84.053h-76.442C430.268,311.138,426.453,307.324,426.453,302.605z M341.12,422.072
				c0,4.719-3.823,8.533-8.533,8.533h-153.6c-4.719,0-8.533-3.814-8.533-8.533v-51.2c0-4.71,3.814-8.533,8.533-8.533h153.6
				c4.71,0,8.533,3.823,8.533,8.533V422.072z M348.433,221.666l-24.329,40.55c-8.525,14.199-15.846,29.577-22.929,44.45
				c-2.33,4.89-4.659,9.779-7.031,14.643c-7.296,14.942-22.298,23.945-38.46,23.945c-3.251,0-6.554-0.367-9.839-1.109
				c-15.633-3.567-28.032-15.966-31.599-31.599c-4.489-19.669,4.898-39.535,22.818-48.29c4.915-2.406,9.856-4.753,14.797-7.108
				c14.831-7.066,30.157-14.37,44.314-22.861l40.55-24.329c3.354-2.005,7.654-1.502,10.428,1.28
				C349.918,214.012,350.447,218.304,348.433,221.666z"/>
		</g>
	</g>
</g>
<g>
</g>
<g>
</g>
<g>
</g>
<g>
</g>
<g>
</g>
<g>
</g>
<g>
</g>
<g>
</g>
<g>
</g>
<g>
</g>
<g>
</g>
<g>
</g>
<g>
</g>
<g>
</g>
<g>
</g>
</svg>
