<?xml version="1.0" encoding="iso-8859-1"?>
<!-- Generator: Adobe Illustrator 19.0.0, SVG Export Plug-In . SVG Version: 6.00 Build 0)  -->
<svg version="1.1" id="Layer_1" xmlns="http://www.w3.org/2000/svg" xmlns:xlink="http://www.w3.org/1999/xlink" x="0px" y="0px"
	 viewBox="0 0 512 512" style="enable-background:new 0 0 512 512;" xml:space="preserve">
<g>
	<g>
		<g>
			<path d="M249.956,402.822c0.785,0.794,1.732,1.417,2.782,1.852c1.05,0.435,2.15,0.657,3.26,0.657s2.219-0.222,3.26-0.657
				c1.05-0.435,1.997-1.058,2.79-1.852l25.583-25.591c3.337-3.328,3.337-8.73,0-12.066c-3.328-3.328-8.73-3.328-12.066,0
				l-11.034,11.034v-56.201c0-4.71-3.814-8.533-8.533-8.533c-4.71,0-8.533,3.823-8.533,8.533v56.201l-11.034-11.034
				c-3.328-3.328-8.73-3.328-12.066,0c-3.328,3.337-3.328,8.738,0,12.066L249.956,402.822z"/>
			<path d="M168.559,174.933H512v-102.4c0-4.719-3.814-8.533-8.533-8.533H136.661c-7.859,0-15.445,3.294-20.813,9.037L7.646,188.979
				C2.714,194.27,0,201.156,0,208.384v68.949v162.133C0,444.186,3.814,448,8.533,448h494.933c4.719,0,8.533-3.814,8.533-8.533
				V277.333V192H168.559c-3.149,0-6.187,1.314-8.337,3.618L91.921,268.8H68.565l79.181-84.83
				C153.114,178.227,160.7,174.933,168.559,174.933z M72.286,285.867h422.647v145.067H17.067V285.867H72.286z"/>
		</g>
	</g>
</g>
<g>
</g>
<g>
</g>
<g>
</g>
<g>
</g>
<g>
</g>
<g>
</g>
<g>
</g>
<g>
</g>
<g>
</g>
<g>
</g>
<g>
</g>
<g>
</g>
<g>
</g>
<g>
</g>
<g>
</g>
</svg>
