<?xml version="1.0" encoding="iso-8859-1"?>
<!-- Generator: Adobe Illustrator 19.0.0, SVG Export Plug-In . SVG Version: 6.00 Build 0)  -->
<svg version="1.1" id="Layer_1" xmlns="http://www.w3.org/2000/svg" xmlns:xlink="http://www.w3.org/1999/xlink" x="0px" y="0px"
	 viewBox="0 0 512 512" style="enable-background:new 0 0 512 512;" xml:space="preserve">
<g>
	<g>
		<g>
			<path d="M256,0C114.842,0,0,114.842,0,256s114.842,256,256,256s256-114.842,256-256S397.158,0,256,0z M256,494.933
				C124.254,494.933,17.067,387.746,17.067,256S124.254,17.067,256,17.067S494.933,124.254,494.933,256S387.746,494.933,256,494.933
				z"/>
			<path d="M272.637,312.067c-0.367-1.681-1.024-3.243-1.852-4.685c-0.145-0.256-0.256-0.529-0.418-0.776
				c-0.35-0.555-0.768-1.067-1.178-1.57c-0.23-0.273-0.444-0.563-0.683-0.819c-0.427-0.469-0.896-0.896-1.374-1.314
				c-0.29-0.247-0.572-0.486-0.87-0.717c-0.486-0.375-0.998-0.717-1.527-1.033c-0.358-0.222-0.734-0.418-1.118-0.606
				c-0.503-0.256-1.016-0.503-1.545-0.708c-0.512-0.205-1.05-0.35-1.587-0.495c-0.444-0.128-0.87-0.273-1.331-0.358
				c-1.024-0.196-2.074-0.316-3.157-0.316c-1.075,0-2.125,0.119-3.157,0.316c-0.452,0.085-0.887,0.23-1.331,0.358
				c-0.538,0.145-1.067,0.29-1.587,0.495c-0.529,0.205-1.033,0.452-1.536,0.708c-0.384,0.188-0.76,0.384-1.126,0.606
				c-0.521,0.316-1.033,0.657-1.519,1.033c-0.299,0.23-0.589,0.469-0.87,0.717c-0.478,0.418-0.947,0.845-1.382,1.314
				c-0.239,0.256-0.452,0.546-0.674,0.819c-0.418,0.503-0.828,1.016-1.186,1.57c-0.154,0.247-0.273,0.521-0.418,0.776
				c-0.819,1.442-1.476,3.004-1.843,4.685c-0.009,0.026-0.026,0.034-0.034,0.06c-0.247,1.169-0.401,2.364-0.401,3.61
				c0,9.404,7.654,17.067,17.067,17.067c9.412,0,17.067-7.663,17.067-17.067c0-1.246-0.145-2.441-0.401-3.61
				C272.663,312.101,272.646,312.092,272.637,312.067z"/>
			<path d="M212.652,251.492c-0.145-0.521-0.29-1.05-0.478-1.545c-0.213-0.546-0.469-1.075-0.734-1.596
				c-0.179-0.358-0.367-0.708-0.572-1.058c-0.333-0.546-0.691-1.075-1.075-1.579c-0.205-0.273-0.427-0.538-0.648-0.794
				c-0.435-0.503-0.888-0.998-1.382-1.451c-0.23-0.205-0.478-0.393-0.717-0.589c-0.538-0.444-1.075-0.887-1.664-1.254
				c-0.196-0.128-0.41-0.222-0.606-0.333c-1.485-0.862-3.089-1.544-4.83-1.929c-0.017,0-0.034-0.017-0.051-0.026
				c-1.169-0.256-2.381-0.41-3.627-0.41c-9.412,0-17.067,7.663-17.067,17.067c0,9.412,7.654,17.067,17.067,17.067
				c1.246,0,2.458-0.154,3.627-0.401c0.017-0.008,0.034-0.026,0.051-0.026c1.741-0.384,3.345-1.067,4.83-1.929
				c0.196-0.119,0.41-0.205,0.606-0.333c0.589-0.375,1.126-0.811,1.664-1.254c0.239-0.196,0.486-0.384,0.717-0.589
				c0.495-0.461,0.947-0.947,1.382-1.459c0.222-0.256,0.444-0.512,0.648-0.785c0.384-0.503,0.742-1.041,1.075-1.587
				c0.205-0.341,0.393-0.691,0.572-1.05c0.265-0.521,0.521-1.05,0.734-1.596c0.188-0.503,0.333-1.024,0.478-1.544
				c0.128-0.452,0.273-0.896,0.358-1.357c0.196-1.024,0.324-2.074,0.324-3.157c0-1.075-0.128-2.125-0.324-3.149
				C212.925,252.388,212.78,251.944,212.652,251.492z"/>
			<path d="M282.55,248.308c0.41-1.724,0.904-3.422,1.57-5.043c0.256-0.64,0.589-1.237,0.879-1.852
				c0.538-1.118,1.118-2.202,1.766-3.251c0.444-0.708,0.879-1.408,1.374-2.082c0.887-1.229,1.843-2.398,2.884-3.499
				c0.589-0.614,1.22-1.178,1.852-1.758c0.87-0.794,1.783-1.544,2.731-2.253c0.614-0.452,1.229-0.896,1.877-1.314
				c0.196-0.12,0.367-0.273,0.563-0.401c-3.499-5.035-7.876-9.395-12.919-12.894c-0.111,0.179-0.247,0.333-0.358,0.512
				c-0.444,0.691-0.913,1.331-1.399,1.988c-0.666,0.896-1.374,1.741-2.116,2.569c-0.674,0.742-1.34,1.459-2.074,2.142
				c-1.024,0.956-2.099,1.843-3.234,2.671c-0.691,0.503-1.417,0.964-2.15,1.417c-1.015,0.623-2.065,1.186-3.14,1.707
				c-0.666,0.316-1.306,0.666-1.997,0.939c-1.596,0.649-3.26,1.143-4.958,1.545c-0.572,0.128-1.143,0.239-1.724,0.35
				c-1.954,0.35-3.942,0.597-5.973,0.597c-2.039,0-4.036-0.247-5.99-0.606c-0.572-0.102-1.135-0.213-1.698-0.341
				c-1.732-0.41-3.439-0.905-5.077-1.579c-0.623-0.247-1.195-0.572-1.801-0.862c-1.126-0.538-2.227-1.126-3.285-1.783
				c-0.7-0.435-1.391-0.87-2.065-1.357c-1.229-0.896-2.406-1.852-3.516-2.901c-0.614-0.58-1.169-1.212-1.741-1.843
				c-0.794-0.87-1.544-1.775-2.253-2.731c-0.452-0.614-0.905-1.229-1.314-1.869c-0.128-0.205-0.282-0.375-0.401-0.572
				c-5.035,3.499-9.404,7.876-12.902,12.919c0.171,0.111,0.324,0.239,0.495,0.35c0.7,0.444,1.365,0.93,2.031,1.425
				c0.879,0.657,1.715,1.348,2.517,2.082c0.759,0.683,1.502,1.374,2.193,2.125c0.947,1.016,1.826,2.074,2.645,3.191
				c0.503,0.7,0.964,1.425,1.417,2.159c0.631,1.016,1.195,2.074,1.715,3.149c0.307,0.657,0.649,1.28,0.922,1.954
				c0.657,1.613,1.152,3.294,1.553,5c0.137,0.563,0.247,1.135,0.35,1.707c0.358,1.963,0.606,3.951,0.606,5.982
				c0,2.039-0.247,4.028-0.606,5.982c-0.102,0.58-0.213,1.143-0.35,1.715c-0.401,1.707-0.896,3.388-1.553,4.992
				c-0.273,0.683-0.614,1.306-0.922,1.963c-0.521,1.075-1.084,2.125-1.715,3.149c-0.452,0.734-0.913,1.451-1.417,2.159
				c-0.819,1.118-1.698,2.176-2.645,3.191c-0.691,0.751-1.434,1.434-2.193,2.125c-0.802,0.725-1.638,1.425-2.517,2.082
				c-0.666,0.495-1.331,0.973-2.031,1.425c-0.171,0.102-0.324,0.239-0.495,0.341c3.499,5.043,7.868,9.429,12.902,12.928
				c0.12-0.196,0.273-0.375,0.401-0.572c0.41-0.648,0.862-1.254,1.314-1.877c0.708-0.947,1.459-1.852,2.253-2.731
				c0.572-0.623,1.126-1.254,1.741-1.835c1.109-1.05,2.287-2.014,3.516-2.901c0.674-0.486,1.365-0.93,2.065-1.365
				c1.058-0.657,2.159-1.237,3.285-1.775c0.606-0.29,1.178-0.614,1.801-0.87c1.638-0.666,3.345-1.169,5.077-1.579
				c0.563-0.128,1.126-0.239,1.698-0.341c1.954-0.35,3.951-0.606,5.99-0.606c2.039,0,4.028,0.256,5.99,0.606
				c0.572,0.102,1.135,0.213,1.69,0.341c1.741,0.41,3.447,0.913,5.077,1.579c0.623,0.256,1.203,0.58,1.809,0.87
				c1.126,0.538,2.219,1.118,3.277,1.775c0.708,0.435,1.399,0.879,2.065,1.365c1.237,0.887,2.415,1.852,3.516,2.901
				c0.614,0.58,1.169,1.212,1.741,1.835c0.802,0.879,1.553,1.783,2.253,2.731c0.461,0.623,0.905,1.229,1.323,1.877
				c0.128,0.196,0.273,0.375,0.401,0.572c5.035-3.499,9.404-7.885,12.894-12.928c-0.171-0.102-0.316-0.239-0.486-0.341
				c-0.708-0.452-1.365-0.93-2.031-1.425c-0.879-0.657-1.715-1.357-2.526-2.082c-0.759-0.691-1.493-1.374-2.193-2.125
				c-0.939-1.015-1.826-2.074-2.637-3.191c-0.512-0.708-0.964-1.425-1.425-2.159c-0.623-1.024-1.186-2.074-1.707-3.149
				c-0.316-0.657-0.657-1.28-0.93-1.963c-0.657-1.604-1.152-3.285-1.553-4.992c-0.128-0.572-0.239-1.135-0.341-1.715
				c-0.358-1.954-0.606-3.942-0.606-5.982c0-2.039,0.247-4.028,0.606-5.982C282.311,249.443,282.422,248.871,282.55,248.308z"/>
			<path d="M239.363,199.933c0.367,1.681,1.024,3.243,1.852,4.685c0.145,0.256,0.256,0.529,0.418,0.776
				c0.35,0.555,0.768,1.067,1.178,1.57c0.23,0.273,0.444,0.563,0.683,0.819c0.427,0.469,0.896,0.896,1.374,1.314
				c0.29,0.247,0.572,0.486,0.87,0.717c0.486,0.375,0.998,0.717,1.528,1.033c0.358,0.222,0.734,0.418,1.118,0.606
				c0.503,0.256,1.015,0.503,1.544,0.708c0.512,0.205,1.05,0.35,1.587,0.495c0.444,0.128,0.87,0.273,1.331,0.358
				c1.024,0.196,2.074,0.316,3.157,0.316c1.075,0,2.125-0.128,3.149-0.316c0.469-0.094,0.913-0.239,1.374-0.367
				c0.512-0.145,1.033-0.29,1.528-0.478c0.546-0.213,1.075-0.469,1.604-0.734c0.35-0.179,0.708-0.367,1.05-0.572
				c0.546-0.324,1.075-0.683,1.587-1.075c0.265-0.205,0.521-0.427,0.777-0.648c0.512-0.435,1.007-0.888,1.459-1.382
				c0.213-0.222,0.393-0.469,0.589-0.708c0.444-0.538,0.887-1.084,1.263-1.673c0.12-0.188,0.205-0.393,0.316-0.589
				c0.87-1.485,1.553-3.098,1.937-4.838c0-0.017,0.017-0.034,0.026-0.051c0.256-1.178,0.41-2.381,0.41-3.635
				c0-9.404-7.654-17.067-17.067-17.067c-9.412,0-17.067,7.663-17.067,17.067c0,1.246,0.145,2.441,0.401,3.61
				C239.337,199.899,239.354,199.908,239.363,199.933z"/>
			<path d="M460.461,244.547c-0.034-0.666-0.111-1.34-0.154-2.005c-0.213-3.268-0.495-6.511-0.862-9.728
				c-0.06-0.529-0.128-1.05-0.196-1.579c-0.418-3.473-0.93-6.912-1.519-10.325c-0.06-0.316-0.111-0.623-0.171-0.93
				c-0.657-3.721-1.417-7.398-2.278-11.042c-0.017-0.06-0.026-0.128-0.043-0.188c0-0.009-0.008-0.017-0.008-0.017
				c-5.112-21.564-13.619-41.822-24.96-60.16c-0.009-0.008-0.009-0.017-0.017-0.034c-0.094-0.154-0.205-0.299-0.299-0.452
				c-1.869-3.004-3.823-5.956-5.845-8.858c-0.358-0.512-0.725-1.015-1.084-1.519c-1.92-2.705-3.9-5.359-5.948-7.962
				c-0.307-0.384-0.614-0.776-0.922-1.169c-9.643-12.092-20.608-23.057-32.691-32.7c-0.427-0.341-0.853-0.674-1.28-1.007
				c-2.552-1.997-5.146-3.942-7.791-5.828c-0.563-0.401-1.126-0.802-1.698-1.203c-2.807-1.954-5.658-3.84-8.559-5.658
				c-0.23-0.137-0.452-0.299-0.683-0.444c-0.008-0.008-0.026-0.008-0.043-0.017c-21.581-13.346-45.815-22.767-71.714-27.341
				c-0.102-0.017-0.213-0.043-0.316-0.06c-3.763-0.657-7.561-1.22-11.392-1.672c-0.128-0.017-0.256-0.034-0.393-0.051
				c-7.748-0.888-15.616-1.399-23.595-1.399c-7.987,0-15.855,0.512-23.603,1.399c-0.128,0.017-0.265,0.034-0.393,0.051
				c-3.831,0.452-7.62,1.015-11.383,1.672c-0.111,0.017-0.222,0.043-0.324,0.06c-25.899,4.574-50.133,13.995-71.714,27.341
				c-0.009,0.009-0.026,0.009-0.043,0.017c-0.23,0.145-0.444,0.307-0.674,0.444c-2.91,1.818-5.76,3.703-8.567,5.658
				c-0.572,0.401-1.126,0.802-1.69,1.203c-2.654,1.886-5.248,3.831-7.799,5.828c-0.427,0.333-0.853,0.666-1.271,1.007
				c-12.092,9.643-23.057,20.608-32.7,32.7c-0.307,0.393-0.614,0.785-0.922,1.169c-2.039,2.603-4.028,5.257-5.939,7.962
				c-0.367,0.503-0.734,1.007-1.084,1.519c-2.022,2.901-3.977,5.854-5.854,8.858c-0.094,0.154-0.205,0.299-0.299,0.452
				c0,0.017,0,0.026-0.009,0.034c-11.349,18.338-19.849,38.596-24.969,60.16c0,0-0.009,0.009-0.009,0.017
				c-0.017,0.06-0.026,0.128-0.043,0.188c-0.853,3.644-1.613,7.322-2.278,11.042c-0.051,0.307-0.111,0.614-0.162,0.93
				c-0.597,3.413-1.101,6.852-1.527,10.325c-0.06,0.529-0.137,1.05-0.196,1.579c-0.367,3.217-0.649,6.46-0.862,9.728
				c-0.043,0.666-0.111,1.34-0.154,2.005c-0.205,3.797-0.333,7.612-0.333,11.452c0,3.849,0.128,7.663,0.333,11.452
				c0.043,0.674,0.111,1.34,0.154,2.014c0.213,3.26,0.495,6.502,0.862,9.728c0.06,0.521,0.137,1.041,0.196,1.57
				c0.427,3.473,0.93,6.912,1.527,10.334c0.051,0.307,0.111,0.614,0.162,0.93c0.666,3.712,1.425,7.39,2.278,11.034
				c0.017,0.06,0.026,0.128,0.043,0.188c0,0.009,0.009,0.017,0.009,0.026c5.12,21.555,13.619,41.813,24.969,60.151
				c0.009,0.009,0.009,0.026,0.009,0.034c0.094,0.154,0.205,0.299,0.299,0.452c1.877,3.004,3.831,5.956,5.854,8.858
				c0.35,0.512,0.717,1.015,1.084,1.519c1.911,2.705,3.9,5.359,5.939,7.962c0.307,0.393,0.614,0.785,0.922,1.169
				c9.643,12.092,20.608,23.066,32.7,32.708c0.418,0.333,0.845,0.666,1.271,0.998c2.551,2.005,5.146,3.942,7.799,5.828
				c0.563,0.401,1.118,0.811,1.69,1.203c2.807,1.954,5.658,3.84,8.567,5.658c0.23,0.145,0.444,0.299,0.674,0.444
				c0.017,0.009,0.034,0.009,0.051,0.017c21.547,13.338,45.756,22.75,71.612,27.332c0.171,0.026,0.341,0.06,0.512,0.085
				c3.541,0.623,7.117,1.152,10.718,1.579c0.435,0.06,0.862,0.119,1.297,0.171c3.285,0.367,6.588,0.657,9.916,0.879
				c0.631,0.034,1.254,0.102,1.886,0.137c3.797,0.213,7.62,0.341,11.469,0.341s7.663-0.128,11.46-0.341
				c0.631-0.034,1.254-0.102,1.886-0.137c3.328-0.222,6.639-0.512,9.924-0.879c0.427-0.051,0.862-0.111,1.289-0.171
				c3.601-0.427,7.177-0.956,10.718-1.579c0.171-0.026,0.341-0.06,0.512-0.085c25.865-4.582,50.065-13.995,71.62-27.332
				c0.017-0.009,0.034-0.009,0.043-0.017c0.23-0.145,0.452-0.299,0.683-0.444c2.901-1.818,5.751-3.703,8.559-5.658
				c0.572-0.393,1.135-0.802,1.698-1.203c2.645-1.886,5.239-3.823,7.791-5.828c0.427-0.333,0.853-0.666,1.28-0.998
				c12.083-9.643,23.049-20.617,32.691-32.708c0.307-0.384,0.614-0.776,0.922-1.169c2.048-2.603,4.028-5.257,5.948-7.962
				c0.358-0.503,0.725-1.007,1.084-1.519c2.022-2.901,3.977-5.854,5.845-8.858c0.094-0.154,0.205-0.299,0.299-0.452
				c0.009-0.008,0.009-0.026,0.017-0.034c11.341-18.338,19.849-38.596,24.96-60.151c0-0.009,0.008-0.017,0.008-0.026
				c0.017-0.06,0.026-0.128,0.043-0.188c0.862-3.644,1.621-7.322,2.278-11.034c0.06-0.316,0.111-0.623,0.171-0.93
				c0.589-3.422,1.101-6.861,1.519-10.334c0.068-0.529,0.137-1.05,0.196-1.57c0.367-3.226,0.648-6.468,0.862-9.728
				c0.043-0.674,0.12-1.34,0.154-2.014c0.213-3.789,0.341-7.603,0.341-11.452C460.803,252.159,460.675,248.345,460.461,244.547z
				 M91.565,346.47c-6.622-11.981-11.938-24.764-15.829-38.153l59.853-8.994c1.374,3.84,2.91,7.586,4.599,11.204L91.565,346.47z
				 M135.589,212.675l-59.853-8.986c3.891-13.389,9.207-26.172,15.829-38.153l48.623,35.942
				C138.499,205.089,136.963,208.835,135.589,212.675z M308.303,75.741c13.389,3.891,26.172,9.207,38.153,15.821l-35.934,48.631
				c-3.618-1.698-7.356-3.234-11.196-4.599L308.303,75.741z M203.693,75.741l8.977,59.853c-3.831,1.365-7.578,2.901-11.196,4.599
				l-35.934-48.631C177.521,84.948,190.304,79.632,203.693,75.741z M203.693,436.266c-13.389-3.891-26.172-9.208-38.153-15.829
				l35.934-48.631c3.618,1.707,7.364,3.234,11.196,4.599L203.693,436.266z M308.303,436.266l-8.977-59.861
				c3.84-1.365,7.578-2.893,11.196-4.599l35.934,48.631C334.475,427.058,321.692,432.375,308.303,436.266z M315.736,290.133
				c-0.324,0-0.614-0.085-0.93-0.094c-5.973,10.3-14.473,18.807-24.764,24.789c0.008,0.307,0.094,0.597,0.094,0.904
				c0,18.825-15.317,34.133-34.133,34.133c-18.825,0-34.133-15.309-34.133-34.133c0-0.307,0.077-0.597,0.085-0.904
				c-10.291-5.982-18.782-14.49-24.755-24.789c-0.316,0.009-0.614,0.094-0.93,0.094c-18.825,0-34.133-15.309-34.133-34.133
				s15.309-34.133,34.133-34.133c0.316,0,0.614,0.085,0.93,0.094c5.973-10.3,14.464-18.799,24.755-24.789
				c-0.009-0.307-0.085-0.589-0.085-0.905c0-18.825,15.309-34.133,34.133-34.133c18.816,0,34.133,15.309,34.133,34.133
				c0,0.316-0.085,0.614-0.094,0.922c10.3,5.982,18.799,14.481,24.789,24.772c0.307-0.009,0.589-0.094,0.905-0.094
				c18.816,0,34.133,15.309,34.133,34.133S334.552,290.133,315.736,290.133z M420.431,346.47l-48.623-35.942
				c1.698-3.618,3.226-7.364,4.599-11.204l59.853,8.994C432.37,321.706,427.053,334.489,420.431,346.47z M376.408,212.675
				c-1.374-3.84-2.901-7.586-4.599-11.196l48.623-35.942c6.622,11.981,11.938,24.764,15.829,38.153L376.408,212.675z"/>
			<path d="M315.73,238.938c-1.246,0-2.466,0.154-3.635,0.41c-0.017,0-0.026,0.008-0.034,0.008c-1.621,0.358-3.115,0.99-4.523,1.766
				c-0.316,0.179-0.648,0.324-0.956,0.521c-0.529,0.341-1.016,0.734-1.502,1.126c-0.299,0.247-0.606,0.478-0.879,0.734
				c-0.461,0.418-0.879,0.879-1.28,1.348c-0.256,0.29-0.512,0.589-0.751,0.905c-0.358,0.478-0.7,0.973-1.007,1.493
				c-0.23,0.375-0.435,0.759-0.631,1.143c-0.247,0.503-0.495,1.007-0.7,1.528c-0.196,0.521-0.341,1.058-0.495,1.604
				c-0.119,0.435-0.265,0.87-0.35,1.314c-0.196,1.033-0.324,2.082-0.324,3.166c0,1.075,0.128,2.125,0.324,3.149
				c0.085,0.461,0.23,0.905,0.358,1.357c0.145,0.521,0.29,1.041,0.486,1.544c0.205,0.546,0.461,1.075,0.725,1.596
				c0.188,0.358,0.367,0.708,0.572,1.058c0.333,0.546,0.691,1.075,1.075,1.579c0.205,0.273,0.427,0.529,0.657,0.794
				c0.435,0.503,0.879,0.998,1.374,1.451c0.23,0.205,0.478,0.393,0.717,0.589c0.538,0.444,1.075,0.879,1.664,1.254
				c0.196,0.128,0.41,0.213,0.614,0.333c1.476,0.862,3.081,1.544,4.821,1.929c0.017,0,0.034,0.017,0.051,0.026
				c1.178,0.256,2.381,0.41,3.627,0.41c9.412,0,17.067-7.663,17.067-17.067C332.797,246.592,325.142,238.938,315.73,238.938z"/>
		</g>
	</g>
</g>
<g>
</g>
<g>
</g>
<g>
</g>
<g>
</g>
<g>
</g>
<g>
</g>
<g>
</g>
<g>
</g>
<g>
</g>
<g>
</g>
<g>
</g>
<g>
</g>
<g>
</g>
<g>
</g>
<g>
</g>
</svg>
