<?xml version="1.0" encoding="iso-8859-1"?>
<!-- Generator: Adobe Illustrator 19.0.0, SVG Export Plug-In . SVG Version: 6.00 Build 0)  -->
<svg version="1.1" id="Layer_1" xmlns="http://www.w3.org/2000/svg" xmlns:xlink="http://www.w3.org/1999/xlink" x="0px" y="0px"
	 viewBox="0 0 512 512" style="enable-background:new 0 0 512 512;" xml:space="preserve">
<g transform="translate(0 -1)">
	<g>
		<g>
			<path d="M159.779,172.853l-42.36-42.359c-12.86,14.071-23.569,30.123-31.71,47.599l55.467,22.699
				C146.16,190.653,152.415,181.275,159.779,172.853z"/>
			<path d="M198.815,142.657l-23.177-55.279c-16.922,8.047-32.461,18.543-46.148,31.053l42.359,42.359
				C179.999,153.656,189.044,147.555,198.815,142.657z"/>
			<path d="M370.349,199.82l55.279-23.168c-8.055-16.93-18.551-32.469-31.053-46.157l-42.359,42.359
				C359.35,181.004,365.443,190.049,370.349,199.82z"/>
			<path d="M376.969,215.541c3.593,10.445,5.837,21.478,6.596,32.93h59.947c-0.879-19.627-4.77-38.485-11.255-56.098
				L376.969,215.541z"/>
			<path d="M255.997,214.338c9.412,0,17.067-7.654,17.067-17.067c0-9.412-7.654-17.067-17.067-17.067
				c-9.412,0-17.067,7.654-17.067,17.067C238.931,206.683,246.585,214.338,255.997,214.338z"/>
			<path d="M141.646,314.189l-55.279,23.168c8.055,16.93,18.552,32.469,31.053,46.157l42.36-42.359
				C152.645,333.005,146.552,323.959,141.646,314.189z"/>
			<path d="M313.18,371.352l23.168,55.279c16.93-8.047,32.469-18.543,46.157-31.053l-42.359-42.359
				C331.996,360.352,322.951,366.454,313.18,371.352z"/>
			<path d="M352.216,341.148l42.359,42.368c12.86-14.08,23.569-30.123,31.71-47.607l-55.467-22.69
				C365.835,323.356,359.58,332.734,352.216,341.148z"/>
			<path d="M134.647,216.565l-55.433-22.682c-6.161,17.186-9.873,35.516-10.735,54.588h59.947
				C129.169,237.395,131.26,226.702,134.647,216.565z"/>
			<path d="M171.849,353.219l-42.359,42.359c14.071,12.86,30.114,23.578,47.599,31.71l22.699-55.467
				C189.641,366.838,180.263,360.591,171.849,353.219z"/>
			<path d="M128.429,265.538H68.483c0.879,19.627,4.77,38.485,11.255,56.098l55.287-23.168
				C131.433,288.023,129.189,276.989,128.429,265.538z"/>
			<path d="M196.264,239.938c-9.412,0-17.067,7.654-17.067,17.067c0,9.412,7.654,17.067,17.067,17.067s17.067-7.654,17.067-17.067
				C213.331,247.592,205.676,239.938,196.264,239.938z"/>
			<path d="M340.146,160.79l42.359-42.359c-14.071-12.86-30.114-23.578-47.599-31.71l-22.69,55.467
				C322.354,147.171,331.732,153.417,340.146,160.79z"/>
			<path d="M192.876,433.792c17.186,6.153,35.516,9.873,54.588,10.726v-59.947c-11.076-0.734-21.769-2.833-31.906-6.221
				L192.876,433.792z"/>
			<path d="M366.931,257.004c0-61.167-49.766-110.933-110.933-110.933s-110.933,49.766-110.933,110.933
				s49.766,110.933,110.933,110.933S366.931,318.171,366.931,257.004z M255.997,163.138c18.825,0,34.133,15.309,34.133,34.133
				s-15.309,34.133-34.133,34.133s-34.133-15.309-34.133-34.133S237.173,163.138,255.997,163.138z M196.264,291.138
				c-18.825,0-34.133-15.309-34.133-34.133c0-18.825,15.309-34.133,34.133-34.133s34.133,15.309,34.133,34.133
				C230.397,275.829,215.089,291.138,196.264,291.138z M255.997,350.871c-18.825,0-34.133-15.309-34.133-34.133
				c0-18.825,15.309-34.133,34.133-34.133s34.133,15.309,34.133,34.133C290.131,335.562,274.822,350.871,255.997,350.871z
				 M281.597,257.004c0-18.825,15.309-34.133,34.133-34.133s34.133,15.309,34.133,34.133c0,18.825-15.309,34.133-34.133,34.133
				S281.597,275.829,281.597,257.004z"/>
			<path d="M319.119,80.217c-17.186-6.153-35.516-9.873-54.588-10.726v59.947c11.076,0.734,21.769,2.833,31.906,6.221
				L319.119,80.217z"/>
			<path d="M264.527,384.576v59.947c19.627-0.887,38.485-4.77,56.107-11.255l-23.177-55.287
				C287.013,381.572,275.988,383.808,264.527,384.576z"/>
			<path d="M377.344,297.444l55.441,22.682c6.153-17.186,9.873-35.516,10.726-54.588h-59.947
				C382.831,276.614,380.732,287.306,377.344,297.444z"/>
			<path d="M256,1C114.842,1,0,115.842,0,257s114.842,256,256,256s256-114.842,256-256S397.158,1,256,1z M445.542,334.568
				c-0.034,0.077-0.094,0.136-0.128,0.213c-10.325,25.054-25.464,47.642-44.288,66.569c-0.128,0.145-0.171,0.333-0.316,0.469
				c-0.137,0.145-0.324,0.188-0.469,0.316c-18.568,18.466-40.644,33.408-65.126,43.716c-0.017,0.008-0.026,0.026-0.043,0.026
				c-0.017,0.009-0.043,0.009-0.06,0.017C310.758,456.134,284.032,461.8,256,461.8c-27.366,0-53.47-5.427-77.355-15.215
				c-0.068-0.026-0.145-0.009-0.213-0.043c-0.06-0.026-0.102-0.077-0.154-0.102c-25.079-10.325-47.684-25.464-66.628-44.305
				c-0.145-0.128-0.333-0.171-0.469-0.316c-0.137-0.137-0.188-0.324-0.316-0.469c-18.458-18.569-33.399-40.636-43.708-65.118
				c-0.009-0.017-0.026-0.034-0.034-0.051c-0.008-0.017-0.008-0.043-0.008-0.06C56.866,311.767,51.2,285.041,51.2,257
				c0-27.358,5.436-53.47,15.215-77.355c0.026-0.068,0.009-0.136,0.043-0.205c0.026-0.06,0.077-0.102,0.102-0.162
				c10.325-25.08,25.472-47.676,44.305-66.62c0.128-0.145,0.179-0.333,0.316-0.469c0.137-0.145,0.324-0.188,0.469-0.316
				c18.569-18.466,40.644-33.408,65.135-43.716c0.017-0.009,0.026-0.026,0.034-0.026c0.026-0.008,0.043-0.008,0.06-0.017
				C201.233,57.875,227.968,52.2,256,52.2c27.366,0,53.47,5.436,77.355,15.223c0.068,0.026,0.145,0.009,0.213,0.043
				c0.06,0.017,0.094,0.077,0.154,0.102c25.079,10.325,47.684,25.463,66.62,44.305c0.145,0.128,0.333,0.171,0.469,0.316
				c0.145,0.137,0.188,0.324,0.316,0.469c18.466,18.569,33.408,40.644,43.716,65.135c0.009,0.008,0.026,0.017,0.026,0.034
				c0.009,0.017,0.009,0.043,0.017,0.06C455.125,202.242,460.8,228.968,460.8,257c0,27.366-5.436,53.478-15.224,77.363
				C445.551,334.432,445.568,334.5,445.542,334.568z"/>
			<path d="M247.467,129.433V69.486c-19.627,0.888-38.485,4.77-56.107,11.255l23.177,55.287
				C224.981,132.436,236.006,130.201,247.467,129.433z"/>
			<path d="M315.731,239.938c-9.412,0-17.067,7.654-17.067,17.067c0,9.412,7.654,17.067,17.067,17.067s17.067-7.654,17.067-17.067
				C332.797,247.592,325.143,239.938,315.731,239.938z"/>
			<path d="M255.997,299.671c-9.412,0-17.067,7.654-17.067,17.067c0,9.412,7.654,17.067,17.067,17.067
				c9.412,0,17.067-7.654,17.067-17.067C273.064,307.325,265.41,299.671,255.997,299.671z"/>
		</g>
	</g>
</g>
<g>
</g>
<g>
</g>
<g>
</g>
<g>
</g>
<g>
</g>
<g>
</g>
<g>
</g>
<g>
</g>
<g>
</g>
<g>
</g>
<g>
</g>
<g>
</g>
<g>
</g>
<g>
</g>
<g>
</g>
</svg>
