<?xml version="1.0" encoding="iso-8859-1"?>
<!-- Generator: Adobe Illustrator 19.0.0, SVG Export Plug-In . SVG Version: 6.00 Build 0)  -->
<svg version="1.1" id="Layer_1" xmlns="http://www.w3.org/2000/svg" xmlns:xlink="http://www.w3.org/1999/xlink" x="0px" y="0px"
	 viewBox="0 0 511.999 511.999" style="enable-background:new 0 0 511.999 511.999;" xml:space="preserve">
<g>
	<g>
		<g>
			<path d="M17.067,256c0-63.821,24.858-123.819,69.982-168.951c3.337-3.328,3.337-8.73,0-12.066c-3.328-3.337-8.73-3.337-12.066,0
				C26.633,123.332,0,187.622,0,256s26.633,132.668,74.982,181.018c1.664,1.664,3.849,2.5,6.033,2.5c2.185,0,4.369-0.836,6.033-2.5
				c3.337-3.337,3.337-8.738,0-12.066C41.924,379.818,17.067,319.82,17.067,256z"/>
			<path d="M437.017,74.983c-3.337-3.337-8.73-3.337-12.066,0c-3.336,3.336-3.336,8.73,0,12.066
				C470.083,132.182,494.932,192.18,494.932,256s-24.849,123.819-69.982,168.951c-3.336,3.328-3.336,8.73,0,12.066
				c1.664,1.664,3.849,2.5,6.033,2.5c2.185,0,4.369-0.836,6.033-2.5c48.358-48.35,74.982-112.64,74.982-181.018
				S485.375,123.333,437.017,74.983z"/>
			<path d="M256,349.866c-9.412,0-17.067,7.654-17.067,17.067S246.588,384,256,384s17.067-7.654,17.067-17.067
				S265.412,349.866,256,349.866z"/>
			<path d="M256,290.133c4.702,0,8.533-3.831,8.533-8.533V136.533c0-4.702-3.831-8.533-8.533-8.533
				c-4.702,0-8.533,3.831-8.533,8.533V281.6C247.467,286.301,251.298,290.133,256,290.133z"/>
			<path d="M256,68.266C152.482,68.266,68.267,152.482,68.267,256S152.482,443.733,256,443.733S443.733,359.517,443.733,256
				S359.518,68.266,256,68.266z M230.4,136.533c0-14.114,11.486-25.6,25.6-25.6s25.6,11.486,25.6,25.6V281.6
				c0,14.114-11.486,25.6-25.6,25.6s-25.6-11.486-25.6-25.6V136.533z M256,401.066c-18.825,0-34.133-15.309-34.133-34.133
				S237.175,332.8,256,332.8s34.133,15.309,34.133,34.133S274.825,401.066,256,401.066z"/>
		</g>
	</g>
</g>
<g>
</g>
<g>
</g>
<g>
</g>
<g>
</g>
<g>
</g>
<g>
</g>
<g>
</g>
<g>
</g>
<g>
</g>
<g>
</g>
<g>
</g>
<g>
</g>
<g>
</g>
<g>
</g>
<g>
</g>
</svg>
