<?xml version="1.0" encoding="iso-8859-1"?>
<!-- Generator: Adobe Illustrator 19.0.0, SVG Export Plug-In . SVG Version: 6.00 Build 0)  -->
<svg version="1.1" id="Layer_1" xmlns="http://www.w3.org/2000/svg" xmlns:xlink="http://www.w3.org/1999/xlink" x="0px" y="0px"
	 viewBox="0 0 512.038 512.038" style="enable-background:new 0 0 512.038 512.038;" xml:space="preserve">
<g>
	<g>
		<g>
			<path d="M324.265,153.593c-18.825,0-34.133,15.309-34.133,34.133s15.309,34.133,34.133,34.133
				c18.825,0,34.133-15.309,34.133-34.133S343.09,153.593,324.265,153.593z"/>
			<path d="M439.46,194.566l12.066-12.066L330.822,61.787l-12.075,12.075l-12.049-12.058c-1.596-1.604-3.763-2.5-6.033-2.5
				c-2.27,0-4.437,0.896-6.033,2.5L149.813,206.615c-3.328,3.337-3.328,8.738,0,12.066l8.738,8.747
				c11.802,11.81,31.036,11.819,42.863,0l18.091-18.091c6.844,0.572,13.5,2.065,19.925,4.207L104.237,348.738
				c-12.826-4.403-24.201-4.779-35.678-1.152l-17.792-17.784c-3.336-3.337-8.738-3.337-12.066,0L2.502,366.001
				c-3.337,3.337-3.337,8.738,0,12.066l17.741,17.741c-9.327,27.597-2.381,57.976,18.458,78.805
				c20.881,20.89,51.388,27.827,78.984,18.398l17.826,16.708c1.647,1.545,3.738,2.304,5.837,2.304c2.142,0,4.275-0.794,5.931-2.398
				l36.139-34.918c1.638-1.579,2.577-3.772,2.594-6.059c0.017-2.287-0.879-4.489-2.5-6.101l-17.783-17.784
				c3.618-11.469,3.243-22.827-1.152-35.686l134.955-134.963c2.142,6.366,3.686,12.962,4.378,19.763l-18.014,18.022
				c-11.819,11.819-11.819,31.044,0,42.863l8.738,8.738c1.596,1.604,3.763,2.5,6.033,2.5c2.27,0,4.437-0.896,6.033-2.5
				l144.811-144.819c3.328-3.328,3.328-8.73,0-12.066L439.46,194.566z M123.172,450.472c-8.047,8.064-18.765,12.501-30.165,12.501
				c-11.401,0-22.11-4.437-30.165-12.501c-16.631-16.64-16.631-43.708,0-60.339s43.699-16.631,60.331,0
				S139.804,433.841,123.172,450.472z M258.426,266.963l-80.939,80.93c-1.664,1.664-3.849,2.5-6.033,2.5
				c-2.176,0-4.361-0.836-6.033-2.5c-3.328-3.337-3.328-8.73,0-12.066l80.939-80.93c3.328-3.337,8.73-3.337,12.066,0
				C261.754,258.225,261.754,263.626,258.426,266.963z M300.666,345.401l-2.705-2.705c-5.163-5.171-5.163-13.559,0-18.731
				l20.804-20.804c1.724-1.724,2.637-4.113,2.483-6.545c-0.862-14.464-4.745-28.314-10.906-40.977
				c-0.051-0.119-0.051-0.247-0.111-0.367c-0.751-1.527-1.613-2.995-2.432-4.497c-0.546-0.998-1.05-2.022-1.63-3.012
				c-6.699-11.469-15.334-21.666-25.421-30.123c-0.213-0.179-0.435-0.333-0.649-0.512c-2.236-1.843-4.514-3.61-6.878-5.282
				c-0.879-0.614-1.792-1.178-2.679-1.766c-1.715-1.135-3.422-2.27-5.188-3.302c-1.399-0.828-2.825-1.562-4.258-2.33
				c-0.947-0.503-1.86-1.067-2.833-1.545c-0.137-0.068-0.282-0.077-0.418-0.136c-12.791-6.272-26.769-10.129-41.31-10.709
				c-0.119-0.009-0.23-0.009-0.341-0.009c-2.261,0-4.437,0.905-6.033,2.5l-20.813,20.813c-5.163,5.146-13.568,5.146-18.731,0
				l-2.705-2.714L300.666,79.904l12.049,12.058l108.646,108.638l12.049,12.049L300.666,345.401z"/>
			<path d="M506.561,116.96c-0.23-0.299-0.478-0.58-0.742-0.853L397.207,7.503c-9.984-9.984-26.249-9.984-36.233,0l-12.049,12.049
				c-3.337,3.337-3.337,8.73,0,12.066l6.033,6.033l-12.075,12.075l120.704,120.713l12.075-12.075l6.033,6.033
				c3.337,3.328,8.738,3.328,12.066,0l12.058-12.049c0.299-0.307,0.58-0.631,0.828-0.973
				C513.866,141.595,513.832,126.474,506.561,116.96z M493.215,140.81l-5.487,5.487l-6.033-6.033L373.057,31.618l-6.033-6.033
				l6.016-6.016c3.337-3.336,8.764-3.336,12.1,0l108.134,108.134C495.613,131.185,495.579,137.141,493.215,140.81z"/>
			<path d="M93.007,394.71c-6.844,0-13.269,2.662-18.099,7.492c-9.984,9.984-9.984,26.223,0,36.207
				c9.668,9.668,26.53,9.668,36.198,0c9.984-9.984,9.984-26.223,0-36.207C106.276,397.373,99.851,394.71,93.007,394.71z"/>
		</g>
	</g>
</g>
<g>
</g>
<g>
</g>
<g>
</g>
<g>
</g>
<g>
</g>
<g>
</g>
<g>
</g>
<g>
</g>
<g>
</g>
<g>
</g>
<g>
</g>
<g>
</g>
<g>
</g>
<g>
</g>
<g>
</g>
</svg>
