<?xml version="1.0" encoding="iso-8859-1"?>
<!-- Generator: Adobe Illustrator 19.0.0, SVG Export Plug-In . SVG Version: 6.00 Build 0)  -->
<svg version="1.1" id="Layer_1" xmlns="http://www.w3.org/2000/svg" xmlns:xlink="http://www.w3.org/1999/xlink" x="0px" y="0px"
	 viewBox="0 0 512 512" style="enable-background:new 0 0 512 512;" xml:space="preserve">
<g>
	<g>
		<path d="M472.055,196.353c-7.33-0.461-14.199-1.997-20.54-4.335l49.451-49.451c3.336-3.337,3.336-8.73,0-12.066
			c-3.337-3.336-8.73-3.336-12.066,0l-53.111,53.112c-5.632-4.233-10.419-9.395-14.071-15.42l-2.33-3.831
			c-13.602-22.426-38.349-36.361-64.572-36.361H243.422c-21.555,0-42.138,9.242-56.457,25.353l-11.793,13.261
			c-22.144,24.926-52.574,40.926-85.666,45.065l-52.13,6.519C16.068,220.852,0,239.062,0,260.532v38.135
			c0,23.526,19.14,42.667,42.667,42.667h34.901c4.087,24.175,25.114,42.667,50.432,42.667s46.345-18.492,50.432-42.667h172.203
			c4.087,24.175,25.114,42.667,50.432,42.667c25.318,0,46.345-18.492,50.432-42.667h17.835c23.526,0,42.667-19.14,42.667-42.667
			v-59.733C512,216.475,494.456,197.77,472.055,196.353z M128,366.934c-18.825,0-34.133-15.309-34.133-34.133
			s15.309-34.133,34.133-34.133s34.133,15.309,34.133,34.133S146.825,366.934,128,366.934z M401.067,366.934
			c-18.825,0-34.133-15.309-34.133-34.133s15.309-34.133,34.133-34.133c18.825,0,34.133,15.309,34.133,34.133
			S419.891,366.934,401.067,366.934z"/>
	</g>
</g>
<g>
</g>
<g>
</g>
<g>
</g>
<g>
</g>
<g>
</g>
<g>
</g>
<g>
</g>
<g>
</g>
<g>
</g>
<g>
</g>
<g>
</g>
<g>
</g>
<g>
</g>
<g>
</g>
<g>
</g>
</svg>
