<?xml version="1.0" encoding="iso-8859-1"?>
<!-- Generator: Adobe Illustrator 19.0.0, SVG Export Plug-In . SVG Version: 6.00 Build 0)  -->
<svg version="1.1" id="Layer_1" xmlns="http://www.w3.org/2000/svg" xmlns:xlink="http://www.w3.org/1999/xlink" x="0px" y="0px"
	 viewBox="0 0 512 512" style="enable-background:new 0 0 512 512;" xml:space="preserve">
<g>
	<g>
		<g>
			<polygon points="321.962,255.995 360.806,255.995 341.384,221.998 			"/>
			<path d="M505.792,129.519l-88.909-25.182c-104.687-25.353-215.936-25.353-322.082,0.085L6.208,129.519
				c-4.233,1.195-6.861,5.419-6.067,9.745l51.2,280.397c0.452,2.466,1.954,4.608,4.122,5.854c1.314,0.76,2.79,1.152,4.275,1.152
				c0.956,0,1.92-0.162,2.85-0.495c39.834-14.123,80.785-23.765,122.052-28.971c-3.883-18.313-12.305-38.664-29.022-58.982
				c-20.83-25.318-25.95-51.755-27.17-65.152h-26.001c-3.038,0-5.845-1.621-7.381-4.25c-1.527-2.628-1.536-5.879-0.026-8.516
				l34.133-59.733c3.038-5.316,11.785-5.316,14.822,0l34.133,59.733c1.502,2.637,1.493,5.888-0.026,8.516
				c-1.536,2.628-4.343,4.25-7.39,4.25h-25.088c1.306,11.529,6.05,33.502,23.177,54.315c19.26,23.407,28.911,46.874,33.161,67.968
				c28.092-2.688,56.26-3.345,84.292-1.92c-4.224-17.306-12.681-36.292-28.245-55.211c-20.83-25.318-25.95-51.755-27.17-65.152
				h-25.993c-3.038,0-5.845-1.621-7.381-4.25c-1.527-2.628-1.536-5.879-0.026-8.516l34.133-59.733
				c3.038-5.316,11.784-5.316,14.822,0l34.133,59.733c1.502,2.637,1.493,5.888-0.026,8.516c-1.536,2.628-4.343,4.25-7.39,4.25
				h-25.097c1.306,11.529,6.05,33.502,23.177,54.315c19.029,23.134,28.663,46.302,32.99,67.2
				c29.389,2.423,58.522,7.219,87.168,14.191c-2.483-21.052-10.598-45.833-30.942-70.554c-20.83-25.318-25.95-51.755-27.17-65.152
				h-25.992c-3.038,0-5.845-1.621-7.381-4.25c-1.527-2.628-1.536-5.879-0.026-8.516l34.133-59.733
				c3.038-5.316,11.785-5.316,14.822,0l34.133,59.733c1.502,2.637,1.493,5.888-0.026,8.516c-1.536,2.628-4.343,4.25-7.39,4.25
				h-25.097c1.306,11.529,6.05,33.502,23.177,54.315c24.977,30.353,33.792,60.783,35.61,86.025
				c13.517,3.772,26.931,7.945,40.158,12.749c2.355,0.845,4.975,0.623,7.159-0.623c2.167-1.254,3.686-3.396,4.139-5.871
				l51.2-280.397C512.653,134.938,510.025,130.714,505.792,129.519z"/>
			<polygon points="117.162,255.995 156.006,255.995 136.584,221.998 			"/>
			<polygon points="219.562,255.995 258.406,255.995 238.984,221.998 			"/>
		</g>
	</g>
</g>
<g>
</g>
<g>
</g>
<g>
</g>
<g>
</g>
<g>
</g>
<g>
</g>
<g>
</g>
<g>
</g>
<g>
</g>
<g>
</g>
<g>
</g>
<g>
</g>
<g>
</g>
<g>
</g>
<g>
</g>
</svg>
