<?xml version="1.0" encoding="iso-8859-1"?>
<!-- Generator: Adobe Illustrator 19.0.0, SVG Export Plug-In . SVG Version: 6.00 Build 0)  -->
<svg version="1.1" id="Layer_1" xmlns="http://www.w3.org/2000/svg" xmlns:xlink="http://www.w3.org/1999/xlink" x="0px" y="0px"
	 viewBox="0 0 512 512" style="enable-background:new 0 0 512 512;" xml:space="preserve">
<g>
	<g>
		<g>
			<path d="M247.468,191.99v102.409c0,23.526,19.14,42.667,42.667,42.667c23.526,0,42.667-19.14,42.667-42.667V191.99
				c21.461-16.102,34.133-41.276,34.133-68.258c0-32.29-18.159-61.372-47.403-75.904c-2.645-1.314-5.777-1.169-8.294,0.384
				c-2.509,1.562-4.036,4.301-4.036,7.253v68.267h-34.133V55.465c0-2.953-1.527-5.692-4.036-7.253
				c-2.517-1.553-5.658-1.707-8.294-0.384c-29.244,14.532-47.403,43.614-47.403,75.904
				C213.335,150.714,226.007,175.888,247.468,191.99z"/>
			<path d="M472.055,277.42c-21.973-1.382-40.32-11.648-50.338-28.16l-2.321-3.831c-12.962-21.359-35.593-34.918-60.544-36.25
				c-4.668-0.205-8.721,3.354-8.969,8.064c-0.256,4.71,3.354,8.73,8.064,8.977c19.311,1.033,36.821,11.52,46.857,28.058l2.321,3.831
				c12.954,21.359,36.232,34.603,63.855,36.344c13.431,0.853,23.953,12.075,23.953,25.549v59.733c0,14.123-11.486,25.6-25.6,25.6
				h-17.775c-0.034-0.179-0.111-0.35-0.145-0.529c-0.469-2.628-1.143-5.171-1.997-7.646c-0.154-0.418-0.307-0.836-0.461-1.254
				c-0.93-2.458-2.014-4.838-3.294-7.108c-0.171-0.299-0.358-0.589-0.538-0.887c-1.391-2.338-2.91-4.591-4.634-6.673
				c-0.034-0.034-0.068-0.068-0.102-0.102c-1.732-2.082-3.652-3.994-5.692-5.777c-0.222-0.196-0.418-0.393-0.64-0.58
				c-1.988-1.681-4.13-3.183-6.357-4.557c-0.375-0.222-0.734-0.452-1.109-0.666c-2.227-1.289-4.548-2.406-6.963-3.354
				c-0.427-0.162-0.845-0.307-1.271-0.461c-2.483-0.896-5.035-1.63-7.671-2.133c-0.341-0.068-0.683-0.102-1.024-0.154
				c-2.799-0.478-5.658-0.785-8.593-0.785c-2.935,0-5.794,0.307-8.593,0.785c-0.341,0.051-0.683,0.085-1.016,0.154
				c-2.645,0.503-5.197,1.237-7.68,2.133c-0.427,0.154-0.845,0.299-1.263,0.461c-2.424,0.947-4.745,2.065-6.972,3.354
				c-0.375,0.213-0.734,0.444-1.109,0.666c-2.227,1.374-4.361,2.876-6.357,4.557c-0.213,0.188-0.418,0.384-0.632,0.58
				c-2.039,1.783-3.968,3.695-5.7,5.777c-0.026,0.034-0.068,0.068-0.094,0.102c-1.732,2.082-3.251,4.335-4.634,6.673
				c-0.179,0.299-0.375,0.589-0.546,0.887c-1.28,2.27-2.364,4.651-3.285,7.108c-0.162,0.418-0.316,0.836-0.461,1.254
				c-0.862,2.475-1.536,5.018-2.005,7.646c-0.034,0.179-0.111,0.35-0.137,0.529H178.492c-0.034-0.179-0.111-0.35-0.145-0.529
				c-0.469-2.628-1.143-5.171-1.997-7.646c-0.154-0.418-0.307-0.836-0.461-1.254c-0.93-2.458-2.014-4.838-3.294-7.108
				c-0.171-0.299-0.358-0.589-0.538-0.887c-1.391-2.338-2.91-4.591-4.634-6.673c-0.034-0.034-0.068-0.068-0.102-0.102
				c-1.732-2.082-3.652-3.994-5.692-5.777c-0.222-0.196-0.418-0.393-0.64-0.58c-1.988-1.681-4.13-3.183-6.357-4.557
				c-0.375-0.222-0.734-0.452-1.109-0.666c-2.227-1.289-4.548-2.406-6.963-3.354c-0.427-0.162-0.845-0.307-1.271-0.461
				c-2.483-0.896-5.035-1.63-7.671-2.133c-0.341-0.068-0.683-0.102-1.024-0.154c-2.799-0.478-5.658-0.785-8.593-0.785
				s-5.794,0.307-8.593,0.785c-0.341,0.051-0.683,0.085-1.015,0.154c-2.645,0.503-5.197,1.237-7.68,2.133
				c-0.427,0.154-0.845,0.299-1.263,0.461c-2.423,0.947-4.745,2.065-6.972,3.354c-0.375,0.213-0.734,0.444-1.109,0.666
				c-2.227,1.374-4.361,2.876-6.357,4.557c-0.213,0.188-0.418,0.384-0.631,0.58c-2.039,1.783-3.968,3.695-5.7,5.777
				c-0.026,0.034-0.068,0.068-0.094,0.102c-1.732,2.082-3.251,4.335-4.634,6.673c-0.179,0.299-0.375,0.589-0.546,0.887
				c-1.28,2.27-2.364,4.651-3.285,7.108c-0.162,0.418-0.316,0.836-0.461,1.254c-0.862,2.475-1.536,5.018-2.005,7.646
				c-0.034,0.179-0.111,0.35-0.137,0.529h-34.85c-14.114,0-25.6-11.477-25.6-25.6v-38.135c0-12.885,9.643-23.808,22.426-25.404
				l52.13-6.511c37.205-4.651,71.407-22.647,96.316-50.662l11.785-13.261c6.886-7.748,15.932-17.033,24.892-20.079
				c4.463-1.519,6.852-6.366,5.333-10.829c-1.519-4.463-6.366-6.852-10.829-5.333c-12.664,4.309-23.356,15.01-32.154,24.9
				l-11.793,13.261c-22.144,24.926-52.574,40.934-85.666,45.064l-52.13,6.519C16.068,301.928,0,320.129,0,341.599v38.135
				c0,23.526,19.14,42.667,42.667,42.667h34.901c4.087,24.175,25.114,42.667,50.432,42.667s46.345-18.492,50.432-42.667h172.203
				c4.087,24.175,25.114,42.667,50.432,42.667c25.318,0,46.345-18.492,50.432-42.667h17.835c23.526,0,42.667-19.14,42.667-42.667
				v-59.733C512,297.541,494.456,278.836,472.055,277.42z"/>
		</g>
	</g>
</g>
<g>
</g>
<g>
</g>
<g>
</g>
<g>
</g>
<g>
</g>
<g>
</g>
<g>
</g>
<g>
</g>
<g>
</g>
<g>
</g>
<g>
</g>
<g>
</g>
<g>
</g>
<g>
</g>
<g>
</g>
</svg>
