<?xml version="1.0" encoding="iso-8859-1"?>
<!-- Generator: Adobe Illustrator 19.0.0, SVG Export Plug-In . SVG Version: 6.00 Build 0)  -->
<svg version="1.1" id="Layer_1" xmlns="http://www.w3.org/2000/svg" xmlns:xlink="http://www.w3.org/1999/xlink" x="0px" y="0px"
	 viewBox="0 0 512 512" style="enable-background:new 0 0 512 512;" xml:space="preserve">
<g>
	<g>
		<g>
			<path d="M384,204.8c0-4.719-3.823-8.533-8.533-8.533c-4.71,0-8.533,3.814-8.533,8.533c0,89.404-72.73,162.133-162.133,162.133
				c-4.71,0-8.533,3.814-8.533,8.533S200.09,384,204.8,384C303.616,384,384,303.607,384,204.8z"/>
			<path d="M204.8,324.267c-4.71,0-8.533,3.814-8.533,8.533c0,4.719,3.823,8.533,8.533,8.533
				c75.281,0,136.533-61.252,136.533-136.533c0-4.719-3.823-8.533-8.533-8.533c-4.71,0-8.533,3.814-8.533,8.533
				C324.267,270.677,270.677,324.267,204.8,324.267z"/>
			<path d="M204.8,281.6c-4.71,0-8.533,3.814-8.533,8.533s3.823,8.533,8.533,8.533c51.755,0,93.867-42.112,93.867-93.867
				c0-4.719-3.823-8.533-8.533-8.533s-8.533,3.814-8.533,8.533C281.6,247.151,247.142,281.6,204.8,281.6z"/>
			<path d="M503.467,494.933h-10.999l-66.278-190.532c-1.186-3.43-4.42-5.734-8.055-5.734s-6.869,2.304-8.055,5.734l-66.278,190.532
				h-11c-4.71,0-8.533,3.814-8.533,8.533c0,4.719,3.823,8.533,8.533,8.533h17.067H486.4h17.067c4.719,0,8.533-3.814,8.533-8.533
				C512,498.748,508.186,494.933,503.467,494.933z"/>
			<path d="M273.067,136.533C273.067,61.252,211.814,0,136.533,0h-128C3.823,0,0,3.814,0,8.533v494.933
				C0,508.186,3.823,512,8.533,512h51.2c4.71,0,8.533-3.814,8.533-8.533v-230.4h68.267
				C211.814,273.067,273.067,211.814,273.067,136.533z M136.533,221.867h-76.8c-4.71,0-8.533-3.814-8.533-8.533v-153.6
				c0-4.719,3.823-8.533,8.533-8.533h76.8c47.053,0,85.333,38.281,85.333,85.333S183.586,221.867,136.533,221.867z"/>
		</g>
	</g>
</g>
<g>
</g>
<g>
</g>
<g>
</g>
<g>
</g>
<g>
</g>
<g>
</g>
<g>
</g>
<g>
</g>
<g>
</g>
<g>
</g>
<g>
</g>
<g>
</g>
<g>
</g>
<g>
</g>
<g>
</g>
</svg>
