<?xml version="1.0" encoding="iso-8859-1"?>
<!-- Generator: Adobe Illustrator 19.0.0, SVG Export Plug-In . SVG Version: 6.00 Build 0)  -->
<svg version="1.1" id="Layer_1" xmlns="http://www.w3.org/2000/svg" xmlns:xlink="http://www.w3.org/1999/xlink" x="0px" y="0px"
	 viewBox="0 0 502.184 502.184" style="enable-background:new 0 0 502.184 502.184;" xml:space="preserve">
<g>
	<g>
		<g>
			<path d="M416.106,52.696c11.861,10.453,20.872,23.945,26.061,39.006c1.22,3.533,4.523,5.751,8.064,5.751
				c0.93,0,1.86-0.154,2.782-0.469c4.454-1.536,6.818-6.391,5.291-10.846c-6.153-17.835-16.836-33.826-30.891-46.242
				c-3.533-3.115-8.909-2.782-12.058,0.751C412.24,44.179,412.573,49.572,416.106,52.696z"/>
			<path d="M345.667,29.551c13.116-1.092,26.667,0.597,39.151,5.026c0.939,0.333,1.911,0.486,2.85,0.486
				c3.516,0,6.81-2.176,8.038-5.683c1.579-4.437-0.751-9.31-5.188-10.889c-14.771-5.222-30.746-7.245-46.268-5.956
				c-4.693,0.393-8.183,4.514-7.799,9.216C336.843,26.437,340.88,29.876,345.667,29.551z"/>
			<path d="M271.475,61.184c1.621,1.459,3.661,2.176,5.692,2.176c2.338,0,4.676-0.956,6.357-2.842
				c8.951-10.001,20.156-18.116,32.401-23.475c4.318-1.886,6.289-6.921,4.403-11.23c-1.886-4.318-6.929-6.298-11.238-4.403
				c-14.473,6.323-27.708,15.915-38.281,27.725C267.669,52.642,267.968,58.043,271.475,61.184z"/>
			<path d="M234.05,83.985c5.649,12.305,8.508,25.463,8.508,39.108c0,4.719,3.814,8.533,8.533,8.533s8.533-3.814,8.533-8.533
				c0-13.645,2.859-26.803,8.508-39.108c1.971-4.284,0.085-9.353-4.198-11.315c-4.284-1.963-9.344-0.077-11.315,4.198
				c-0.58,1.263-0.998,2.577-1.527,3.857c-0.529-1.28-0.947-2.594-1.527-3.857c-1.963-4.275-7.006-6.161-11.315-4.198
				C233.965,74.632,232.087,79.701,234.05,83.985z"/>
			<path d="M49.167,97.026c0.913,0.316,1.86,0.469,2.773,0.469c3.541,0,6.852-2.219,8.073-5.76
				c5.188-15.078,14.2-28.578,26.061-39.04c3.533-3.132,3.866-8.516,0.751-12.049c-3.123-3.533-8.508-3.866-12.049-0.751
				C60.712,52.32,50.02,68.32,43.876,86.18C42.34,90.635,44.712,95.49,49.167,97.026z"/>
			<path d="M114.517,35.068c0.939,0,1.911-0.162,2.85-0.495c12.493-4.42,26.061-6.118,39.151-5.018
				c4.745,0.333,8.823-3.123,9.216-7.808c0.384-4.693-3.106-8.823-7.799-9.216c-15.531-1.28-31.505,0.725-46.268,5.965
				c-4.437,1.57-6.767,6.443-5.188,10.889C107.716,32.884,111.001,35.068,114.517,35.068z"/>
			<path d="M186.258,37.043c12.245,5.359,23.45,13.474,32.401,23.475c1.681,1.886,4.019,2.842,6.357,2.842
				c2.022,0,4.07-0.717,5.692-2.176c3.507-3.14,3.806-8.542,0.666-12.049c-10.573-11.81-23.808-21.402-38.281-27.725
				c-4.309-1.911-9.361,0.077-11.238,4.403C179.969,30.122,181.94,35.157,186.258,37.043z"/>
			<path d="M472.318,192.332l-60.39-16.657c-49.707-11.716-100.89-17.792-152.303-18.372v51.123c0,4.719-3.814,8.533-8.533,8.533
				s-8.533-3.814-8.533-8.533v-51.115c-51.191,0.657-102.477,6.75-152.61,18.449l-60.092,16.572
				C9.633,197.922-3.184,218.444,0.69,239.07l45.756,244.002c0.452,2.449,1.963,4.582,4.13,5.82c1.306,0.751,2.773,1.135,4.25,1.135
				c0.964,0,1.946-0.171,2.867-0.503c124.553-44.467,261.905-44.476,386.807,0.009c2.338,0.828,4.941,0.606,7.108-0.64
				c2.167-1.237,3.678-3.371,4.13-5.82l45.756-244.002C505.368,218.444,492.551,197.922,472.318,192.332z M259.625,362.026
				c0,4.719-3.814,8.533-8.533,8.533s-8.533-3.814-8.533-8.533V344.96c0-4.719,3.814-8.533,8.533-8.533s8.533,3.814,8.533,8.533
				V362.026z M259.625,310.826c0,4.719-3.814,8.533-8.533,8.533s-8.533-3.814-8.533-8.533V293.76c0-4.719,3.814-8.533,8.533-8.533
				s8.533,3.814,8.533,8.533V310.826z M259.625,259.626c0,4.719-3.814,8.533-8.533,8.533s-8.533-3.814-8.533-8.533V242.56
				c0-4.719,3.814-8.533,8.533-8.533s8.533,3.814,8.533,8.533V259.626z"/>
		</g>
	</g>
</g>
<g>
</g>
<g>
</g>
<g>
</g>
<g>
</g>
<g>
</g>
<g>
</g>
<g>
</g>
<g>
</g>
<g>
</g>
<g>
</g>
<g>
</g>
<g>
</g>
<g>
</g>
<g>
</g>
<g>
</g>
</svg>
