<?xml version="1.0" encoding="iso-8859-1"?>
<!-- Generator: Adobe Illustrator 19.0.0, SVG Export Plug-In . SVG Version: 6.00 Build 0)  -->
<svg version="1.1" id="Layer_1" xmlns="http://www.w3.org/2000/svg" xmlns:xlink="http://www.w3.org/1999/xlink" x="0px" y="0px"
	 viewBox="0 0 512.004 512.004" style="enable-background:new 0 0 512.004 512.004;" xml:space="preserve">
<g>
	<g>
		<g>
			<polygon points="125.137,426.478 386.871,426.478 256.004,180.129 			"/>
			<path d="M511.102,499.465L263.635,4.531c-2.901-5.786-12.365-5.786-15.266,0L0.902,499.465c-1.323,2.645-1.186,5.786,0.375,8.303
				c1.562,2.509,4.301,4.045,7.262,4.045h494.933c2.953,0,5.7-1.536,7.253-4.045C512.288,505.25,512.425,502.11,511.102,499.465z
				 M408.386,439.407c-1.553,2.569-4.326,4.139-7.313,4.139H110.94c-2.995,0-5.769-1.57-7.322-4.139
				c-1.545-2.568-1.621-5.751-0.213-8.397l145.067-273.067c2.944-5.581,12.117-5.581,15.061,0L408.599,431.01
				C410.008,433.655,409.931,436.838,408.386,439.407z"/>
		</g>
	</g>
</g>
<g>
</g>
<g>
</g>
<g>
</g>
<g>
</g>
<g>
</g>
<g>
</g>
<g>
</g>
<g>
</g>
<g>
</g>
<g>
</g>
<g>
</g>
<g>
</g>
<g>
</g>
<g>
</g>
<g>
</g>
</svg>
