<?xml version="1.0" encoding="iso-8859-1"?>
<!-- Generator: Adobe Illustrator 19.0.0, SVG Export Plug-In . SVG Version: 6.00 Build 0)  -->
<svg version="1.1" id="Layer_1" xmlns="http://www.w3.org/2000/svg" xmlns:xlink="http://www.w3.org/1999/xlink" x="0px" y="0px"
	 viewBox="0 0 512 512" style="enable-background:new 0 0 512 512;" xml:space="preserve">
<g>
	<g>
		<g>
			<path d="M503.467,285.868h-59.733v-42.667c0-4.719-3.814-8.533-8.533-8.533H76.8c-4.719,0-8.533,3.814-8.533,8.533v42.667H8.533
				c-4.719,0-8.533,3.814-8.533,8.533v68.267c0,4.719,3.814,8.533,8.533,8.533h59.733v42.667c0,4.719,3.814,8.533,8.533,8.533h358.4
				c4.719,0,8.533-3.814,8.533-8.533v-42.667h59.733c4.719,0,8.533-3.814,8.533-8.533v-68.267
				C512,289.683,508.186,285.868,503.467,285.868z"/>
			<path d="M350.183,151.86c0.085,0.273,0.179,0.538,0.299,0.811c0.649,1.527,1.476,3.226,2.364,5.052
				c2.603,5.291,5.555,11.281,5.555,17.212c0,11.716-10.658,24.405-14.396,27.93c-3.422,3.226-3.584,8.627-0.35,12.066
				c1.681,1.775,3.942,2.671,6.212,2.671c2.099,0,4.207-0.768,5.854-2.321c0.802-0.759,19.746-18.867,19.746-40.346
				c0-9.899-4.215-18.475-7.305-24.738c-0.58-1.203-1.135-2.33-1.613-3.371c-0.085-0.273-0.188-0.538-0.299-0.811
				c-0.631-1.493-1.434-3.157-2.313-4.941c-2.594-5.325-5.538-11.358-5.538-17.34c0-5.973,2.944-11.998,5.53-17.314
				c0.879-1.783,1.69-3.447,2.321-4.949c1.852-4.335-0.179-9.344-4.514-11.187c-4.309-1.852-9.344,0.179-11.187,4.514
				c-0.546,1.254-1.22,2.637-1.954,4.13c-3.063,6.281-7.262,14.882-7.262,24.806s4.198,18.543,7.27,24.823
				C349.176,149.735,349.714,150.836,350.183,151.86z"/>
			<path d="M250.138,202.864c-3.422,3.226-3.584,8.627-0.35,12.066c1.681,1.775,3.942,2.671,6.212,2.671
				c2.099,0,4.207-0.768,5.854-2.321c0.802-0.759,19.746-18.867,19.746-40.346c0-9.899-4.215-18.475-7.305-24.738
				c-0.58-1.203-1.135-2.33-1.613-3.371c-0.085-0.273-0.188-0.538-0.299-0.811c-0.631-1.493-1.434-3.157-2.313-4.941
				c-2.594-5.325-5.538-11.358-5.538-17.34c0-5.973,2.944-11.998,5.53-17.314c0.879-1.783,1.69-3.447,2.321-4.949
				c1.852-4.335-0.179-9.344-4.514-11.187c-4.301-1.852-9.353,0.179-11.187,4.514c-0.546,1.254-1.22,2.637-1.954,4.13
				c-3.063,6.281-7.262,14.882-7.262,24.806s4.198,18.543,7.27,24.823c0.572,1.178,1.109,2.278,1.579,3.302
				c0.085,0.273,0.179,0.538,0.299,0.811c0.649,1.527,1.476,3.226,2.364,5.052c2.603,5.291,5.555,11.281,5.555,17.212
				C264.534,186.651,253.876,199.34,250.138,202.864z"/>
			<path d="M156.272,202.864c-3.422,3.226-3.584,8.627-0.35,12.066c1.681,1.775,3.942,2.671,6.212,2.671
				c2.099,0,4.207-0.768,5.854-2.321c0.802-0.759,19.746-18.867,19.746-40.346c0-9.899-4.215-18.475-7.305-24.738
				c-0.58-1.203-1.135-2.33-1.613-3.371c-0.085-0.273-0.188-0.538-0.299-0.811c-0.631-1.493-1.434-3.157-2.313-4.941
				c-2.594-5.325-5.538-11.358-5.538-17.34c0-5.973,2.944-11.998,5.53-17.314c0.879-1.783,1.69-3.447,2.321-4.949
				c1.852-4.335-0.179-9.344-4.514-11.187c-4.292-1.852-9.352,0.179-11.187,4.514c-0.546,1.254-1.22,2.637-1.954,4.13
				c-3.063,6.281-7.262,14.882-7.262,24.806s4.198,18.543,7.27,24.823c0.572,1.178,1.109,2.278,1.579,3.302
				c0.085,0.273,0.179,0.538,0.299,0.811c0.648,1.527,1.476,3.226,2.364,5.052c2.603,5.291,5.555,11.281,5.555,17.212
				C170.668,186.651,160.009,199.34,156.272,202.864z"/>
		</g>
	</g>
</g>
<g>
</g>
<g>
</g>
<g>
</g>
<g>
</g>
<g>
</g>
<g>
</g>
<g>
</g>
<g>
</g>
<g>
</g>
<g>
</g>
<g>
</g>
<g>
</g>
<g>
</g>
<g>
</g>
<g>
</g>
</svg>
