<?xml version="1.0" encoding="iso-8859-1"?>
<!-- Generator: Adobe Illustrator 19.0.0, SVG Export Plug-In . SVG Version: 6.00 Build 0)  -->
<svg version="1.1" id="Layer_1" xmlns="http://www.w3.org/2000/svg" xmlns:xlink="http://www.w3.org/1999/xlink" x="0px" y="0px"
	 viewBox="0 0 512 512" style="enable-background:new 0 0 512 512;" xml:space="preserve">
<g>
	<g>
		<g>
			<path d="M256,0C114.842,0,0,114.842,0,256s114.842,256,256,256s256-114.842,256-256S397.158,0,256,0z M256,494.933
				C124.254,494.933,17.067,387.746,17.067,256S124.254,17.067,256,17.067S494.933,124.254,494.933,256S387.746,494.933,256,494.933
				z"/>
			<path d="M460.364,243.218c-0.026-0.375-0.06-0.751-0.085-1.126c-1.843-27.29-9.028-53.129-20.565-76.476
				c-0.188-0.393-0.401-0.776-0.597-1.161c-1.724-3.447-3.558-6.827-5.47-10.155c-0.265-0.469-0.538-0.939-0.811-1.408
				c-4.395-7.509-9.242-14.711-14.524-21.572c-0.034-0.043-0.06-0.085-0.085-0.119c-0.008-0.009-0.017-0.017-0.026-0.026
				c-10.411-13.491-22.468-25.643-35.857-36.181c-0.009-0.008-0.017-0.017-0.026-0.026c-0.06-0.043-0.111-0.077-0.171-0.128
				c-6.946-5.453-14.242-10.479-21.871-15.01c-0.137-0.077-0.265-0.145-0.401-0.222c-3.379-2.005-6.827-3.891-10.325-5.7
				c-0.674-0.35-1.348-0.7-2.031-1.041c-3.533-1.775-7.117-3.473-10.769-5.043c-0.12-0.051-0.23-0.111-0.35-0.162
				c-0.009-0.009-0.017-0.009-0.026-0.009c-20.634-8.841-43.017-14.345-66.458-15.923c-0.341-0.026-0.691-0.06-1.041-0.085
				c-4.258-0.265-8.55-0.444-12.877-0.444s-8.619,0.179-12.877,0.444c-0.35,0.026-0.7,0.06-1.041,0.085
				c-27.29,1.835-53.12,9.028-76.467,20.557c-0.401,0.196-0.802,0.41-1.203,0.614c-3.413,1.715-6.758,3.524-10.061,5.419
				c-0.512,0.29-1.024,0.58-1.527,0.879c-7.484,4.386-14.669,9.225-21.504,14.49c-0.043,0.034-0.077,0.06-0.119,0.085
				c-0.009,0.008-0.017,0.017-0.026,0.026c-13.491,10.411-25.643,22.468-36.181,35.857c-0.008,0.009-0.017,0.017-0.026,0.026
				c-0.043,0.06-0.077,0.111-0.119,0.171c-5.453,6.946-10.479,14.242-15.019,21.871c-0.077,0.137-0.145,0.265-0.222,0.401
				c-1.997,3.379-3.891,6.827-5.7,10.325c-0.35,0.674-0.7,1.348-1.033,2.031c-1.783,3.533-3.482,7.117-5.052,10.769
				c-0.051,0.119-0.111,0.23-0.162,0.35c-0.009,0.009,0,0.017-0.009,0.026c-8.841,20.642-14.345,43.025-15.923,66.466
				c-0.026,0.375-0.068,0.751-0.085,1.126c-0.265,4.232-0.444,8.482-0.444,12.783c0,4.292,0.179,8.55,0.444,12.774
				c0.017,0.375,0.06,0.759,0.085,1.135c1.835,27.29,9.028,53.137,20.557,76.476c0.196,0.393,0.401,0.768,0.589,1.152
				c1.732,3.447,3.567,6.835,5.478,10.163c0.273,0.469,0.538,0.939,0.811,1.408c4.395,7.509,9.242,14.711,14.532,21.572
				c0.026,0.043,0.051,0.085,0.077,0.119c0.008,0.009,0.026,0.017,0.026,0.026c10.411,13.491,22.468,25.643,35.857,36.181
				c0.017,0.009,0.017,0.017,0.026,0.026c0.06,0.043,0.119,0.077,0.171,0.119c6.955,5.453,14.251,10.479,21.879,15.019
				c0.128,0.077,0.256,0.145,0.393,0.222c3.379,1.997,6.827,3.891,10.334,5.7c0.666,0.35,1.34,0.7,2.022,1.033
				c3.533,1.783,7.117,3.482,10.769,5.052c0.119,0.051,0.23,0.111,0.35,0.162c0.009,0.009,0.017,0,0.026,0.009
				c20.642,8.841,43.025,14.345,66.466,15.923c0.375,0.026,0.759,0.06,1.135,0.085c4.224,0.264,8.482,0.444,12.774,0.444
				c4.292,0,8.55-0.179,12.783-0.444c0.375-0.026,0.751-0.06,1.126-0.085c27.29-1.835,53.129-9.028,76.476-20.557
				c0.401-0.196,0.802-0.418,1.203-0.614c3.413-1.715,6.758-3.524,10.061-5.419c0.512-0.299,1.024-0.58,1.528-0.879
				c7.484-4.386,14.669-9.225,21.504-14.49c0.043-0.034,0.085-0.06,0.12-0.085c0.008-0.009,0.017-0.026,0.026-0.026
				c13.491-10.411,25.643-22.468,36.181-35.857c0.009-0.017,0.017-0.017,0.026-0.026c0.043-0.06,0.085-0.12,0.128-0.171
				c5.453-6.955,10.479-14.251,15.01-21.88c0.077-0.128,0.145-0.265,0.222-0.393c2.005-3.379,3.891-6.827,5.7-10.325
				c0.35-0.683,0.7-1.348,1.041-2.031c1.775-3.533,3.473-7.117,5.043-10.769c0.051-0.12,0.111-0.23,0.162-0.35
				c0.008-0.008,0.008-0.017,0.008-0.026c8.841-20.642,14.345-43.025,15.932-66.466c0.026-0.375,0.06-0.759,0.085-1.135
				c0.256-4.224,0.435-8.482,0.435-12.774C460.799,251.7,460.62,247.45,460.364,243.218z M379.297,114.612
				c6.878,5.999,13.303,12.493,19.243,19.422l-46.729,27.059L379.297,114.612z M290.133,71.433
				c10.487,1.937,20.685,4.693,30.49,8.294l-30.49,51.541V71.433z M255.999,162.134c18.825,0,34.133,15.309,34.133,34.133
				s-15.309,34.133-34.133,34.133c-18.825,0-34.133-15.309-34.133-34.133S237.175,162.134,255.999,162.134z M221.866,71.433v57.481
				l-28.817-49.758C202.342,75.837,211.976,73.26,221.866,71.433z M79.735,191.378l51.533,30.49H71.432
				C73.369,211.38,76.125,201.183,79.735,191.378z M79.154,318.951c-3.311-9.293-5.897-18.927-7.723-28.817h57.489L79.154,318.951z
				 M132.701,397.39c-6.869-6.007-13.303-12.493-19.243-19.422l46.737-27.059L132.701,397.39z M114.61,132.703
				c6.007-6.878,12.493-13.303,19.422-19.243l27.059,46.729L114.61,132.703z M162.133,256.001c0-18.825,15.309-34.133,34.133-34.133
				s34.133,15.309,34.133,34.133s-15.309,34.133-34.133,34.133S162.133,274.825,162.133,256.001z M221.866,440.568
				c-10.487-1.937-20.685-4.693-30.49-8.303l30.49-51.533V440.568z M255.999,349.868c-18.825,0-34.133-15.309-34.133-34.133
				s15.309-34.133,34.133-34.133c18.825,0,34.133,15.309,34.133,34.133S274.824,349.868,255.999,349.868z M290.133,440.568v-57.489
				l28.817,49.766C309.657,436.157,300.031,438.742,290.133,440.568z M315.732,290.134c-18.825,0-34.133-15.309-34.133-34.133
				s15.309-34.133,34.133-34.133c18.825,0,34.133,15.309,34.133,34.133S334.557,290.134,315.732,290.134z M377.966,398.542
				l-27.059-46.737l46.481,27.494C391.389,386.177,384.895,392.602,377.966,398.542z M432.272,320.624l-51.541-30.49h59.836
				C438.63,300.622,435.873,310.819,432.272,320.624z M383.086,221.868l49.758-28.817c3.32,9.293,5.897,18.918,7.723,28.817H383.086
				z"/>
			<path d="M213.333,256c0-9.412-7.654-17.067-17.067-17.067S179.2,246.588,179.2,256c0,9.412,7.654,17.067,17.067,17.067
				S213.333,265.412,213.333,256z"/>
			<path d="M256,298.667c-9.412,0-17.067,7.654-17.067,17.067c0,9.412,7.654,17.067,17.067,17.067s17.067-7.654,17.067-17.067
				C273.067,306.321,265.412,298.667,256,298.667z"/>
			<path d="M256,213.333c9.412,0,17.067-7.654,17.067-17.067c0-9.412-7.654-17.067-17.067-17.067s-17.067,7.654-17.067,17.067
				C238.933,205.679,246.588,213.333,256,213.333z"/>
			<path d="M315.733,238.933c-9.412,0-17.067,7.654-17.067,17.067c0,9.412,7.654,17.067,17.067,17.067S332.8,265.412,332.8,256
				C332.8,246.588,325.146,238.933,315.733,238.933z"/>
		</g>
	</g>
</g>
<g>
</g>
<g>
</g>
<g>
</g>
<g>
</g>
<g>
</g>
<g>
</g>
<g>
</g>
<g>
</g>
<g>
</g>
<g>
</g>
<g>
</g>
<g>
</g>
<g>
</g>
<g>
</g>
<g>
</g>
</svg>
