<?xml version="1.0" encoding="iso-8859-1"?>
<!-- Generator: Adobe Illustrator 19.0.0, SVG Export Plug-In . SVG Version: 6.00 Build 0)  -->
<svg version="1.1" id="Layer_1" xmlns="http://www.w3.org/2000/svg" xmlns:xlink="http://www.w3.org/1999/xlink" x="0px" y="0px"
	 viewBox="0 0 512 512" style="enable-background:new 0 0 512 512;" xml:space="preserve">
<g>
	<g>
		<g>
			<path d="M196.268,238.929c-9.412,0-17.067,7.654-17.067,17.067c0,9.412,7.654,17.067,17.067,17.067s17.067-7.654,17.067-17.067
				C213.334,246.584,205.68,238.929,196.268,238.929z"/>
			<path d="M207.334,374.321c-0.239-0.094-0.538-0.213-0.657-0.273c-2.876-1.203-5.914-1.784-8.934-1.784
				c-6.093,0-12.126,2.381-16.657,6.912l-22.238,22.246c-5.487,5.478-7.919,13.039-6.673,20.736
				c1.203,7.458,5.717,13.653,12.373,16.998c8.363,4.19,17.109,7.842,25.984,10.846c7.356,2.492,15.164,1.323,21.453-3.209
				c6.281-4.497,9.882-11.511,9.882-19.234v-31.479C221.867,386.523,216.166,377.981,207.334,374.321z"/>
			<path d="M137.776,304.912c-3.746-9.071-12.288-14.78-21.854-14.78H84.434c-7.723,0-14.737,3.593-19.234,9.882
				c-4.523,6.289-5.692,14.114-3.208,21.453c3.012,8.883,6.656,17.621,10.854,25.975c3.337,6.664,9.532,11.179,16.99,12.39
				c7.689,1.195,15.249-1.195,20.736-6.682l22.238-22.238c6.775-6.775,8.755-16.913,5.043-25.822
				C137.818,305.023,137.784,304.929,137.776,304.912z"/>
			<path d="M374.226,207.079c3.746,9.071,12.288,14.78,21.854,14.78h31.488c7.723,0,14.737-3.593,19.234-9.882
				c4.523-6.289,5.692-14.114,3.209-21.453c-3.004-8.875-6.656-17.621-10.854-25.984c-3.336-6.665-9.532-11.17-16.99-12.382
				c-7.697-1.212-15.249,1.195-20.736,6.682l-22.246,22.238c-6.767,6.775-8.747,16.913-5.035,25.822
				C374.183,206.968,374.217,207.062,374.226,207.079z"/>
			<path d="M256.001,213.329c9.412,0,17.067-7.654,17.067-17.067c0-9.412-7.654-17.067-17.067-17.067s-17.067,7.654-17.067,17.067
				C238.934,205.675,246.589,213.329,256.001,213.329z"/>
			<path d="M304.689,137.679c9.318,3.883,19.456,1.903,26.231-4.864l22.238-22.246c5.487-5.478,7.919-13.039,6.673-20.736
				c-1.203-7.458-5.717-13.653-12.373-16.998c-8.363-4.19-17.109-7.842-25.992-10.846c-2.526-0.862-5.112-1.28-7.671-1.28
				c-4.873,0-9.651,1.519-13.781,4.489c-6.281,4.497-9.882,11.511-9.882,19.234v31.479
				C290.131,125.477,295.848,134.019,304.689,137.679z"/>
			<path d="M315.734,238.929c-9.412,0-17.067,7.654-17.067,17.067c0,9.412,7.654,17.067,17.067,17.067s17.067-7.654,17.067-17.067
				C332.801,246.584,325.146,238.929,315.734,238.929z"/>
			<path d="M181.084,132.813c6.784,6.767,16.913,8.73,25.822,5.035c9.25-3.823,14.959-12.365,14.959-21.931V84.429
				c0-7.714-3.601-14.729-9.873-19.234c-4.13-2.961-8.909-4.48-13.781-4.48c-2.56,0-5.154,0.418-7.68,1.271
				c-8.875,3.012-17.621,6.656-25.984,10.854c-6.656,3.337-11.17,9.532-12.373,16.99c-1.246,7.697,1.186,15.258,6.673,20.745
				L181.084,132.813z"/>
			<path d="M330.918,379.179c-6.775-6.776-16.904-8.73-25.822-5.035c-0.23,0.102-0.555,0.23-0.674,0.273
				c-8.576,3.55-14.285,12.092-14.285,21.658v31.488c0,7.714,3.601,14.729,9.873,19.234c6.315,4.54,14.14,5.7,21.461,3.209
				c8.875-3.012,17.621-6.656,25.984-10.854c6.656-3.337,11.17-9.532,12.373-16.99c1.246-7.697-1.186-15.258-6.673-20.745
				L330.918,379.179z"/>
			<path d="M256.001,298.662c-9.412,0-17.067,7.654-17.067,17.067c0,9.412,7.654,17.067,17.067,17.067s17.067-7.654,17.067-17.067
				C273.068,306.317,265.413,298.662,256.001,298.662z"/>
			<path d="M427.564,290.132h-31.488c-9.566,0-18.099,5.709-21.751,14.549c-0.017,0.043-0.034,0.094-0.06,0.128l-7.825-3.388
				l7.782,3.49c-3.789,9.088-1.809,19.226,4.966,26.001l22.238,22.238c5.495,5.487,13.039,7.885,20.745,6.682
				c7.458-1.212,13.645-5.726,16.981-12.39c4.198-8.354,7.851-17.084,10.854-25.967c2.483-7.347,1.323-15.172-3.2-21.461
				C442.301,293.733,435.286,290.132,427.564,290.132z"/>
			<path d="M256,0C114.842,0,0,114.842,0,256s114.842,256,256,256s256-114.842,256-256S397.158,0,256,0z M424.892,135.322
				c12.937,2.091,23.697,9.95,29.525,21.564c4.54,9.071,8.499,18.543,11.759,28.169c4.267,12.621,2.261,26.061-5.504,36.872
				c-7.748,10.803-19.814,17.007-33.101,17.007h-31.488c-16.504,0-31.241-9.856-37.53-25.105l7.723-3.644l-7.876,3.285
				c-6.391-15.317-2.97-32.768,8.721-44.459l22.238-22.238C398.626,137.498,411.913,133.171,424.892,135.322z M273.067,84.429
				c0-13.286,6.195-25.352,16.998-33.101c10.82-7.765,24.269-9.788,36.873-5.504c9.626,3.251,19.098,7.211,28.169,11.768
				c11.622,5.82,19.482,16.58,21.572,29.525c2.099,12.971-2.185,26.257-11.46,35.524l-22.238,22.238
				c-7.782,7.774-18.116,11.895-28.663,11.895c-5.308,0-10.667-1.041-15.787-3.174c-15.616-6.46-25.463-21.197-25.463-37.683V84.429
				z M349.867,256c0,18.825-15.309,34.133-34.133,34.133c-18.816,0-34.133-15.309-34.133-34.133
				c0-18.833,15.317-34.133,34.133-34.133C334.558,221.867,349.867,237.167,349.867,256z M290.133,196.267
				c0,18.825-15.309,34.133-34.133,34.133c-18.816,0-34.133-15.309-34.133-34.133c0-18.833,15.317-34.133,34.133-34.133
				C274.825,162.133,290.133,177.434,290.133,196.267z M230.4,256c0,18.825-15.309,34.133-34.133,34.133
				c-18.816,0-34.133-15.309-34.133-34.133c0-18.833,15.317-34.133,34.133-34.133C215.091,221.867,230.4,237.167,230.4,256z
				 M135.322,87.117c2.091-12.945,9.958-23.706,21.572-29.525c9.062-4.557,18.543-8.516,28.169-11.768
				c12.621-4.25,26.052-2.261,36.872,5.504c10.803,7.748,16.998,19.814,16.998,33.101v31.488c0,16.486-9.847,31.223-25.097,37.53
				c-5.299,2.21-10.795,3.285-16.213,3.285c-10.598,0-20.864-4.122-28.604-11.853l-22.238-22.238
				C137.506,113.374,133.222,100.087,135.322,87.117z M45.824,185.054c3.26-9.626,7.219-19.098,11.768-28.169
				c5.82-11.614,16.58-19.473,29.517-21.564c12.979-2.15,26.257,2.176,35.533,11.452l22.246,22.238
				c11.682,11.691,15.104,29.141,8.713,44.459l-8.036-2.9l-7.789-3.489c3.789-9.088,1.818-19.226-4.958-26.001l-22.238-22.238
				c-4.548-4.548-10.513-6.997-16.802-6.997c-1.306,0-2.62,0.111-3.942,0.316c-7.458,1.212-13.653,5.717-16.99,12.382
				c-4.198,8.363-7.851,17.101-10.854,25.975c-2.483,7.347-1.314,15.172,3.208,21.461c4.506,6.281,11.511,9.882,19.234,9.882h31.488
				c9.566,0,18.108-5.709,21.751-14.549c0.017-0.043,0.043-0.094,0.06-0.128l7.831,3.387l-0.002-0.001l7.893,3.26
				c-6.298,15.249-21.035,25.105-37.53,25.105H84.437c-13.286,0-25.361-6.204-33.109-17.007
				C43.563,211.115,41.557,197.675,45.824,185.054z M93.636,377.199c-2.167,0-4.352-0.171-6.528-0.529
				c-12.937-2.091-23.697-9.958-29.517-21.572c-4.548-9.054-8.499-18.526-11.768-28.16c-4.267-12.621-2.261-26.061,5.504-36.873
				c7.748-10.803,19.823-16.998,33.109-16.998h31.488c16.495,0,31.232,9.847,37.53,25.097l-7.731,3.644l7.876-3.285
				c6.391,15.317,2.97,32.768-8.721,44.459l-22.238,22.238C114.927,372.941,104.422,377.199,93.636,377.199z M238.933,427.563
				c0,13.286-6.195,25.353-16.998,33.101c-7.091,5.094-15.3,7.697-23.671,7.706c-4.403,0-8.849-0.725-13.201-2.202
				c-9.626-3.251-19.106-7.211-28.169-11.759c-11.614-5.828-19.482-16.589-21.572-29.525c-2.099-12.979,2.185-26.266,11.46-35.533
				l22.238-22.238c11.682-11.691,29.141-15.121,44.45-8.713l-2.893,8.03l3.268-7.885c15.241,6.306,25.088,21.043,25.088,37.538
				V427.563z M221.867,315.733c0-18.833,15.317-34.133,34.133-34.133c18.825,0,34.133,15.3,34.133,34.133
				c0,18.825-15.309,34.133-34.133,34.133C237.184,349.867,221.867,334.558,221.867,315.733z M376.678,424.883
				c-2.091,12.937-9.95,23.697-21.572,29.525c-9.062,4.548-18.543,8.508-28.16,11.759c-4.361,1.468-8.806,2.193-13.21,2.193
				c-8.371,0-16.58-2.603-23.671-7.697c-10.803-7.748-16.998-19.814-16.998-33.101v-31.479c0-16.495,9.847-31.232,25.096-37.538
				l3.652,7.723l-3.285-7.868c15.292-6.409,32.777-2.978,44.45,8.713l22.238,22.238
				C374.494,398.618,378.778,411.904,376.678,424.883z M466.176,326.938c-3.26,9.634-7.219,19.106-11.767,28.16
				c-5.82,11.614-16.58,19.482-29.517,21.572c-2.176,0.358-4.361,0.529-6.528,0.529c-10.786,0-21.282-4.258-29.005-11.981
				l-22.238-22.238c-11.691-11.691-15.113-29.141-8.721-44.459l8.038,2.901l-7.885-3.26c6.289-15.249,21.026-25.097,37.53-25.097
				h31.488c13.286,0,25.353,6.195,33.101,16.998C468.437,300.877,470.443,314.317,466.176,326.938z"/>
		</g>
	</g>
</g>
<g>
</g>
<g>
</g>
<g>
</g>
<g>
</g>
<g>
</g>
<g>
</g>
<g>
</g>
<g>
</g>
<g>
</g>
<g>
</g>
<g>
</g>
<g>
</g>
<g>
</g>
<g>
</g>
<g>
</g>
</svg>
