<?xml version="1.0" encoding="iso-8859-1"?>
<!-- Generator: Adobe Illustrator 19.0.0, SVG Export Plug-In . SVG Version: 6.00 Build 0)  -->
<svg version="1.1" id="Layer_1" xmlns="http://www.w3.org/2000/svg" xmlns:xlink="http://www.w3.org/1999/xlink" x="0px" y="0px"
	 viewBox="0 0 511.8 511.8" style="enable-background:new 0 0 511.8 511.8;" xml:space="preserve">
<g>
	<g>
		<path d="M285.65,384c-25.3,0-46.3-18.5-50.4-42.7h7.8c4.7,0,8.5-3.8,8.5-8.5v-25.6h34.1c4.7,0,8.5-3.8,8.5-8.5V136.5h-68.3
			c-4.7,0-8.5-3.8-8.5-8.5s3.8-8.5,8.5-8.5h68.3v-17.1h-51.2c-4.7,0-8.5-3.8-8.5-8.5c0-4.7,3.8-8.5,8.5-8.5h51.2V59.7
			c0-4.7-3.8-8.5-8.5-8.5h-25.6V8.5c0-4.7-3.8-8.5-8.5-8.5h-34.1c-4.7,0-8.5,3.8-8.5,8.5v42.7h-25.6V8.5c0-4.7-3.8-8.5-8.5-8.5
			h-34.1c-4.7,0-8.5,3.8-8.5,8.5v42.7h-17.1c-4.7,0-8.5,3.8-8.5,8.5v162.1h68.3c4.7,0,8.5,3.8,8.5,8.5s-3.8,8.5-8.5,8.5h-68.3V256
			h51.2c4.7,0,8.5,3.8,8.5,8.5s-3.8,8.5-8.5,8.5h-51.2v25.6c0,4.7,3.8,8.5,8.5,8.5h34.1v25.6c0,4.7,3.8,8.5,8.5,8.5h9
			c4.4,61.9,56,110.9,119,110.9c28.2,0,51.2,23,51.2,51.2c0,4.7,3.8,8.5,8.5,8.5h51.2c4.7,0,8.5-3.8,8.5-8.5
			C405.05,437.6,351.45,384,285.65,384z M225.85,17.1h17.1v34.1h-17.1V17.1z M166.15,51.2h-17.1V17.1h17.1V51.2z M234.55,324.3h-0.1
			h-8.5h-51.2h-8.5v-17.1h68.3V324.3z"/>
	</g>
</g>
<g>
</g>
<g>
</g>
<g>
</g>
<g>
</g>
<g>
</g>
<g>
</g>
<g>
</g>
<g>
</g>
<g>
</g>
<g>
</g>
<g>
</g>
<g>
</g>
<g>
</g>
<g>
</g>
<g>
</g>
</svg>
