<?xml version="1.0" encoding="iso-8859-1"?>
<!-- Generator: Adobe Illustrator 19.0.0, SVG Export Plug-In . SVG Version: 6.00 Build 0)  -->
<svg version="1.1" id="Layer_1" xmlns="http://www.w3.org/2000/svg" xmlns:xlink="http://www.w3.org/1999/xlink" x="0px" y="0px"
	 viewBox="0 0 512 512" style="enable-background:new 0 0 512 512;" xml:space="preserve">
<g>
	<g>
		<g>
			<path d="M256,0C114.842,0,0,114.842,0,256s114.842,256,256,256s256-114.842,256-256S397.158,0,256,0z M256,494.933
				C124.254,494.933,17.067,387.746,17.067,256S124.254,17.067,256,17.067S494.933,124.254,494.933,256S387.746,494.933,256,494.933
				z"/>
			<path d="M256,298.667c-9.412,0-17.067,7.654-17.067,17.067c0,9.412,7.654,17.067,17.067,17.067s17.067-7.654,17.067-17.067
				C273.067,306.321,265.412,298.667,256,298.667z"/>
			<path d="M196.267,238.933c-9.412,0-17.067,7.654-17.067,17.067c0,9.412,7.654,17.067,17.067,17.067s17.067-7.654,17.067-17.067
				C213.333,246.588,205.679,238.933,196.267,238.933z"/>
			<path d="M256,213.333c9.412,0,17.067-7.654,17.067-17.067c0-9.412-7.654-17.067-17.067-17.067s-17.067,7.654-17.067,17.067
				C238.933,205.679,246.588,213.333,256,213.333z"/>
			<path d="M459.865,236.668c-0.017-0.137-0.026-0.273-0.034-0.401c-0.631-6.562-1.587-13.022-2.825-19.388
				c0-0.017,0-0.034-0.009-0.051v-0.017c-5.35-27.486-16.179-53.043-31.36-75.435c-0.009-0.008-0.009-0.008-0.009-0.017
				c-0.034-0.043-0.06-0.077-0.085-0.111c-3.618-5.325-7.467-10.47-11.554-15.42c-0.222-0.273-0.461-0.521-0.683-0.794
				c-3.84-4.608-7.876-9.054-12.1-13.303c-0.444-0.444-0.904-0.879-1.348-1.323c-4.25-4.207-8.678-8.235-13.286-12.058
				c-0.307-0.247-0.614-0.503-0.922-0.751c-4.89-4.011-9.967-7.817-15.224-11.375c-0.008-0.009-0.026-0.017-0.034-0.026
				c-0.009,0-0.017-0.009-0.026-0.009c-27.563-18.628-59.896-30.703-94.737-34.031c-0.068-0.009-0.136-0.009-0.205-0.017
				c-6.4-0.597-12.868-0.939-19.422-0.939s-13.03,0.341-19.43,0.939c-0.068,0.009-0.137,0.009-0.196,0.017
				c-34.901,3.336-67.285,15.445-94.882,34.125c-0.009,0-0.017,0-0.017,0.009c-0.043,0.026-0.085,0.06-0.128,0.094
				c-5.222,3.541-10.274,7.322-15.138,11.315c-0.375,0.307-0.742,0.631-1.118,0.939c-4.506,3.755-8.841,7.697-13.005,11.81
				c-0.546,0.546-1.092,1.092-1.638,1.638c-4.113,4.164-8.055,8.499-11.81,13.005c-0.307,0.375-0.623,0.742-0.939,1.118
				c-3.994,4.864-7.774,9.916-11.315,15.138c-0.034,0.043-0.068,0.085-0.094,0.128c-0.009,0-0.009,0.009-0.009,0.017
				c-15.138,22.366-25.941,47.88-31.283,75.315v0.017c0,0.017-0.009,0.034-0.009,0.051c-1.237,6.366-2.193,12.826-2.825,19.388
				c-0.009,0.128-0.017,0.265-0.026,0.401c-0.606,6.366-0.939,12.809-0.939,19.337c0,6.46,0.333,12.843,0.922,19.157
				c0.017,0.137,0.017,0.282,0.034,0.427c3.328,34.859,15.394,67.2,34.031,94.78c0,0.008,0.009,0.017,0.009,0.026
				c0.009,0.009,0.017,0.026,0.026,0.034c3.558,5.265,7.364,10.342,11.383,15.241c0.247,0.299,0.486,0.597,0.734,0.896
				c3.823,4.608,7.859,9.037,12.066,13.295c0.444,0.444,0.879,0.896,1.323,1.34c4.258,4.233,8.704,8.277,13.321,12.117
				c0.256,0.222,0.503,0.452,0.759,0.666c4.958,4.087,10.112,7.945,15.437,11.563c0.034,0.026,0.068,0.051,0.111,0.077
				c0.009,0.009,0.009,0.009,0.017,0.009c27.614,18.722,60.023,30.865,94.967,34.202c0.137,0.017,0.273,0.026,0.41,0.034
				c6.34,0.597,12.757,0.939,19.251,0.939c6.494,0,12.902-0.341,19.243-0.939c0.137-0.008,0.273-0.017,0.41-0.034
				c34.893-3.337,67.26-15.437,94.848-34.116c0.009,0,0.017,0,0.017-0.009c0.043-0.026,0.085-0.06,0.128-0.094
				c5.222-3.541,10.274-7.322,15.138-11.315c0.375-0.316,0.742-0.631,1.118-0.939c4.506-3.755,8.841-7.697,13.005-11.81
				c0.546-0.546,1.092-1.092,1.638-1.638c4.113-4.164,8.055-8.499,11.81-13.005c0.307-0.375,0.631-0.742,0.939-1.118
				c3.994-4.864,7.774-9.916,11.315-15.138c0.034-0.043,0.068-0.077,0.094-0.128c0.009,0,0.009-0.009,0.009-0.017
				c18.688-27.605,30.797-59.998,34.125-94.916c0.017-0.145,0.017-0.29,0.034-0.427c0.589-6.315,0.93-12.698,0.93-19.157
				C460.803,249.476,460.462,243.034,459.865,236.668z M93.657,161.899c12.169,17.237,26.684,32.35,43.614,44.843
				c-20.847-3.14-41.83-2.722-62.652,0.87C78.945,191.407,85.405,176.073,93.657,161.899z M93.58,349.973
				c-8.26-14.225-14.729-29.619-19.046-45.884c20.915,3.618,42.001,4.036,62.925,0.862
				C120.426,317.478,105.817,332.651,93.58,349.973z M349.964,93.581c-17.229,12.177-32.341,26.701-44.843,43.639
				c3.149-20.838,2.722-41.813-0.879-62.643C320.447,78.895,335.782,85.346,349.964,93.581z M256.003,162.138
				c18.825,0,34.133,15.3,34.133,34.133c0,18.825-15.309,34.133-34.133,34.133s-34.133-15.309-34.133-34.133
				C221.87,177.438,237.179,162.138,256.003,162.138z M207.764,74.577c-3.618,20.924-4.036,42.001-0.845,62.933
				c-12.527-17.033-27.708-31.625-45.022-43.853C176.114,85.38,191.5,78.912,207.764,74.577z M161.77,418.266
				c17.399-12.279,32.631-26.94,45.193-44.066c-3.234,21.026-2.825,42.206,0.802,63.223
				C191.449,433.079,176.02,426.577,161.77,418.266z M196.27,290.138c-18.825,0-34.133-15.309-34.133-34.133
				c0-18.833,15.309-34.133,34.133-34.133s34.133,15.3,34.133,34.133C230.403,274.829,215.095,290.138,196.27,290.138z
				 M256.003,349.871c-18.825,0-34.133-15.309-34.133-34.133c0-18.833,15.309-34.133,34.133-34.133s34.133,15.3,34.133,34.133
				C290.137,334.562,274.828,349.871,256.003,349.871z M281.603,256.004c0-18.833,15.309-34.133,34.133-34.133
				s34.133,15.3,34.133,34.133c0,18.825-15.309,34.133-34.133,34.133S281.603,274.829,281.603,256.004z M304.242,437.423
				c3.61-20.924,4.028-42.001,0.845-62.933c12.518,17.033,27.699,31.625,45.013,43.853
				C335.884,426.62,320.498,433.088,304.242,437.423z M418.265,161.771c8.286,14.208,14.771,29.594,19.115,45.841
				c-20.915-3.61-42.01-4.019-62.95-0.828C391.47,194.24,406.054,179.068,418.265,161.771z M418.342,350.11
				c-12.288-17.408-26.957-32.648-44.092-45.21c21.018,3.226,42.197,2.816,63.215-0.811
				C433.138,320.405,426.644,335.842,418.342,350.11z"/>
			<path d="M332.8,256c0-9.412-7.654-17.067-17.067-17.067s-17.067,7.654-17.067,17.067c0,9.412,7.654,17.067,17.067,17.067
				S332.8,265.412,332.8,256z"/>
		</g>
	</g>
</g>
<g>
</g>
<g>
</g>
<g>
</g>
<g>
</g>
<g>
</g>
<g>
</g>
<g>
</g>
<g>
</g>
<g>
</g>
<g>
</g>
<g>
</g>
<g>
</g>
<g>
</g>
<g>
</g>
<g>
</g>
</svg>
