<?xml version="1.0" encoding="iso-8859-1"?>
<!-- Generator: Adobe Illustrator 19.0.0, SVG Export Plug-In . SVG Version: 6.00 Build 0)  -->
<svg version="1.1" id="Layer_1" xmlns="http://www.w3.org/2000/svg" xmlns:xlink="http://www.w3.org/1999/xlink" x="0px" y="0px"
	 viewBox="0 0 512.001 512.001" style="enable-background:new 0 0 512.001 512.001;" xml:space="preserve">
<g>
	<g>
		<g>
			<path d="M155.165,103.006c65.929-12.203,133.82-12.211,201.702,0.009l45.474,8.021c0.486,0.085,0.973,0.213,1.425,0.384
				l5.726,2.082C408.281,50.723,356.936,0,293.874,0h-75.742C155.31,0,104.136,50.347,102.548,112.794l6.528-1.63L155.165,103.006z
				 M204.803,34.134c0-4.71,3.814-8.533,8.533-8.533h85.333c4.719,0,8.533,3.823,8.533,8.533v34.133c0,4.71-3.814,8.533-8.533,8.533
				h-85.333c-4.719,0-8.533-3.823-8.533-8.533V34.134z"/>
			<rect x="221.866" y="42.667" width="68.267" height="17.067"/>
			<path d="M421.57,387.501l3.789-4.378c-14.925-5.419-30.319-10.129-46.054-14.268l-4.83,9.489l-35.806,65.391h32.964
				L421.57,387.501z"/>
			<path d="M140.37,443.734h32.964l-35.686-65.212l-5.393-9.549c-15.42,4.062-30.507,8.687-45.133,13.986l3.789,5.18L140.37,443.734
				z"/>
			<path d="M384.003,460.8h-8.533h-51.2H187.737h-51.2h-8.533c-14.114,0-25.6,11.486-25.6,25.6V512h307.2v-25.6
				C409.603,472.286,398.118,460.8,384.003,460.8z M162.137,486.4c-4.71,0-8.533-3.823-8.533-8.533s3.823-8.533,8.533-8.533
				c4.71,0,8.533,3.823,8.533,8.533S166.847,486.4,162.137,486.4z M349.87,486.4c-4.71,0-8.533-3.823-8.533-8.533
				s3.823-8.533,8.533-8.533s8.533,3.823,8.533,8.533S354.581,486.4,349.87,486.4z"/>
			<path d="M486.503,410.163c-2.099-1.101-4.19-2.185-6.272-3.243c-12.279-6.263-24.951-11.998-37.956-17.271l-7.868,9.105
				l-40.951,46.114c18.978,4.326,33.212,21.265,33.212,41.532V512h76.8c4.719,0,8.533-3.823,8.533-8.533v-51.2
				C512.001,434.568,502.23,418.44,486.503,410.163z"/>
			<path d="M152.562,370.236l40.226,73.498H319.21l40.175-73.361l2.91-5.717c-9.865-2.261-19.891-4.258-30.029-6.033
				c0.333-2.876,0.538-5.794,0.538-8.755v-21.965c36.608-31.753,59.733-83.482,59.733-131.635v-44.092
				c0.034-0.026,0.077-0.043,0.111-0.077c6.793-5.7,11.759-13.09,14.498-21.299l-8.499-3.081l-44.766-7.902
				c-65.894-11.861-131.712-11.861-195.686-0.009l-45.568,8.038l-8.03,2.005c2.671,8.585,7.706,16.324,14.763,22.246
				c0.034,0.034,0.077,0.051,0.111,0.085v44.083c0,48.154,23.125,99.883,59.733,131.635v21.965c0,2.961,0.205,5.879,0.538,8.755
				c-10.231,1.792-20.343,3.797-30.293,6.084L152.562,370.236z M315.737,349.867c0,4.634-0.58,9.131-1.587,13.466l-0.008,0.009
				c-1.468,6.383-3.985,12.254-7.219,17.596c-0.358,0.589-0.7,1.195-1.075,1.766c-1.382,2.116-2.918,4.087-4.548,5.99
				c-0.725,0.853-1.476,1.681-2.253,2.483c-1.553,1.621-3.174,3.174-4.898,4.608c-0.93,0.777-1.92,1.485-2.901,2.202
				c-1.417,1.033-2.867,2.014-4.369,2.918c-1.007,0.614-2.014,1.229-3.063,1.783c-2.065,1.084-4.215,2.039-6.417,2.884
				c-0.828,0.316-1.655,0.631-2.492,0.913c-2.577,0.853-5.214,1.562-7.927,2.057c-0.597,0.12-1.22,0.188-1.826,0.282
				c-2.995,0.461-6.033,0.777-9.148,0.777s-6.144-0.316-9.139-0.777c-0.606-0.094-1.212-0.162-1.809-0.273
				c-2.722-0.503-5.367-1.212-7.953-2.065c-0.819-0.273-1.613-0.58-2.415-0.887c-2.244-0.853-4.437-1.826-6.554-2.935
				c-0.973-0.521-1.903-1.092-2.833-1.655c-1.579-0.947-3.098-1.963-4.582-3.055c-0.879-0.649-1.792-1.271-2.637-1.971
				c-1.809-1.493-3.507-3.115-5.137-4.821c-0.742-0.768-1.459-1.562-2.159-2.372c-1.647-1.92-3.208-3.917-4.608-6.059
				c-0.358-0.538-0.666-1.109-1.007-1.655c-3.251-5.333-5.777-11.196-7.27-17.562c-1.024-4.395-1.63-8.943-1.63-13.645v-9.284
				c17.835,11.187,38.016,17.818,59.733,17.818s41.899-6.63,59.733-17.818V349.867z M136.537,196.267v-34.961
				c0.205,0.06,0.41,0.085,0.614,0.145c0.802,0.222,1.613,0.384,2.423,0.563c0.913,0.205,1.826,0.427,2.748,0.572
				c0.811,0.137,1.63,0.188,2.441,0.282c0.939,0.094,1.86,0.23,2.799,0.273c0.973,0.043,1.946,0,2.918-0.008
				c0.794-0.009,1.579,0.026,2.372-0.026c1.783-0.111,3.567-0.324,5.342-0.631c63.974-11.853,129.792-11.853,195.686,0.009
				c2.483,0.435,4.966,0.606,7.441,0.649c0.282,0.008,0.563,0.077,0.845,0.077c0.273,0,0.538-0.068,0.811-0.068
				c2.492-0.043,4.966-0.222,7.398-0.648c0.017,0,0.034-0.009,0.06-0.009c1.698-0.307,3.379-0.691,5.035-1.178v34.961
				c0,77.551-55.031,136.755-108.237,144.23c-0.341,0.051-0.674,0.102-1.015,0.145c-3.413,0.444-6.827,0.691-10.214,0.691
				c-3.388,0-6.801-0.247-10.214-0.691c-0.341-0.043-0.674-0.102-1.015-0.145C191.56,333.022,136.537,273.818,136.537,196.267z"/>
			<path d="M77.653,398.846l-7.006-9.549c-13.32,5.367-26.308,11.213-38.869,17.621c-2.082,1.058-4.173,2.142-6.272,3.243
				C9.779,418.438,0,434.575,0,452.265v51.2c0,4.719,3.823,8.533,8.533,8.533h76.8v-25.6c0-20.267,14.242-37.205,33.22-41.532
				L77.653,398.846z"/>
		</g>
	</g>
</g>
<g>
</g>
<g>
</g>
<g>
</g>
<g>
</g>
<g>
</g>
<g>
</g>
<g>
</g>
<g>
</g>
<g>
</g>
<g>
</g>
<g>
</g>
<g>
</g>
<g>
</g>
<g>
</g>
<g>
</g>
</svg>
