<?xml version="1.0" encoding="iso-8859-1"?>
<!-- Generator: Adobe Illustrator 19.0.0, SVG Export Plug-In . SVG Version: 6.00 Build 0)  -->
<svg version="1.1" id="Layer_1" xmlns="http://www.w3.org/2000/svg" xmlns:xlink="http://www.w3.org/1999/xlink" x="0px" y="0px"
	 viewBox="0 0 512 512" style="enable-background:new 0 0 512 512;" xml:space="preserve">
<g>
	<g>
		<g>
			<path d="M256.004,145.069c-61.167,0-110.933,49.766-110.933,110.933s49.766,110.933,110.933,110.933
				s110.933-49.766,110.933-110.933S317.171,145.069,256.004,145.069z M256.004,162.136c18.825,0,34.133,15.309,34.133,34.133
				s-15.309,34.133-34.133,34.133s-34.133-15.309-34.133-34.133S237.18,162.136,256.004,162.136z M264.538,256.003
				c0,4.71-3.823,8.533-8.533,8.533s-8.533-3.823-8.533-8.533s3.823-8.533,8.533-8.533S264.538,251.292,264.538,256.003z
				 M196.271,290.136c-18.825,0-34.133-15.309-34.133-34.133c0-18.825,15.309-34.133,34.133-34.133s34.133,15.309,34.133,34.133
				C230.404,274.827,215.095,290.136,196.271,290.136z M256.004,349.869c-18.825,0-34.133-15.309-34.133-34.133
				c0-18.825,15.309-34.133,34.133-34.133s34.133,15.309,34.133,34.133C290.138,334.56,274.829,349.869,256.004,349.869z
				 M349.871,256.003c0,18.825-15.309,34.133-34.133,34.133s-34.133-15.309-34.133-34.133c0-18.825,15.309-34.133,34.133-34.133
				S349.871,237.178,349.871,256.003z"/>
			<path d="M298.671,256.003c0,9.412,7.654,17.067,17.067,17.067s17.067-7.654,17.067-17.067c0-9.412-7.654-17.067-17.067-17.067
				S298.671,246.59,298.671,256.003z"/>
			<path d="M256.004,213.336c9.412,0,17.067-7.654,17.067-17.067c0-9.412-7.654-17.067-17.067-17.067s-17.067,7.654-17.067,17.067
				C238.938,205.682,246.592,213.336,256.004,213.336z"/>
			<path d="M256.004,298.669c-9.412,0-17.067,7.654-17.067,17.067c0,9.412,7.654,17.067,17.067,17.067s17.067-7.654,17.067-17.067
				C273.071,306.324,265.417,298.669,256.004,298.669z"/>
			<path d="M196.271,238.936c-9.412,0-17.067,7.654-17.067,17.067c0,9.412,7.654,17.067,17.067,17.067s17.067-7.654,17.067-17.067
				C213.338,246.59,205.683,238.936,196.271,238.936z"/>
			<path d="M256,0C114.842,0,0,114.842,0,256s114.842,256,256,256s256-114.842,256-256S397.158,0,256,0z M326.093,63.377
				c1.792-4.352,6.784-6.434,11.136-4.642c4.361,1.801,6.434,6.784,4.642,11.145c-1.792,4.352-6.784,6.434-11.136,4.642
				C326.374,72.721,324.301,67.738,326.093,63.377z M309.845,102.835c1.792-4.361,6.784-6.443,11.136-4.642
				c4.36,1.792,6.443,6.776,4.642,11.136c-1.792,4.36-6.775,6.434-11.136,4.642S308.053,107.187,309.845,102.835z M190.362,98.466
				c4.352-1.818,9.344,0.239,11.162,4.591c1.809,4.352-0.247,9.344-4.599,11.162c-4.344,1.809-9.344-0.247-11.153-4.599
				C183.953,105.276,186.01,100.275,190.362,98.466z M173.952,59.076c4.352-1.809,9.344,0.247,11.162,4.599
				c1.809,4.352-0.247,9.344-4.599,11.162c-4.344,1.809-9.344-0.247-11.153-4.599C167.543,65.886,169.6,60.894,173.952,59.076z
				 M58.743,174.78c1.792-4.361,6.775-6.443,11.136-4.642c4.361,1.792,6.434,6.775,4.642,11.136s-6.784,6.434-11.145,4.642
				C59.025,184.124,56.943,179.132,58.743,174.78z M70.238,342.648c-4.352,1.818-9.344-0.247-11.153-4.591
				c-1.818-4.352,0.239-9.353,4.591-11.162s9.344,0.247,11.162,4.591C76.646,335.838,74.59,340.838,70.238,342.648z M98.193,191.019
				c1.792-4.352,6.784-6.434,11.136-4.642c4.36,1.801,6.443,6.784,4.642,11.145c-1.792,4.352-6.775,6.434-11.136,4.642
				C98.475,200.363,96.401,195.379,98.193,191.019z M109.628,326.238c-4.352,1.809-9.353-0.247-11.162-4.591
				c-1.809-4.352,0.247-9.353,4.591-11.162c4.352-1.818,9.353,0.247,11.162,4.591C116.036,319.428,113.971,324.429,109.628,326.238z
				 M185.916,448.623c-1.792,4.36-6.784,6.443-11.136,4.642c-4.361-1.792-6.434-6.775-4.642-11.136s6.784-6.434,11.136-4.642
				C185.634,439.279,187.708,444.271,185.916,448.623z M202.163,409.173c-1.792,4.361-6.784,6.434-11.145,4.642
				c-4.352-1.792-6.434-6.784-4.634-11.145c1.792-4.352,6.775-6.434,11.136-4.642C201.882,399.829,203.955,404.813,202.163,409.173z
				 M321.647,413.542c-4.352,1.809-9.344-0.247-11.162-4.599c-1.809-4.343,0.247-9.344,4.599-11.153
				c4.343-1.818,9.344,0.239,11.153,4.591C328.055,406.733,325.999,411.725,321.647,413.542z M338.057,452.924
				c-4.352,1.818-9.344-0.239-11.162-4.591c-1.809-4.352,0.247-9.353,4.599-11.162c4.343-1.809,9.344,0.247,11.153,4.599
				C344.465,446.114,342.409,451.115,338.057,452.924z M256,384c-70.579,0-128-57.412-128-128c0-70.579,57.421-128,128-128
				c70.588,0,128,57.421,128,128C384,326.588,326.588,384,256,384z M402.381,185.771c4.352-1.818,9.353,0.239,11.162,4.591
				s-0.247,9.344-4.591,11.162c-4.352,1.809-9.353-0.247-11.162-4.599C395.972,192.572,398.037,187.58,402.381,185.771z
				 M413.815,320.981c-1.792,4.361-6.784,6.443-11.136,4.642c-4.361-1.792-6.443-6.775-4.642-11.136
				c1.792-4.361,6.775-6.434,11.136-4.642S415.607,316.629,413.815,320.981z M441.771,169.353c4.352-1.809,9.344,0.247,11.153,4.599
				c1.818,4.352-0.239,9.344-4.591,11.162c-4.352,1.809-9.344-0.247-11.162-4.599C435.362,176.162,437.419,171.17,441.771,169.353z
				 M442.129,341.871c-4.361-1.792-6.434-6.784-4.642-11.136c1.792-4.361,6.784-6.443,11.136-4.642
				c4.36,1.792,6.443,6.775,4.642,11.136C451.473,341.589,446.49,343.663,442.129,341.871z"/>
		</g>
	</g>
</g>
<g>
</g>
<g>
</g>
<g>
</g>
<g>
</g>
<g>
</g>
<g>
</g>
<g>
</g>
<g>
</g>
<g>
</g>
<g>
</g>
<g>
</g>
<g>
</g>
<g>
</g>
<g>
</g>
<g>
</g>
</svg>
