<?xml version="1.0" encoding="iso-8859-1"?>
<!-- Generator: Adobe Illustrator 19.0.0, SVG Export Plug-In . SVG Version: 6.00 Build 0)  -->
<svg version="1.1" id="Layer_1" xmlns="http://www.w3.org/2000/svg" xmlns:xlink="http://www.w3.org/1999/xlink" x="0px" y="0px"
	 viewBox="0 0 512.015 512.015" style="enable-background:new 0 0 512.015 512.015;" xml:space="preserve">
<g transform="translate(0 -1)">
	<g>
		<g>
			<path d="M199.71,60.898l-34.167-0.154c-4.19,0-8.499,4.309-8.499,8.533v8.533c0,4.233,4.309,8.533,8.533,8.533h34.133
				c4.224,0,8.533-4.301,8.533-8.533v-8.533C208.244,65.046,204.02,60.898,199.71,60.898z"/>
			<path d="M208.244,257.015h-51.2c-4.719,0-8.533,3.814-8.533,8.533v42.82c0,2.85,1.425,5.513,3.797,7.1l14.95,9.967l-14.95,9.967
				c-2.372,1.579-3.797,4.25-3.797,7.1v65.417c0,2.825,1.399,5.461,3.738,7.057l6.357,4.326l-6.357,4.309
				c-2.338,1.596-3.738,4.241-3.738,7.066v5.384c0,24.44,6.426,48.068,18.586,68.344c3.234,5.393,8.917,8.61,15.206,8.61h0.009
				c6.281,0,11.964-3.226,15.189-8.61c12.612-21.018,19.277-44.638,19.277-68.344V388.01c0-2.85-1.425-5.521-3.797-7.1l-6.417-4.275
				l6.417-4.284c2.372-1.587,3.797-4.25,3.797-7.1v-99.703C216.777,260.829,212.963,257.015,208.244,257.015z"/>
			<path d="M407.993,419.873l-13.662-46.08c-0.802-2.739-2.927-4.89-5.658-5.726l-7.364-2.287l4.932-5.922
				c1.826-2.193,2.432-5.154,1.63-7.885l-35.558-119.996l0.324-0.094c13.022-3.857,23.765-12.561,30.251-24.499
				c6.477-11.947,7.919-25.694,4.062-38.716L348.063,37.434c-3.866-13.03-12.57-23.774-24.508-30.242
				c-11.938-6.485-25.685-7.936-38.716-4.07L250.066,13.43c-8.96-7.723-20.582-12.416-33.289-12.416H148.17
				c-28.041,0-50.859,23.031-50.859,51.354v136.875c0,28.041,22.818,50.859,50.859,50.859h68.608c6.417,0,12.535-1.237,18.21-3.388
				c9.702,10.735,23.279,16.759,37.427,16.759c4.796,0,9.651-0.683,14.438-2.099l19.396,65.459c0.819,2.731,2.935,4.881,5.666,5.726
				l17.161,5.308l-11.503,13.807c-1.826,2.193-2.432,5.146-1.621,7.885l18.586,62.72c0.802,2.739,2.927,4.89,5.666,5.726
				l7.364,2.287l-4.941,5.914c-1.826,2.193-2.432,5.163-1.63,7.893l1.536,5.171c6.366,21.478,20.42,42.982,39.569,60.544
				c3.328,3.063,7.569,4.676,11.921,4.676c1.707,0,3.413-0.239,5.103-0.751c6.025-1.784,10.556-6.485,12.134-12.57
				C416.765,469.784,415.664,445.797,407.993,419.873z M225.311,77.814c0,13.636-11.964,25.6-25.6,25.6h-34.133
				c-13.636,0-25.6-11.964-25.6-25.6v-8.533c0-13.636,11.964-25.6,25.6-25.6l34.167,0.154c13.602,0,25.566,11.887,25.566,25.446
				V77.814z M293.313,231.653l-3.132,0.93l-8.183,2.423c-11.358,3.379-23.339,0.461-31.898-7.236
				c9.515-8.132,16-19.661,17.51-32.683c0.017-0.128,0.043-0.247,0.06-0.375c0.196-1.801,0.307-3.627,0.307-5.47v-74.675
				l29.969-8.875c6.34-1.886,11.571-6.118,14.729-11.938c3.157-5.811,3.866-12.518,1.988-18.859l-2.901-9.762
				c-1.877-6.349-6.118-11.588-11.938-14.746c-5.82-3.149-12.501-3.857-18.859-1.971l-12.996,3.849c0-2.014-0.154-3.994-0.384-5.948
				c-0.043-0.393-0.12-0.785-0.171-1.169c-0.256-1.758-0.589-3.49-1.007-5.188c-0.051-0.179-0.094-0.367-0.145-0.546
				c-1.067-4.096-2.569-8.004-4.557-11.639l27.989-8.286c17.852-5.299,36.702,4.924,42.001,22.793l38.886,131.234
				c2.569,8.661,1.613,17.792-2.697,25.728c-4.309,7.927-11.443,13.705-20.105,16.273L293.313,231.653z M267.978,96.775V70.066
				l17.843-5.282c1.954-0.606,4.045-0.375,5.862,0.606c1.809,0.981,3.123,2.611,3.712,4.582l2.901,9.779
				c0.58,1.971,0.367,4.053-0.623,5.862c-0.981,1.809-2.603,3.123-4.582,3.712L267.978,96.775z"/>
		</g>
	</g>
</g>
<g>
</g>
<g>
</g>
<g>
</g>
<g>
</g>
<g>
</g>
<g>
</g>
<g>
</g>
<g>
</g>
<g>
</g>
<g>
</g>
<g>
</g>
<g>
</g>
<g>
</g>
<g>
</g>
<g>
</g>
</svg>
