<?xml version="1.0" encoding="iso-8859-1"?>
<!-- Generator: Adobe Illustrator 19.0.0, SVG Export Plug-In . SVG Version: 6.00 Build 0)  -->
<svg version="1.1" id="Layer_1" xmlns="http://www.w3.org/2000/svg" xmlns:xlink="http://www.w3.org/1999/xlink" x="0px" y="0px"
	 viewBox="0 0 512.004 512.004" style="enable-background:new 0 0 512.004 512.004;" xml:space="preserve">
<g>
	<g>
		<g>
			<path d="M491.247,333.323c-4.403-1.604-9.327,0.657-10.948,5.077c-11.964,32.64-30.592,61.764-55.381,86.554
				c-3.337,3.328-3.337,8.73,0,12.066c1.664,1.664,3.849,2.5,6.033,2.5c2.176,0,4.361-0.836,6.033-2.5
				c26.556-26.556,46.524-57.762,59.341-92.749C497.946,339.842,495.676,334.944,491.247,333.323z"/>
			<path d="M506.456,203.052c-0.964-4.608-5.513-7.561-10.112-6.588c-4.608,0.964-7.561,5.495-6.588,10.103
				c6.81,32.35,6.81,66.534,0,98.876c-0.973,4.617,1.98,9.139,6.588,10.112c0.597,0.12,1.186,0.179,1.766,0.179
				c3.951,0,7.501-2.756,8.346-6.775C513.854,273.819,513.854,238.192,506.456,203.052z"/>
			<path d="M480.297,173.577c1.263,3.456,4.531,5.598,8.004,5.598c0.981,0,1.971-0.171,2.944-0.521
				c4.429-1.63,6.69-6.528,5.069-10.948c-12.826-34.987-32.794-66.185-59.332-92.723c-3.337-3.328-8.738-3.328-12.066,0
				c-3.337,3.336-3.337,8.738,0,12.066C449.688,111.83,468.325,140.937,480.297,173.577z"/>
			<path d="M31.63,338.406c-1.613-4.429-6.545-6.699-10.948-5.077c-4.429,1.621-6.699,6.519-5.086,10.94
				c12.826,34.995,32.794,66.202,59.349,92.757c1.664,1.664,3.849,2.5,6.033,2.5c2.185,0,4.369-0.836,6.033-2.5
				c3.337-3.328,3.337-8.738,0-12.066C62.222,400.17,43.577,371.046,31.63,338.406z"/>
			<path d="M22.172,305.448c-6.81-32.341-6.81-66.526,0-98.867c0.973-4.617-1.98-9.139-6.588-10.112
				c-4.608-0.973-9.148,1.98-10.112,6.588c-7.296,34.645-7.296,71.27,0,105.907c0.845,4.019,4.395,6.775,8.346,6.775
				c0.58,0,1.169-0.06,1.766-0.179C20.192,314.587,23.145,310.064,22.172,305.448z"/>
			<path d="M20.68,178.66c0.973,0.358,1.963,0.529,2.944,0.529c3.473,0,6.741-2.15,8.004-5.606
				c11.981-32.64,30.609-61.756,55.381-86.528c3.337-3.328,3.337-8.73,0-12.066c-3.328-3.336-8.73-3.336-12.066,0
				c-26.539,26.539-46.507,57.737-59.332,92.723C13.99,172.132,16.251,177.039,20.68,178.66z"/>
			<path d="M264.497,170.669H247.43v85.333h17.067c23.526,0,42.667-19.14,42.667-42.667
				C307.164,189.809,288.023,170.669,264.497,170.669z"/>
			<path d="M255.964,68.269c-103.518,0-187.733,84.215-187.733,187.733s84.215,187.733,187.733,187.733
				s187.733-84.215,187.733-187.733S359.482,68.269,255.964,68.269z M264.497,273.069H247.43v93.867c0,4.71-3.814,8.533-8.533,8.533
				s-8.533-3.823-8.533-8.533v-102.4v-102.4c0-4.71,3.814-8.533,8.533-8.533h25.6c32.93,0,59.733,26.795,59.733,59.733
				C324.23,246.274,297.427,273.069,264.497,273.069z"/>
		</g>
	</g>
</g>
<g>
</g>
<g>
</g>
<g>
</g>
<g>
</g>
<g>
</g>
<g>
</g>
<g>
</g>
<g>
</g>
<g>
</g>
<g>
</g>
<g>
</g>
<g>
</g>
<g>
</g>
<g>
</g>
<g>
</g>
</svg>
