<?xml version="1.0" encoding="iso-8859-1"?>
<!-- Generator: Adobe Illustrator 19.0.0, SVG Export Plug-In . SVG Version: 6.00 Build 0)  -->
<svg version="1.1" id="Layer_1" xmlns="http://www.w3.org/2000/svg" xmlns:xlink="http://www.w3.org/1999/xlink" x="0px" y="0px"
	 viewBox="0 0 512 512" style="enable-background:new 0 0 512 512;" xml:space="preserve">
<g>
	<g>
		<g>
			<rect x="76.796" y="213.333" width="85.333" height="17.067"/>
			<path d="M384,238.933v25.6h17.067v-25.6c0-4.71,3.814-8.533,8.533-8.533h25.6v-17.067h-25.6c-4.719,0-8.533-3.823-8.533-8.533
				v-25.6H384v25.6c0,4.71-3.814,8.533-8.533,8.533h-25.6V230.4h25.6C380.186,230.4,384,234.223,384,238.933z"/>
			<path d="M503.467,426.667h-8.533V128c0-4.71-3.814-8.533-8.533-8.533h-20.326l-14.703-29.414
				c-1.451-2.893-4.403-4.719-7.637-4.719V42.667c0-4.71-3.814-8.533-8.533-8.533H384c-4.719,0-8.533,3.823-8.533,8.533v42.667
				c-3.234,0-6.187,1.826-7.637,4.719l-14.703,29.414h-11.793V51.2c0-9.412-7.654-17.067-17.067-17.067H187.733
				c-9.412,0-17.067,7.654-17.067,17.067v68.267h-11.793l-14.703-29.414c-1.451-2.893-4.403-4.719-7.637-4.719V42.667
				c0-4.71-3.814-8.533-8.533-8.533H76.8c-4.719,0-8.533,3.823-8.533,8.533v42.667c-3.234,0-6.187,1.826-7.637,4.719l-14.703,29.414
				H25.6c-4.719,0-8.533,3.823-8.533,8.533v298.667H8.533C3.814,426.667,0,430.49,0,435.2v34.133c0,4.71,3.814,8.533,8.533,8.533
				h494.933c4.719,0,8.533-3.823,8.533-8.533V435.2C512,430.49,508.186,426.667,503.467,426.667z M380.74,102.4H384h51.2h3.26
				l8.533,17.067h-74.786L380.74,102.4z M332.8,204.8c0-4.71,3.814-8.533,8.533-8.533h25.6v-25.6c0-4.71,3.814-8.533,8.533-8.533
				H409.6c4.719,0,8.533,3.823,8.533,8.533v25.6h25.6c4.719,0,8.533,3.823,8.533,8.533v34.133c0,4.71-3.814,8.533-8.533,8.533h-25.6
				v25.6c0,4.71-3.814,8.533-8.533,8.533h-34.133c-4.719,0-8.533-3.823-8.533-8.533v-25.6h-25.6c-4.719,0-8.533-3.823-8.533-8.533
				V204.8z M187.733,51.2h136.533v68.267H307.2V85.359c0-9.429-7.663-17.092-17.092-17.092h-68.215
				c-9.429,0-17.092,7.663-17.092,17.092v34.108h-17.067V51.2z M290.133,85.359v34.108h-68.258l0.017-34.133L290.133,85.359z
				 M73.54,102.4h3.26H128h3.26l8.533,17.067H65.007L73.54,102.4z M59.733,204.8c0-4.71,3.814-8.533,8.533-8.533h102.4
				c4.719,0,8.533,3.823,8.533,8.533v34.133c0,4.71-3.814,8.533-8.533,8.533h-102.4c-4.719,0-8.533-3.823-8.533-8.533V204.8z
				 M494.933,460.8H17.067v-17.067H25.6h460.8h8.533V460.8z"/>
		</g>
	</g>
</g>
<g>
</g>
<g>
</g>
<g>
</g>
<g>
</g>
<g>
</g>
<g>
</g>
<g>
</g>
<g>
</g>
<g>
</g>
<g>
</g>
<g>
</g>
<g>
</g>
<g>
</g>
<g>
</g>
<g>
</g>
</svg>
