<?xml version="1.0" encoding="iso-8859-1"?>
<!-- Generator: Adobe Illustrator 19.0.0, SVG Export Plug-In . SVG Version: 6.00 Build 0)  -->
<svg version="1.1" id="Layer_1" xmlns="http://www.w3.org/2000/svg" xmlns:xlink="http://www.w3.org/1999/xlink" x="0px" y="0px"
	 viewBox="0 0 511.7 511.7" style="enable-background:new 0 0 511.7 511.7;" xml:space="preserve">
<g>
	<g>
		<path d="M272.95,332.7h-25.6v-17.1c0-4.7-3.8-8.5-8.5-8.5h-17.1v-42.7c0-4.7-3.8-8.5-8.5-8.5h-8.5V85.2h-8.5H93.75h-8.5v170.7
			h-8.5c-4.7,0-8.5,3.8-8.5,8.5v42.7h-17.2c-4.7,0-8.5,3.8-8.5,8.5v17.1h-25.6c-4.7,0-8.5,3.8-8.5,8.5v34.1c0,4.7,3.8,8.5,8.5,8.5
			h51.2v76.8c0,4.7,3.8,8.5,8.5,8.5h25.6v34.1c0,4.7,3.8,8.5,8.5,8.5c4.7,0,8.5-3.8,8.5-8.5v-34.1h51.2v34.1c0,4.7,3.8,8.5,8.5,8.5
			c4.7,0,8.5-3.8,8.5-8.5v-34.1h25.6c4.7,0,8.5-3.8,8.5-8.5v-76.7h51.2c4.7,0,8.5-3.8,8.5-8.5v-34.1
			C281.45,336.5,277.65,332.7,272.95,332.7z M85.15,273h8.5h102.4h8.5v34.1H85.15V273z M204.65,452.2H85.15v-68.3h119.5V452.2z"/>
	</g>
</g>
<g>
	<g>
		<path d="M469.15,119.9c-21.7-19.4-50.8-28.7-79.9-25.4c-46.8,5.2-84.7,42.9-90,89.7c-3.2,27.8,4.7,54.9,22.1,76.4
			c12.8,15.8,19.9,35.4,19.9,55.1v119.5c0,0.1,0.1,0.2,0.1,0.3c0,0.9,0.1,1.7,0.4,2.6c0,0.1,0.1,0.2,0.1,0.3c0,0.1,0.1,0.2,0.1,0.3
			c8.4,22.7,33,39.2,58.9,39.2c25.9,0,50.5-16.4,58.9-39.2c0.1-0.1,0.1-0.2,0.2-0.3c0-0.1,0.1-0.2,0.1-0.3c0.3-0.8,0.4-1.7,0.4-2.6
			c0-0.1,0.1-0.2,0.1-0.3V315.6c0-20,6.9-39.3,19.3-54.4c15.1-18.3,23.4-41.4,23.4-65C503.35,167.1,490.85,139.3,469.15,119.9z
			 M400.95,460.7c-14.1,0-28-6.8-36.6-17.1h73.1C428.95,453.9,415.05,460.7,400.95,460.7z M443.55,426.6h-85.3V324.2h85.3V426.6z
			 M452.15,170.6h-42.7v17.1h34.1c4.7,0,8.5,3.8,8.5,8.5s-3.8,8.5-8.5,8.5h-34.1v17.1h17.1c4.7,0,8.5,3.8,8.5,8.5
			c0,4.7-3.8,8.5-8.5,8.5h-17.1v68.3h-17.1v-68.3h-17.1c-4.7,0-8.5-3.8-8.5-8.5c0-4.7,3.8-8.5,8.5-8.5h17.1v-17.1h-34.1
			c-4.7,0-8.5-3.8-8.5-8.5s3.8-8.5,8.5-8.5h34.1v-17.1h-42.7c-4.7,0-8.5-3.8-8.5-8.5c0-4.7,3.8-8.5,8.5-8.5h102.4
			c4.7,0,8.5,3.8,8.5,8.5C460.55,166.8,456.85,170.6,452.15,170.6z"/>
	</g>
</g>
<g>
	<g>
		<path d="M179.05,34.1h-8.5V17c0-9.4-7.6-17-17-17h-17.1c-9.4,0-17,7.6-17,17v17.1h-8.5c-12.8,0-22.9,14.2-25.1,34.1h8h102.3h8
			C201.95,48.2,191.85,34.1,179.05,34.1z"/>
	</g>
</g>
<g>
</g>
<g>
</g>
<g>
</g>
<g>
</g>
<g>
</g>
<g>
</g>
<g>
</g>
<g>
</g>
<g>
</g>
<g>
</g>
<g>
</g>
<g>
</g>
<g>
</g>
<g>
</g>
<g>
</g>
</svg>
