<?xml version="1.0" encoding="iso-8859-1"?>
<!-- Generator: Adobe Illustrator 19.0.0, SVG Export Plug-In . SVG Version: 6.00 Build 0)  -->
<svg version="1.1" id="Layer_1" xmlns="http://www.w3.org/2000/svg" xmlns:xlink="http://www.w3.org/1999/xlink" x="0px" y="0px"
	 viewBox="0 0 512 512" style="enable-background:new 0 0 512 512;" xml:space="preserve">
<g>
	<g>
		<g>
			<path d="M315.733,238.933c-9.412,0-17.067,7.654-17.067,17.067c0,9.412,7.654,17.067,17.067,17.067S332.8,265.412,332.8,256
				C332.8,246.588,325.146,238.933,315.733,238.933z"/>
			<path d="M196.267,238.933c-9.412,0-17.067,7.654-17.067,17.067c0,9.412,7.654,17.067,17.067,17.067s17.067-7.654,17.067-17.067
				C213.333,246.588,205.679,238.933,196.267,238.933z"/>
			<path d="M256,145.067c-61.167,0-110.933,49.766-110.933,110.933S194.833,366.933,256,366.933S366.933,317.167,366.933,256
				S317.167,145.067,256,145.067z M256,162.133c18.825,0,34.133,15.309,34.133,34.133S274.825,230.4,256,230.4
				s-34.133-15.309-34.133-34.133S237.175,162.133,256,162.133z M264.533,256c0,4.71-3.823,8.533-8.533,8.533
				s-8.533-3.823-8.533-8.533s3.823-8.533,8.533-8.533S264.533,251.29,264.533,256z M196.267,290.133
				c-18.825,0-34.133-15.309-34.133-34.133c0-18.825,15.309-34.133,34.133-34.133S230.4,237.175,230.4,256
				C230.4,274.825,215.091,290.133,196.267,290.133z M256,349.867c-18.825,0-34.133-15.309-34.133-34.133
				c0-18.825,15.309-34.133,34.133-34.133s34.133,15.309,34.133,34.133C290.133,334.558,274.825,349.867,256,349.867z
				 M315.733,290.133c-18.825,0-34.133-15.309-34.133-34.133c0-18.825,15.309-34.133,34.133-34.133s34.133,15.309,34.133,34.133
				C349.867,274.825,334.558,290.133,315.733,290.133z"/>
			<path d="M256,213.333c9.412,0,17.067-7.654,17.067-17.067c0-9.412-7.654-17.067-17.067-17.067s-17.067,7.654-17.067,17.067
				C238.933,205.679,246.588,213.333,256,213.333z"/>
			<path d="M256,298.667c-9.412,0-17.067,7.654-17.067,17.067c0,9.412,7.654,17.067,17.067,17.067s17.067-7.654,17.067-17.067
				C273.067,306.321,265.412,298.667,256,298.667z"/>
			<path d="M256,0C114.842,0,0,114.842,0,256s114.842,256,256,256s256-114.842,256-256S397.158,0,256,0z M358.579,81.016
				c-3.337-3.328-3.337-8.73,0-12.066c3.336-3.337,8.73-3.337,12.066,0c11.196,11.187,17.357,26.18,17.357,42.231
				s-6.161,31.053-17.357,42.24c-1.664,1.672-3.849,2.5-6.033,2.5c-2.185,0-4.369-0.828-6.033-2.5c-3.337-3.328-3.337-8.73,0-12.066
				c7.97-7.962,12.356-18.679,12.356-30.174C370.935,99.695,366.549,88.986,358.579,81.016z M205.329,42.667
				c32.648,0,59.204,26.556,59.204,59.204c0,4.71-3.823,8.533-8.533,8.533s-8.533-3.823-8.533-8.533
				c0-23.236-18.901-42.138-42.138-42.138c-4.71,0-8.533-3.814-8.533-8.533S200.619,42.667,205.329,42.667z M102.4,264.533
				c-23.125,0-42.667,19.541-42.667,42.667c0,4.719-3.823,8.533-8.533,8.533s-8.533-3.814-8.533-8.533
				c0-32.93,26.795-59.733,59.733-59.733c4.71,0,8.533,3.814,8.533,8.533S107.11,264.533,102.4,264.533z M81.391,153.054
				c-3.337,3.328-8.738,3.328-12.066,0c-3.337-3.337-3.337-8.738,0-12.075c11.187-11.187,26.052-17.357,41.856-17.357
				c15.812,0,30.677,6.17,41.865,17.357c3.337,3.337,3.337,8.738,0,12.075c-1.664,1.664-3.849,2.5-6.033,2.5
				c-2.185,0-4.369-0.836-6.033-2.5c-7.97-7.97-18.551-12.365-29.798-12.365S89.353,145.084,81.391,153.054z M153.421,430.985
				c3.337,3.328,3.337,8.73,0,12.066c-1.664,1.664-3.849,2.5-6.033,2.5c-2.185,0-4.369-0.836-6.033-2.5
				c-11.196-11.187-17.357-26.18-17.357-42.231s6.161-31.053,17.357-42.24c3.337-3.337,8.73-3.337,12.066,0
				c3.337,3.328,3.337,8.73,0,12.066c-7.97,7.962-12.356,18.679-12.356,30.174C141.065,412.305,145.451,423.014,153.421,430.985z
				 M307.2,469.333c-32.939,0-59.733-26.803-59.733-59.733c0-4.719,3.823-8.533,8.533-8.533s8.533,3.814,8.533,8.533
				c0,23.125,19.541,42.667,42.667,42.667c4.71,0,8.533,3.814,8.533,8.533C315.733,465.519,311.91,469.333,307.2,469.333z M256,384
				c-70.579,0-128-57.421-128-128s57.421-128,128-128s128,57.421,128,128S326.579,384,256,384z M443.051,370.645
				c-11.187,11.187-26.18,17.357-42.232,17.357s-31.053-6.17-42.24-17.357c-3.337-3.337-3.337-8.738,0-12.066
				c3.336-3.337,8.73-3.337,12.066,0c7.97,7.962,18.688,12.356,30.174,12.356c11.486,0,22.195-4.395,30.165-12.356
				c3.328-3.337,8.73-3.337,12.066,0C446.387,361.907,446.387,367.309,443.051,370.645z M409.6,264.533
				c-4.719,0-8.533-3.814-8.533-8.533s3.814-8.533,8.533-8.533c23.125,0,42.667-19.541,42.667-42.667
				c0-4.719,3.814-8.533,8.533-8.533c4.719,0,8.533,3.814,8.533,8.533C469.333,237.73,442.53,264.533,409.6,264.533z"/>
		</g>
	</g>
</g>
<g>
</g>
<g>
</g>
<g>
</g>
<g>
</g>
<g>
</g>
<g>
</g>
<g>
</g>
<g>
</g>
<g>
</g>
<g>
</g>
<g>
</g>
<g>
</g>
<g>
</g>
<g>
</g>
<g>
</g>
</svg>
