<?xml version="1.0" encoding="iso-8859-1"?>
<!-- Generator: Adobe Illustrator 19.0.0, SVG Export Plug-In . SVG Version: 6.00 Build 0)  -->
<svg version="1.1" id="Layer_1" xmlns="http://www.w3.org/2000/svg" xmlns:xlink="http://www.w3.org/1999/xlink" x="0px" y="0px"
	 viewBox="0 0 512 512" style="enable-background:new 0 0 512 512;" xml:space="preserve">
<g>
	<g>
		<g>
			<polygon points="338.978,255.997 377.822,255.997 358.4,222 			"/>
			<path d="M503.467,102.4H8.533C3.814,102.4,0,106.223,0,110.933v290.133c0,4.71,3.814,8.533,8.533,8.533h195.14
				c-2.355-21.222-10.428-46.328-31.053-71.381c-20.821-25.318-25.933-51.755-27.162-65.152h-25.992
				c-3.038,0-5.854-1.621-7.381-4.25c-1.527-2.628-1.536-5.879-0.026-8.516l34.133-59.733c3.029-5.316,11.785-5.316,14.814,0
				l34.133,59.733c1.51,2.637,1.502,5.888-0.026,8.516c-1.527,2.628-4.344,4.25-7.381,4.25h-25.088
				c1.306,11.529,6.042,33.502,23.159,54.315c23.731,28.834,32.896,57.745,35.311,82.219h84.949
				c-2.364-21.231-10.428-46.336-31.044-71.381c-20.83-25.318-25.941-51.755-27.17-65.152h-25.984c-3.038,0-5.854-1.621-7.381-4.25
				c-1.527-2.628-1.536-5.879-0.026-8.516l34.133-59.733c3.029-5.316,11.785-5.316,14.814,0l34.133,59.733
				c1.51,2.637,1.502,5.888-0.026,8.516c-1.527,2.628-4.344,4.25-7.381,4.25h-25.097c1.306,11.529,6.05,33.502,23.168,54.315
				c23.731,28.834,32.896,57.754,35.311,82.219h84.949c-2.364-21.231-10.428-46.336-31.044-71.381
				c-20.83-25.318-25.941-51.755-27.17-65.152h-25.984c-3.038,0-5.854-1.621-7.381-4.25c-1.527-2.628-1.536-5.879-0.026-8.516
				l34.133-59.733c3.029-5.316,11.784-5.316,14.814,0l34.133,59.733c1.51,2.637,1.502,5.888-0.026,8.516
				c-1.527,2.628-4.343,4.25-7.381,4.25h-25.096c1.306,11.529,6.05,33.502,23.168,54.315c23.731,28.834,32.896,57.754,35.311,82.219
				h77.551c4.719,0,8.533-3.823,8.533-8.533V110.933C512,106.223,508.186,102.4,503.467,102.4z"/>
			<polygon points="134.178,255.997 173.022,255.997 153.6,222 			"/>
			<polygon points="236.578,255.997 275.422,255.997 256,222 			"/>
		</g>
	</g>
</g>
<g>
</g>
<g>
</g>
<g>
</g>
<g>
</g>
<g>
</g>
<g>
</g>
<g>
</g>
<g>
</g>
<g>
</g>
<g>
</g>
<g>
</g>
<g>
</g>
<g>
</g>
<g>
</g>
<g>
</g>
</svg>
