<?xml version="1.0" encoding="iso-8859-1"?>
<!-- Generator: Adobe Illustrator 19.0.0, SVG Export Plug-In . SVG Version: 6.00 Build 0)  -->
<svg version="1.1" id="Layer_1" xmlns="http://www.w3.org/2000/svg" xmlns:xlink="http://www.w3.org/1999/xlink" x="0px" y="0px"
	 viewBox="0 0 512 512" style="enable-background:new 0 0 512 512;" xml:space="preserve">
<g>
	<g>
		<path d="M472.055,196.352c-21.973-1.382-40.32-11.648-50.338-28.16l-2.33-3.831C405.786,141.935,381.039,128,354.816,128H243.422
			c-21.555,0-42.138,9.242-56.457,25.353l-11.793,13.261c-22.144,24.926-52.574,40.926-85.666,45.065l-52.13,6.519
			C16.068,220.851,0,239.061,0,260.531v38.135c0,23.526,19.14,42.667,42.667,42.667h34.901C81.655,365.508,102.682,384,128,384
			s46.345-18.492,50.432-42.667h172.203C354.722,365.508,375.748,384,401.067,384c25.318,0,46.345-18.492,50.432-42.667h17.835
			c23.526,0,42.667-19.14,42.667-42.667v-59.733C512,216.474,494.456,197.769,472.055,196.352z M128,366.933
			c-18.825,0-34.133-15.309-34.133-34.133s15.309-34.133,34.133-34.133s34.133,15.309,34.133,34.133S146.825,366.933,128,366.933z
			 M341.333,230.4h-93.867c-9.412,0-17.067,7.654-17.067,17.067s7.654,17.067,17.067,17.067h56.201l-2.5-2.5
			c-3.337-3.337-3.337-8.73,0-12.066c3.337-3.336,8.73-3.336,12.066,0l17.067,17.067c0.785,0.785,1.408,1.724,1.843,2.773
			c0.862,2.082,0.862,4.437,0,6.519c-0.435,1.05-1.058,1.988-1.843,2.773l-17.067,17.067c-1.664,1.664-3.849,2.5-6.033,2.5
			c-2.185,0-4.369-0.836-6.033-2.5c-3.337-3.337-3.337-8.73,0-12.066l2.5-2.5h-56.201c-18.825,0-34.133-15.309-34.133-34.133
			s15.309-34.133,34.133-34.133h93.867c4.71,0,8.533,3.823,8.533,8.533C349.867,226.577,346.044,230.4,341.333,230.4z
			 M401.067,366.933c-18.825,0-34.133-15.309-34.133-34.133s15.309-34.133,34.133-34.133c18.825,0,34.133,15.309,34.133,34.133
			S419.891,366.933,401.067,366.933z"/>
	</g>
</g>
<g>
</g>
<g>
</g>
<g>
</g>
<g>
</g>
<g>
</g>
<g>
</g>
<g>
</g>
<g>
</g>
<g>
</g>
<g>
</g>
<g>
</g>
<g>
</g>
<g>
</g>
<g>
</g>
<g>
</g>
</svg>
