<?xml version="1.0" encoding="iso-8859-1"?>
<!-- Generator: Adobe Illustrator 19.0.0, SVG Export Plug-In . SVG Version: 6.00 Build 0)  -->
<svg version="1.1" id="Layer_1" xmlns="http://www.w3.org/2000/svg" xmlns:xlink="http://www.w3.org/1999/xlink" x="0px" y="0px"
	 viewBox="0 0 512 512" style="enable-background:new 0 0 512 512;" xml:space="preserve">
<g>
	<g>
		<g>
			<path d="M477.867,366.933h-26.266L426.667,59.349V8.533c0-4.719-3.814-8.533-8.533-8.533H93.867
				c-4.719,0-8.533,3.814-8.533,8.533v50.816L60.399,366.933H34.133c-4.719,0-8.533,3.814-8.533,8.533v42.667
				c0,4.719,3.814,8.533,8.533,8.533h78.106l5.692,34.133h-6.997c-4.719,0-8.533,3.814-8.533,8.533v34.133
				c0,4.719,3.814,8.533,8.533,8.533h290.133c4.719,0,8.533-3.814,8.533-8.533v-34.133c0-4.719-3.814-8.533-8.533-8.533h-6.997
				l5.692-34.133h78.106c4.719,0,8.533-3.814,8.533-8.533v-42.667C486.4,370.748,482.586,366.933,477.867,366.933z M392.533,494.933
				H119.467v-17.067H128h256h8.533V494.933z M469.333,409.6h-76.8H119.467h-76.8V384h25.6c4.446,0,8.149-3.413,8.508-7.842
				l24.96-307.891h25.549l-24.858,306.509c-0.196,2.372,0.614,4.727,2.236,6.477c1.613,1.749,3.891,2.748,6.272,2.748h59.733
				c4.719,0,8.533-3.814,8.533-8.533v-307.2h34.133v307.2c0,4.719,3.814,8.533,8.533,8.533h68.267c4.719,0,8.533-3.814,8.533-8.533
				v-307.2H332.8v307.2c0,4.719,3.814,8.533,8.533,8.533h59.733c2.381,0,4.659-0.998,6.272-2.748
				c1.621-1.749,2.432-4.105,2.236-6.477L384.717,68.267l29.815,10.667l24.67,304.273c1.101,0.256,2.739,0.794,4.531,0.794h25.6
				V409.6z"/>
			<path d="M439.491,386.825l-0.29-3.618C437.571,382.832,437.162,383.105,439.491,386.825z"/>
		</g>
	</g>
</g>
<g>
</g>
<g>
</g>
<g>
</g>
<g>
</g>
<g>
</g>
<g>
</g>
<g>
</g>
<g>
</g>
<g>
</g>
<g>
</g>
<g>
</g>
<g>
</g>
<g>
</g>
<g>
</g>
<g>
</g>
</svg>
